<svg width="80" height="23" viewBox="0 0 80 23" fill="none" xmlns="http://www.w3.org/2000/svg">
<path d="M8.39844 0.902344V18H5.02344V4.79297L0.96875 6.08203V3.42188L8.03516 0.902344H8.39844ZM25.625 15.3633V18H13.9531V15.75L19.4727 9.83203C20.0273 9.21484 20.4648 8.67188 20.7852 8.20312C21.1055 7.72656 21.3359 7.30078 21.4766 6.92578C21.625 6.54297 21.6992 6.17969 21.6992 5.83594C21.6992 5.32031 21.6133 4.87891 21.4414 4.51172C21.2695 4.13672 21.0156 3.84766 20.6797 3.64453C20.3516 3.44141 19.9453 3.33984 19.4609 3.33984C18.9453 3.33984 18.5 3.46484 18.125 3.71484C17.7578 3.96484 17.4766 4.3125 17.2812 4.75781C17.0938 5.20312 17 5.70703 17 6.26953H13.6133C13.6133 5.25391 13.8555 4.32422 14.3398 3.48047C14.8242 2.62891 15.5078 1.95313 16.3906 1.45312C17.2734 0.945313 18.3203 0.691406 19.5312 0.691406C20.7266 0.691406 21.7344 0.886719 22.5547 1.27734C23.3828 1.66016 24.0078 2.21484 24.4297 2.94141C24.8594 3.66016 25.0742 4.51953 25.0742 5.51953C25.0742 6.08203 24.9844 6.63281 24.8047 7.17188C24.625 7.70312 24.3672 8.23438 24.0312 8.76562C23.7031 9.28906 23.3047 9.82031 22.8359 10.3594C22.3672 10.8984 21.8477 11.457 21.2773 12.0352L18.3125 15.3633H25.625ZM39.6875 11.625V14.2734H27.3945L27.2305 12.2227L34.3438 0.9375H37.0273L34.1211 5.80078L30.582 11.625H39.6875ZM37.7539 0.9375V18H34.3789V0.9375H37.7539ZM53 7.96875V10.9219C53 12.2031 52.8633 13.3086 52.5898 14.2383C52.3164 15.1602 51.9219 15.918 51.4062 16.5117C50.8984 17.0977 50.293 17.5312 49.5898 17.8125C48.8867 18.0938 48.1055 18.2344 47.2461 18.2344C46.5586 18.2344 45.918 18.1484 45.3242 17.9766C44.7305 17.7969 44.1953 17.5195 43.7188 17.1445C43.25 16.7695 42.8438 16.2969 42.5 15.7266C42.1641 15.1484 41.9062 14.4609 41.7266 13.6641C41.5469 12.8672 41.457 11.9531 41.457 10.9219V7.96875C41.457 6.6875 41.5938 5.58984 41.8672 4.67578C42.1484 3.75391 42.543 3 43.0508 2.41406C43.5664 1.82812 44.1758 1.39844 44.8789 1.125C45.582 0.84375 46.3633 0.703125 47.2227 0.703125C47.9102 0.703125 48.5469 0.792969 49.1328 0.972656C49.7266 1.14453 50.2617 1.41406 50.7383 1.78125C51.2148 2.14844 51.6211 2.62109 51.957 3.19922C52.293 3.76953 52.5508 4.45312 52.7305 5.25C52.9102 6.03906 53 6.94531 53 7.96875ZM49.6133 11.3672V7.51172C49.6133 6.89453 49.5781 6.35547 49.5078 5.89453C49.4453 5.43359 49.3477 5.04297 49.2148 4.72266C49.082 4.39453 48.918 4.12891 48.7227 3.92578C48.5273 3.72266 48.3047 3.57422 48.0547 3.48047C47.8047 3.38672 47.5273 3.33984 47.2227 3.33984C46.8398 3.33984 46.5 3.41406 46.2031 3.5625C45.9141 3.71094 45.668 3.94922 45.4648 4.27734C45.2617 4.59766 45.1055 5.02734 44.9961 5.56641C44.8945 6.09766 44.8438 6.74609 44.8438 7.51172V11.3672C44.8438 11.9844 44.875 12.5273 44.9375 12.9961C45.0078 13.4648 45.1094 13.8672 45.2422 14.2031C45.3828 14.5312 45.5469 14.8008 45.7344 15.0117C45.9297 15.2148 46.1523 15.3633 46.4023 15.457C46.6602 15.5508 46.9414 15.5977 47.2461 15.5977C47.6211 15.5977 47.9531 15.5234 48.2422 15.375C48.5391 15.2188 48.7891 14.9766 48.9922 14.6484C49.2031 14.3125 49.3594 13.875 49.4609 13.3359C49.5625 12.7969 49.6133 12.1406 49.6133 11.3672ZM58.8125 7.75781V22.875H55.4375V5.32031H58.5664L58.8125 7.75781ZM66.8398 11.5195V11.7656C66.8398 12.6875 66.7305 13.543 66.5117 14.332C66.3008 15.1211 65.9883 15.8086 65.5742 16.3945C65.1602 16.9727 64.6445 17.4258 64.0273 17.7539C63.418 18.0742 62.7148 18.2344 61.918 18.2344C61.1445 18.2344 60.4727 18.0781 59.9023 17.7656C59.332 17.4531 58.8516 17.0156 58.4609 16.4531C58.0781 15.8828 57.7695 15.2227 57.5352 14.4727C57.3008 13.7227 57.1211 12.918 56.9961 12.0586V11.4141C57.1211 10.4922 57.3008 9.64844 57.5352 8.88281C57.7695 8.10938 58.0781 7.44141 58.4609 6.87891C58.8516 6.30859 59.3281 5.86719 59.8906 5.55469C60.4609 5.24219 61.1289 5.08594 61.8945 5.08594C62.6992 5.08594 63.4062 5.23828 64.0156 5.54297C64.6328 5.84766 65.1484 6.28516 65.5625 6.85547C65.9844 7.42578 66.3008 8.10547 66.5117 8.89453C66.7305 9.68359 66.8398 10.5586 66.8398 11.5195ZM63.4531 11.7656V11.5195C63.4531 10.9805 63.4062 10.4844 63.3125 10.0312C63.2266 9.57031 63.0859 9.16797 62.8906 8.82422C62.7031 8.48047 62.4531 8.21484 62.1406 8.02734C61.8359 7.83203 61.4648 7.73438 61.0273 7.73438C60.5664 7.73438 60.1719 7.80859 59.8438 7.95703C59.5234 8.10547 59.2617 8.32031 59.0586 8.60156C58.8555 8.88281 58.7031 9.21875 58.6016 9.60938C58.5 10 58.4375 10.4414 58.4141 10.9336V12.5625C58.4531 13.1406 58.5625 13.6602 58.7422 14.1211C58.9219 14.5742 59.1992 14.9336 59.5742 15.1992C59.9492 15.4648 60.4414 15.5977 61.0508 15.5977C61.4961 15.5977 61.8711 15.5 62.1758 15.3047C62.4805 15.1016 62.7266 14.8242 62.9141 14.4727C63.1094 14.1211 63.2461 13.7148 63.3242 13.2539C63.4102 12.793 63.4531 12.2969 63.4531 11.7656ZM71.4688 5.32031L73.5664 9.17578L75.7227 5.32031H79.3203L75.7344 11.5195L79.4844 18H75.875L73.5898 13.9219L71.3047 18H67.6953L71.4453 11.5195L67.8594 5.32031H71.4688Z" fill="#131313"/>
</svg>
