<svg width="19" height="19" viewBox="0 0 19 19" fill="none" xmlns="http://www.w3.org/2000/svg">
<path d="M9.32033 0C9.96377 0 10.4854 0.521607 10.4854 1.16504V8.1553H17.4756C18.1191 8.1553 18.6407 8.6769 18.6407 9.32034C18.6407 9.96377 18.1191 10.4854 17.4756 10.4854H10.4854V17.4756C10.4854 18.1191 9.96377 18.6407 9.32033 18.6407C8.6769 18.6407 8.15529 18.1191 8.15529 17.4756V10.4854H1.16504C0.521607 10.4854 0 9.96377 0 9.32034C0 8.6769 0.521607 8.1553 1.16504 8.1553H8.15529V1.16504C8.15529 0.521607 8.6769 0 9.32033 0Z" fill="#3A3A3A"/>
</svg>
