<svg width="113" height="113" viewBox="0 0 113 113" fill="none" xmlns="http://www.w3.org/2000/svg">
<path d="M18.7656 18.7953V93.6575C18.7656 96.1394 19.7515 98.5195 21.5065 100.274C23.2614 102.029 25.6416 103.015 28.1234 103.015H84.2701C86.7519 103.015 89.1321 102.029 90.887 100.274C92.642 98.5195 93.6279 96.1394 93.6279 93.6575V39.111C93.6277 37.8644 93.3785 36.6303 92.8948 35.4813C92.4111 34.3324 91.7027 33.2916 90.8112 32.4202L70.0369 12.1045C68.2887 10.3951 65.9409 9.4378 63.4958 9.4375H28.1234C25.6416 9.4375 23.2614 10.4234 21.5065 12.1783C19.7515 13.9333 18.7656 16.3134 18.7656 18.7953V18.7953Z" stroke="#1A0F91" stroke-width="9.35778" stroke-linecap="round" stroke-linejoin="round"/>
<path d="M42.1602 60.9062H70.2335" stroke="#1A0F91" stroke-width="9.35778" stroke-linecap="round" stroke-linejoin="round"/>
<path d="M42.1602 79.6211H56.1968" stroke="#1A0F91" stroke-width="9.35778" stroke-linecap="round" stroke-linejoin="round"/>
<path d="M65.5527 9.4375V28.1531C65.5527 30.6349 66.5386 33.0151 68.2936 34.77C70.0485 36.5249 72.4287 37.5108 74.9105 37.5108H93.6261" stroke="#1A0F91" stroke-width="9.35778" stroke-linejoin="round"/>
</svg>
