<svg width="21" height="21" viewBox="0 0 21 21" fill="none" xmlns="http://www.w3.org/2000/svg">
<path d="M5.6449 2.64429C5.6449 1.53877 6.5411 0.642578 7.64661 0.642578H13.6517C14.7573 0.642578 15.6535 1.53877 15.6535 2.64429V4.646H17.6448C17.651 4.64594 17.6572 4.64594 17.6634 4.646H19.6569C20.2096 4.646 20.6577 5.0941 20.6577 5.64685C20.6577 6.19961 20.2096 6.64771 19.6569 6.64771H18.5871L17.719 18.8006C17.6442 19.8481 16.7726 20.6597 15.7224 20.6597H5.57596C4.52579 20.6597 3.65416 19.8481 3.57934 18.8006L2.71128 6.64771H1.64148C1.08872 6.64771 0.640625 6.19961 0.640625 5.64685C0.640625 5.0941 1.08872 4.646 1.64148 4.646H3.63493C3.64114 4.64594 3.64733 4.64594 3.65352 4.646H5.6449V2.64429ZM7.64661 4.646H13.6517V2.64429H7.64661V4.646ZM4.71809 6.64771L5.57596 18.658H15.7224L16.5803 6.64771H4.71809ZM8.64747 8.64942C9.20022 8.64942 9.64832 9.09752 9.64832 9.65027V15.6554C9.64832 16.2082 9.20022 16.6563 8.64747 16.6563C8.09471 16.6563 7.64661 16.2082 7.64661 15.6554V9.65027C7.64661 9.09752 8.09471 8.64942 8.64747 8.64942ZM12.6509 8.64942C13.2036 8.64942 13.6517 9.09752 13.6517 9.65027V15.6554C13.6517 16.2082 13.2036 16.6563 12.6509 16.6563C12.0981 16.6563 11.65 16.2082 11.65 15.6554V9.65027C11.65 9.09752 12.0981 8.64942 12.6509 8.64942Z" fill="#A8A8A8"/>
</svg>
