<svg width="35" height="35" viewBox="0 0 35 35" fill="none" xmlns="http://www.w3.org/2000/svg">
<path d="M17.5013 2.91602C25.5557 2.91602 32.0846 9.44497 32.0846 17.4993C32.0846 25.5537 25.5557 32.0827 17.5013 32.0827C9.44693 32.0827 2.91797 25.5537 2.91797 17.4993C2.91797 9.44497 9.44693 2.91602 17.5013 2.91602ZM17.5013 7.29102C11.8634 7.29102 7.29297 11.8614 7.29297 17.4993C7.29297 20.2002 8.34297 22.6575 10.0551 24.4833L10.2826 24.7166L12.3446 22.656C11.0263 21.3348 10.2096 19.5118 10.2096 17.4993C10.2096 13.4729 13.4748 10.2077 17.5013 10.2077C18.1546 10.2077 18.7876 10.2937 19.3898 10.4556L21.6692 8.17768C20.3961 7.60893 18.9859 7.29102 17.5013 7.29102ZM26.823 13.3329L24.5465 15.6108C24.7069 16.2131 24.793 16.846 24.793 17.4993C24.793 19.5118 23.9763 21.3348 22.658 22.656L24.7201 24.7181C26.5663 22.8704 27.7096 20.3183 27.7096 17.4993C27.7096 16.0148 27.3932 14.6046 26.823 13.3329ZM23.6876 9.24956L18.2553 14.6804C18.0146 14.6162 17.7623 14.5827 17.5013 14.5827C15.8898 14.5827 14.5846 15.8879 14.5846 17.4993C14.5846 19.1108 15.8898 20.416 17.5013 20.416C19.1128 20.416 20.418 19.1108 20.418 17.4993C20.418 17.2383 20.3844 16.986 20.3203 16.7454L25.7511 11.3116L23.689 9.24956H23.6876Z" fill="#3E3AEE"/>
</svg>
