<svg width="832" height="635" viewBox="0 0 832 635" fill="none" xmlns="http://www.w3.org/2000/svg">
<g clip-path="url(#clip0_1525_4358)">
<path d="M59.0713 601.523C59.0713 601.523 -18.0161 547.361 17.4137 479.272C52.868 411.183 123.752 306.658 88.2733 253.354C52.868 200.075 49.2638 29.3741 253.089 3.18793C415.674 -17.6777 465.08 68.1876 490.285 126.788C523.533 204.096 493.816 345.202 649.266 363.812C804.74 382.422 893.548 459.289 782.183 584.605C733.513 639.38 59.0713 601.523 59.0713 601.523Z" fill="#C9D6F2"/>
<path d="M337.428 558.908C222.704 583.991 129.262 549.174 161.137 489.936C193.012 430.698 173.47 423.22 148.902 404.586C124.31 385.951 69.093 334.069 122.887 277.087C176.755 220.13 135.833 203.604 119.013 170.087C69.8776 72.3056 269.118 32.1436 215.201 122.152C174.72 189.702 176.854 241.412 227.166 275.788C277.504 310.163 287.532 328.283 285.325 370.774C283.094 413.265 265.71 503.544 317.004 499.768C368.273 496.017 396.273 546.035 337.428 558.908Z" fill="#EBF2FF"/>
<path d="M129.02 156.749C123.7 146.623 122.449 96.9968 170.604 99.5713C199.904 101.14 184.703 141.155 178.058 171.951C171.438 202.747 175.949 251.098 188.209 271.007C210.84 307.737 205.985 323.184 177.984 354.715C177.984 354.715 163.445 378.131 190.268 403.238C217.092 428.345 206.721 497.513 237.884 508.718C269.048 519.923 286.652 543.805 265.296 546.036C243.989 548.267 155.599 556.873 178.867 498.665C212.777 413.953 146.674 388.845 130.197 370.039C115.093 352.803 102.172 314.308 145.987 266.006C179.872 228.639 145.374 187.937 129.02 156.749Z" fill="#CBDBF4"/>
<path d="M248.215 597.598L246.45 605.371C244.783 604.954 204.817 594.901 161.762 567.268C104.436 530.465 69.5951 479.956 61.0625 421.062L68.4917 419.787C88.3275 556.529 246.622 597.206 248.215 597.598Z" fill="#7585F8"/>
<path d="M66.485 428.933C66.485 428.933 24.8519 406.842 42.1133 355.965C42.1133 355.965 79.0632 385.976 66.485 428.933Z" fill="#7585F8"/>
<path d="M79.8336 470.519C79.8336 470.519 23.0723 489.497 0 425.405C0 425.405 30.2809 414.297 79.8336 470.519Z" fill="#7585F8"/>
<path d="M77.8998 470.76C77.8998 470.76 130.591 441.362 104.331 378.74C104.331 378.74 75.5705 393.648 77.8998 470.76Z" fill="#7585F8"/>
<path d="M109.38 518.208C109.38 518.208 54.6541 543.242 25.4766 482.067C25.4766 482.067 54.507 467.699 109.38 518.208Z" fill="#7585F8"/>
<path d="M107.448 518.646C107.448 518.646 157.05 483.706 124.783 424.297C124.807 424.272 97.5913 442.269 107.448 518.646Z" fill="#7585F8"/>
<path d="M156.48 559.642C156.48 559.642 106.535 594.14 67.8438 539.242C67.8683 539.242 94.1525 519.823 156.48 559.642Z" fill="#7585F8"/>
<path d="M154.637 560.427C154.637 560.427 197.888 517.053 156.476 464.436C156.476 464.411 132.545 487.042 154.637 560.427Z" fill="#7585F8"/>
<path d="M204.916 585.633C204.916 585.633 165.171 632.636 114.172 590.39C114.172 590.39 134.841 564.449 204.916 585.633Z" fill="#7585F8"/>
<path d="M203.36 586.882C203.36 586.882 234.548 533.21 181.489 493.906C181.489 493.931 163.934 522.275 203.36 586.882Z" fill="#7585F8"/>
<path d="M543.967 597.772C653.836 627.759 746.027 598.679 718.1 539.711C690.173 480.768 709.445 474.515 734.185 457.671C758.924 440.851 814.95 393.358 765.667 335.493C716.359 277.629 756.791 263.677 774.739 232.048C827.136 139.783 636.207 91.0153 683.945 180.853C719.792 248.28 715.182 298.225 664.723 329.02C614.312 359.816 603.695 376.881 603.744 418.122C603.793 459.363 616.151 547.655 566.671 541.477C517.217 535.347 487.647 582.399 543.967 597.772Z" fill="#7585F8"/>
<path opacity="0.2" d="M765.716 218.659C771.38 209.121 775.058 161.113 728.3 161.211C699.858 161.285 712.608 200.785 717.512 230.943C722.391 261.101 715.624 307.687 702.776 326.37C679.042 360.82 682.965 376.021 708.538 407.92C708.538 407.92 721.435 431.336 694.194 454.31C666.978 477.309 673.598 544.785 642.876 554.102C612.13 563.395 593.887 585.682 614.459 588.87C635.006 592.082 720.184 604.807 700.496 547.286C671.882 463.554 737.127 442.517 754.02 425.133C769.492 409.195 783.909 372.54 743.894 323.624C712.927 285.767 748.381 248.057 765.716 218.659Z" fill="#F6F5F7"/>
<path d="M527.98 595.834L526.312 585.659C687.99 559.228 757.943 432.612 758.654 431.312L767.75 436.216C767.015 437.516 694.831 568.594 527.98 595.834Z" fill="#EBF2FF"/>
<path d="M757.953 439.966C757.953 439.966 779.064 385.363 806.599 402.796C818.319 410.201 811.993 436.705 757.953 439.966Z" fill="#EBF2FF"/>
<path d="M745.734 457.815C745.734 457.815 799.553 426.701 805.168 458.159C807.522 471.571 783.935 489.151 745.734 457.815Z" fill="#EBF2FF"/>
<path d="M745.823 463.628C745.823 463.628 778.777 413.364 744.843 408.534C730.401 406.425 711.668 428.467 745.823 463.628Z" fill="#EBF2FF"/>
<path d="M709.975 500.06C709.975 500.06 745.454 451.023 711.937 444.648C697.667 441.901 677.929 463.135 709.975 500.06Z" fill="#EBF2FF"/>
<path d="M678.553 527.815C678.553 527.815 713.762 478.728 680.244 472.402C665.974 469.681 646.31 491.012 678.553 527.815Z" fill="#EBF2FF"/>
<path d="M634.626 555.133C634.626 555.133 678.098 511.783 647.008 499.867C633.743 494.791 610.671 512.911 634.626 555.133Z" fill="#EBF2FF"/>
<path d="M596.581 572.469C596.581 572.469 638.803 528.065 607.198 517.056C593.81 512.397 571.204 531.056 596.581 572.469Z" fill="#EBF2FF"/>
<path d="M544.515 587.423C544.515 587.423 597.132 554.274 571.069 535.222C559.962 527.082 533.334 539.759 544.515 587.423Z" fill="#EBF2FF"/>
<path d="M719.414 490.718C719.414 490.718 773.331 459.604 778.897 491.086C781.251 504.473 757.713 521.98 719.414 490.718Z" fill="#EBF2FF"/>
<path d="M687.258 519.725C687.258 519.725 741.15 488.659 746.716 520.117C749.119 533.48 725.532 551.035 687.258 519.725Z" fill="#EBF2FF"/>
<path d="M651.914 543.316C651.914 543.316 710.686 523.725 708.209 556.311C707.204 570.213 680.479 582.742 651.914 543.316Z" fill="#EBF2FF"/>
<path d="M610.195 565.457C610.195 565.457 670.242 551.481 664.063 584.042C661.44 597.871 633.807 607.874 610.195 565.457Z" fill="#EBF2FF"/>
<path d="M565.922 580.949C565.922 580.949 626.508 574.942 615.45 606.89C610.669 620.473 582.202 626.824 565.922 580.949Z" fill="#EBF2FF"/>
<path d="M779.452 610.816C779.452 623.664 613.998 634.06 409.878 634.06C205.783 634.06 40.3047 623.64 40.3047 610.816C40.3047 597.968 205.783 587.572 409.878 587.572C613.998 587.548 779.452 597.968 779.452 610.816Z" fill="#ACBFE2"/>
<path d="M689.447 349.028C689.447 492.072 573.497 607.997 430.454 607.997C287.411 607.997 171.461 492.047 171.461 349.028C171.461 205.985 287.411 90.0352 430.454 90.0352C573.473 90.0352 689.447 205.985 689.447 349.028Z" fill="#4C4FFA"/>
<path d="M453.539 445.29C461.066 457.525 453.466 475.89 436.572 486.261C419.679 496.633 399.867 495.112 392.365 482.853L305.886 342.016C298.359 329.757 305.935 311.417 322.853 301.045C339.747 290.674 359.558 292.194 367.061 304.429L453.539 445.29Z" fill="#F6F5F7"/>
<path d="M450.394 476.037C440.022 492.931 417.906 498.227 401.037 487.855C384.119 477.484 378.848 455.368 389.219 438.474L508.381 244.26C518.753 227.367 540.869 222.071 557.762 232.442C574.656 242.814 579.952 264.905 569.58 281.823L450.394 476.037Z" fill="#F6F5F7"/>
<path d="M240.386 313.132C243.99 311.465 255.784 310.558 261.938 319.875C270.25 332.355 273.094 362.709 291.63 371.879C310.216 381 321.788 373.203 330.198 368.986C338.608 364.793 340.006 359.13 345.229 357.217C350.378 355.329 352.413 361.581 340.496 371.585C334.759 376.366 309.504 403.411 285.402 396.643C253.798 387.719 219.128 322.842 240.386 313.132Z" fill="#E28C71"/>
<path d="M267.902 509.186C262.728 540.864 258.535 608.022 272.438 607.482C286.364 606.943 293.818 601.818 285.653 599.857C277.439 597.895 277.145 596.964 277.219 594.438C277.856 578.599 290.091 548.441 294.725 525.344C300.095 498.594 272.487 481.504 267.902 509.186Z" fill="#F27851"/>
<path d="M266.109 601.131C266.109 601.131 278.59 605.643 285.651 599.881C285.651 599.881 299.431 601.033 291.07 605.226C282.758 609.443 266.379 613.513 266.109 601.131Z" fill="#6E86CC"/>
<path d="M216.883 378.967C216.883 378.967 288.576 429.304 298.899 455.049C308.167 478.195 286.664 571.465 286.664 571.465C286.664 571.465 271.56 577.496 257.683 568.988L259.497 496.461L198.984 441.098L216.883 378.967Z" fill="#C92F3B"/>
<path d="M170.602 513.108C144.122 534.979 93.4414 586.126 105.063 595.492C116.661 604.834 126.297 605.961 121.05 598.679C115.852 591.299 116.22 590.294 118.083 588.357C129.754 576.048 160.795 560.332 180.729 545.032C203.948 527.28 193.748 494.033 170.602 513.108Z" fill="#F27851"/>
<path d="M104.429 585.932C104.429 585.932 111.319 598.338 121.053 598.681C121.053 598.681 131.326 609.274 121.666 606.773C112.005 604.296 95.9943 596.107 104.429 585.932Z" fill="#6E86CC"/>
<path d="M206.237 378.598C206.237 378.598 243.432 463.335 233.624 491.311C224.822 516.492 141.899 576.49 141.899 576.49C141.899 576.49 125.471 570.703 120.273 554.079L172.793 496.926C172.793 496.926 151.805 430.872 162.103 406.378C162.47 405.544 160.656 412.213 160.656 412.213L206.237 378.598Z" fill="#E03D51"/>
<path d="M250.973 416.113C264.703 397.994 272.476 369.895 273.015 348.073C273.775 317.817 247.05 310.02 230.058 308.426C213.066 306.783 185.286 303.498 186.439 341.208C187.199 367.517 177.637 381.247 164.298 403.51C163.93 404.099 163.587 404.589 163.219 405.129C163.17 405.129 163.146 405.055 163.146 405.055C163.17 405.104 163.17 405.129 163.219 405.129C144.413 428.201 235.379 436.66 250.973 416.113Z" fill="#FCDCDA"/>
<path d="M164.305 403.458C163.937 404.047 163.594 404.537 163.226 405.076C163.177 405.076 163.153 405.003 163.153 405.003C163.177 405.052 163.177 405.076 163.226 405.076C148.662 422.951 199.76 432.023 230.874 425.77C235.704 418.537 212.313 416.625 203.658 409.612C183.7 393.43 254.854 392.057 242.594 386.099C229.354 379.724 209.665 382.274 218.345 362.904C226.976 343.51 219.546 320.315 211.333 312.469C202.775 304.255 188.456 313.891 186.887 331.74C186.495 334.585 186.274 337.674 186.397 341.18C187.206 367.489 177.644 381.22 164.305 403.458Z" fill="#EFBEBD"/>
<path d="M232.502 286.234C232.502 286.234 236.253 300.578 225.661 305.874C214.799 311.268 248.096 337.798 248.635 329.927C249.322 319.776 245.301 312.935 252.313 302.441L232.502 286.234Z" fill="#E67052"/>
<path d="M258.091 265.172C265.079 274.71 267.653 311.415 257.356 317.52C252.844 320.119 237.642 313.401 230.434 296.115C227.442 289.029 224.549 276.23 233.155 265.515C237.054 260.612 249.975 254.065 258.091 265.172Z" fill="#EE9D7F"/>
<path d="M227.837 264.976C218.74 276.402 222.737 287.411 223.374 289.446C225.728 296.851 231.76 303.741 233.599 301.607C235.781 299.058 227.518 296.385 231.318 289.054C235.119 281.723 230.289 279.124 232.814 272.553C235.266 266.006 240.096 268.262 255.42 268.728C261.697 268.924 263.267 266.791 263.046 264.192C255.224 253.06 237.375 252.962 227.837 264.976Z" fill="#062440"/>
<path d="M264.244 273.118C267.971 264.266 281.285 266.375 277.043 260.123C274.199 255.93 274.174 259.093 242.496 252.62C227.711 249.604 224.793 255.93 221.973 264.266C219.35 271.965 220.184 290.894 230.31 302.025C240.412 313.133 229.991 294.621 233.865 286.235C237.739 277.874 240.289 281.405 245.879 282.803C251.421 284.151 258.212 287.388 264.244 273.118Z" fill="#353A66"/>
<path d="M159.852 428.567L186.7 467.038L402.711 316.222L430.467 268.238L375.839 277.752L159.852 428.567Z" fill="#494C7F"/>
<path d="M390.752 299.087L174.719 449.889L186.69 467.039L402.724 316.237L390.752 299.087Z" fill="#373C66"/>
<path d="M430.471 268.238L422.969 281.233L415.711 270.813L430.471 268.238Z" fill="#1F1440"/>
<path d="M205.129 310.142C209.15 310.461 216.162 316.541 217.07 327.82C218.345 342.924 209.788 370.09 221.704 387.254C233.669 404.466 247.743 403.24 257.256 403.632C266.819 404.049 270.815 399.734 276.332 400.543C281.849 401.377 280.574 407.948 265.102 410.964C257.722 412.41 222.072 423.934 204.05 406.109C180.438 382.767 181.591 308.278 205.129 310.142Z" fill="#E28C71"/>
</g>
<defs>
<clipPath id="clip0_1525_4358">
<rect width="832" height="634.059" fill="white"/>
</clipPath>
</defs>
</svg>
