<svg width="44" height="61" viewBox="0 0 44 61" fill="none" xmlns="http://www.w3.org/2000/svg">
<path d="M25.1188 60.1839C21.3538 60.1839 18.4598 59.5377 16.4368 58.2452C14.4138 56.9527 12.9246 55.5198 11.9693 53.9464H10.4521V59.0038H0V0H10.6207V22H12.1379C12.7561 20.9885 13.5709 20.0332 14.5824 19.1341C15.6501 18.235 17.0268 17.5045 18.7126 16.9425C20.4547 16.3244 22.59 16.0153 25.1188 16.0153C28.4904 16.0153 31.6092 16.8582 34.4751 18.5441C37.341 20.1737 39.645 22.59 41.387 25.7931C43.129 28.9962 44 32.8736 44 37.4253V38.7739C44 43.3257 43.129 47.2031 41.387 50.4061C39.645 53.6092 37.341 56.0536 34.4751 57.7395C31.6092 59.3691 28.4904 60.1839 25.1188 60.1839ZM21.9157 50.9119C25.175 50.9119 27.9004 49.8723 30.092 47.7931C32.2835 45.6577 33.3793 42.5671 33.3793 38.5211V37.6782C33.3793 33.6322 32.2835 30.5696 30.092 28.4904C27.9566 26.355 25.2312 25.2874 21.9157 25.2874C18.6565 25.2874 15.931 26.355 13.7395 28.4904C11.5479 30.5696 10.4521 33.6322 10.4521 37.6782V38.5211C10.4521 42.5671 11.5479 45.6577 13.7395 47.7931C15.931 49.8723 18.6565 50.9119 21.9157 50.9119Z" fill="#3E3AEE"/>
<path d="M6.69141 49.1687V29.5008C10.4377 27.1594 18.7731 22.1956 22.1448 21.0717C26.3594 19.6668 37.5982 29.5008 37.5982 33.7154C37.5982 37.9299 29.1691 54.7882 26.3594 54.7882C24.1116 54.7882 12.3108 51.0419 6.69141 49.1687Z" fill="#3E3AEE"/>
</svg>
