<svg width="52" height="68" viewBox="0 0 52 68" fill="none" xmlns="http://www.w3.org/2000/svg">
<path fill-rule="evenodd" clip-rule="evenodd" d="M9.01541 6.6828C7.44399 6.6828 6.1701 7.95668 6.1701 9.5281V55.053C6.1701 56.6244 7.44399 57.8983 9.01541 57.8983H43.1591C44.7305 57.8983 46.0044 56.6244 46.0044 55.053V9.5281C46.0044 7.95668 44.7305 6.6828 43.1591 6.6828H9.01541ZM0.479492 9.5281C0.479492 4.81385 4.30115 0.992188 9.01541 0.992188H43.1591C47.8733 0.992188 51.695 4.81385 51.695 9.5281V55.053C51.695 59.7672 47.8733 63.5889 43.1591 63.5889H9.01541C4.30115 63.5889 0.479492 59.7672 0.479492 55.053V9.5281Z" fill="#B4B4B4"/>
<path fill-rule="evenodd" clip-rule="evenodd" d="M20.3965 64.5172C20.3965 62.9458 21.6704 61.6719 23.2418 61.6719H28.9324C30.5038 61.6719 31.7777 62.9458 31.7777 64.5172C31.7777 66.0886 30.5038 67.3625 28.9324 67.3625H23.2418C21.6704 67.3625 20.3965 66.0886 20.3965 64.5172Z" fill="#B4B4B4"/>
</svg>
