<svg width="70" height="71" viewBox="0 0 70 71" fill="none" xmlns="http://www.w3.org/2000/svg">
<circle cx="34.8917" cy="35.3844" r="34.8214" fill="#E9EFF7"/>
<path d="M33.5946 51.5821C31.4028 51.5821 29.3552 51.2216 27.4517 50.5006C25.5772 49.7508 23.991 48.6981 22.6932 47.3427L28.1006 42.0217C28.5909 42.7139 29.3407 43.2907 30.3501 43.7521C31.3595 44.1847 32.3977 44.401 33.4648 44.401C34.33 44.401 35.0943 44.2568 35.7576 43.9684C36.4497 43.68 36.9833 43.2618 37.3582 42.7139C37.7619 42.1659 37.9638 41.5026 37.9638 40.7239C37.9638 39.9453 37.7619 39.282 37.3582 38.734C36.9544 38.186 36.3776 37.7679 35.6278 37.4795C34.878 37.1911 33.9839 37.0469 32.9457 37.0469C32.3689 37.0469 31.7489 37.0901 31.0855 37.1767C30.4511 37.2343 29.9608 37.3353 29.6147 37.4795L33.3783 32.8074C34.3877 32.5767 35.2817 32.3893 36.0604 32.2451C36.8679 32.072 37.5745 31.9855 38.1801 31.9855C39.7375 31.9855 41.1362 32.346 42.3763 33.067C43.6164 33.788 44.597 34.8262 45.3179 36.1817C46.0389 37.5083 46.3994 39.0945 46.3994 40.9402C46.3994 43.0455 45.8659 44.9057 44.7988 46.5207C43.7606 48.1069 42.2754 49.347 40.3431 50.2411C38.4397 51.1351 36.1902 51.5821 33.5946 51.5821ZM29.6147 37.4795V32.8507L36.4065 24.8477L45.6208 24.8909L38.6127 32.8074L29.6147 37.4795ZM24.9859 27.3567V20.2622H45.6208V24.8909L39.2616 27.3567H24.9859Z" fill="#1A0F91"/>
</svg>
