<svg width="272" height="65" viewBox="0 0 272 65" fill="none" xmlns="http://www.w3.org/2000/svg">
<path d="M18.4719 50.5948C16.2298 50.5948 14.5064 50.21 13.3017 49.4403C12.0971 48.6707 11.2103 47.8174 10.6414 46.8804H9.73788V49.8921H3.51367V14.7554H9.83827V27.8564H10.7418C11.1099 27.254 11.5951 26.6851 12.1975 26.1497C12.8333 25.6143 13.6531 25.1793 14.657 24.8446C15.6944 24.4765 16.966 24.2925 18.4719 24.2925C20.4797 24.2925 22.3369 24.7945 24.0435 25.7984C25.7502 26.7688 27.1222 28.2077 28.1595 30.1152C29.1969 32.0226 29.7156 34.3316 29.7156 37.0421V37.8452C29.7156 40.5558 29.1969 42.8648 28.1595 44.7722C27.1222 46.6796 25.7502 48.1353 24.0435 49.1392C22.3369 50.1096 20.4797 50.5948 18.4719 50.5948ZM16.5644 45.0733C18.5053 45.0733 20.1283 44.4543 21.4334 43.2161C22.7385 41.9445 23.391 40.104 23.391 37.6946V37.1927C23.391 34.7833 22.7385 32.9596 21.4334 31.7214C20.1618 30.4498 18.5388 29.814 16.5644 29.814C14.6236 29.814 13.0006 30.4498 11.6955 31.7214C10.3904 32.9596 9.73788 34.7833 9.73788 37.1927V37.6946C9.73788 40.104 10.3904 41.9445 11.6955 43.2161C13.0006 44.4543 14.6236 45.0733 16.5644 45.0733Z" fill="#3E3AEE"/>
<path d="M35.523 49.8921V24.9952H41.7472V27.8062H42.6507C43.0188 26.8023 43.6211 26.0661 44.4577 25.5976C45.3278 25.1291 46.3317 24.8948 47.4694 24.8948H50.4811V30.5167H47.369C45.7628 30.5167 44.441 30.9517 43.4036 31.8218C42.3662 32.6584 41.8476 33.9635 41.8476 35.737V49.8921H35.523ZM65.8864 50.5948C63.4101 50.5948 61.2182 50.0761 59.3108 49.0388C57.4369 47.9679 55.9645 46.4788 54.8936 44.5714C53.8563 42.6305 53.3376 40.355 53.3376 37.7448V37.1425C53.3376 34.5323 53.8563 32.2735 54.8936 30.3661C55.931 28.4252 57.3867 26.9361 59.2606 25.8987C61.1346 24.8279 63.3097 24.2925 65.786 24.2925C68.2288 24.2925 70.3538 24.8446 72.1608 25.9489C73.9678 27.0198 75.3733 28.5256 76.3772 30.4665C77.3811 32.3739 77.8831 34.5993 77.8831 37.1425V39.3009H59.7626C59.8295 41.0075 60.4653 42.3963 61.67 43.4671C62.8747 44.5379 64.3471 45.0733 66.0872 45.0733C67.8607 45.0733 69.1658 44.6885 70.0024 43.9189C70.839 43.1492 71.4748 42.2959 71.9098 41.3589L77.0799 44.0694C76.6114 44.9395 75.9254 45.8932 75.0219 46.9306C74.1519 47.9345 72.9807 48.8045 71.5083 49.5407C70.0359 50.2435 68.1619 50.5948 65.8864 50.5948ZM59.8128 34.5825H71.4581C71.3242 33.1436 70.7386 31.9891 69.7012 31.1191C68.6973 30.249 67.3755 29.814 65.7358 29.814C64.0292 29.814 62.6739 30.249 61.67 31.1191C60.6661 31.9891 60.047 33.1436 59.8128 34.5825ZM91.2425 50.5948C89.4689 50.5948 87.8794 50.2937 86.4739 49.6913C85.0684 49.0555 83.9474 48.152 83.1108 46.9808C82.3077 45.7761 81.9061 44.3204 81.9061 42.6138C81.9061 40.9071 82.3077 39.4849 83.1108 38.3472C83.9474 37.176 85.0852 36.3059 86.5241 35.737C87.9965 35.1347 89.6697 34.8335 91.5436 34.8335H98.3702V33.428C98.3702 32.2568 98.0021 31.3031 97.2659 30.5669C96.5297 29.7972 95.3585 29.4124 93.7522 29.4124C92.1794 29.4124 91.0082 29.7805 90.2385 30.5167C89.4689 31.2194 88.9669 32.1397 88.7327 33.2775L82.91 31.3198C83.3116 30.0482 83.9474 28.8937 84.8175 27.8564C85.721 26.7855 86.9089 25.9322 88.3813 25.2964C89.8872 24.6271 91.7109 24.2925 93.8526 24.2925C97.132 24.2925 99.7255 25.1124 101.633 26.7521C103.54 28.3918 104.494 30.7677 104.494 33.8798V43.1659C104.494 44.1698 104.962 44.6718 105.899 44.6718H107.907V49.8921H103.691C102.453 49.8921 101.432 49.5909 100.629 48.9886C99.8258 48.3862 99.4243 47.5831 99.4243 46.5792V46.529H98.4706C98.3367 46.9306 98.0355 47.466 97.5671 48.1353C97.0986 48.7711 96.3624 49.3399 95.3585 49.8419C94.3546 50.3438 92.9826 50.5948 91.2425 50.5948ZM92.3467 45.4749C94.1203 45.4749 95.5592 44.9897 96.6635 44.0192C97.8013 43.0153 98.3702 41.6935 98.3702 40.0538V39.5519H91.9954C90.8242 39.5519 89.9039 39.8028 89.2346 40.3048C88.5654 40.8067 88.2307 41.5095 88.2307 42.413C88.2307 43.3165 88.5821 44.0527 89.2848 44.6216C89.9876 45.1905 91.0082 45.4749 92.3467 45.4749ZM112.532 49.8921V14.7554H118.856V34.181H119.76L127.992 24.9952H136.224L124.729 37.0421L136.625 49.8921H128.494L119.76 40.0036H118.856V49.8921H112.532ZM140.864 59.9311V24.9952H147.089V28.007H147.992C148.561 27.0365 149.448 26.1832 150.652 25.447C151.857 24.6773 153.581 24.2925 155.823 24.2925C157.83 24.2925 159.688 24.7945 161.394 25.7984C163.101 26.7688 164.473 28.2077 165.51 30.1152C166.548 32.0226 167.066 34.3316 167.066 37.0421V37.8452C167.066 40.5558 166.548 42.8648 165.51 44.7722C164.473 46.6796 163.101 48.1353 161.394 49.1392C159.688 50.1096 157.83 50.5948 155.823 50.5948C154.317 50.5948 153.045 50.4108 152.008 50.0427C151.004 49.708 150.184 49.273 149.548 48.7376C148.946 48.1687 148.461 47.5998 148.093 47.031H147.189V59.9311H140.864ZM153.915 45.0733C155.89 45.0733 157.513 44.4543 158.784 43.2161C160.089 41.9445 160.742 40.104 160.742 37.6946V37.1927C160.742 34.7833 160.089 32.9596 158.784 31.7214C157.479 30.4498 155.856 29.814 153.915 29.814C151.974 29.814 150.351 30.4498 149.046 31.7214C147.741 32.9596 147.089 34.7833 147.089 37.1927V37.6946C147.089 40.104 147.741 41.9445 149.046 43.2161C150.351 44.4543 151.974 45.0733 153.915 45.0733ZM184.72 50.5948C182.243 50.5948 180.018 50.0929 178.044 49.089C176.069 48.0851 174.513 46.6294 173.376 44.722C172.238 42.8146 171.669 40.5223 171.669 37.8452V37.0421C171.669 34.365 172.238 32.0728 173.376 30.1653C174.513 28.2579 176.069 26.8023 178.044 25.7984C180.018 24.7945 182.243 24.2925 184.72 24.2925C187.196 24.2925 189.421 24.7945 191.396 25.7984C193.37 26.8023 194.926 28.2579 196.064 30.1653C197.202 32.0728 197.771 34.365 197.771 37.0421V37.8452C197.771 40.5223 197.202 42.8146 196.064 44.722C194.926 46.6294 193.37 48.0851 191.396 49.089C189.421 50.0929 187.196 50.5948 184.72 50.5948ZM184.72 44.973C186.661 44.973 188.267 44.3539 189.539 43.1157C190.81 41.8441 191.446 40.0371 191.446 37.6946V37.1927C191.446 34.8502 190.81 33.0599 189.539 31.8218C188.3 30.5502 186.694 29.9144 184.72 29.9144C182.779 29.9144 181.173 30.5502 179.901 31.8218C178.629 33.0599 177.994 34.8502 177.994 37.1927V37.6946C177.994 40.0371 178.629 41.8441 179.901 43.1157C181.173 44.3539 182.779 44.973 184.72 44.973ZM203.608 49.8921V24.9952H209.933V49.8921H203.608ZM206.771 22.0839C205.633 22.0839 204.663 21.7158 203.859 20.9796C203.09 20.2434 202.705 19.273 202.705 18.0683C202.705 16.8636 203.09 15.8932 203.859 15.157C204.663 14.4208 205.633 14.0527 206.771 14.0527C207.942 14.0527 208.912 14.4208 209.682 15.157C210.452 15.8932 210.837 16.8636 210.837 18.0683C210.837 19.273 210.452 20.2434 209.682 20.9796C208.912 21.7158 207.942 22.0839 206.771 22.0839ZM216.942 49.8921V24.9952H223.166V28.2579H224.069C224.471 27.3879 225.224 26.568 226.328 25.7984C227.432 24.9952 229.106 24.5937 231.348 24.5937C233.289 24.5937 234.978 25.0454 236.417 25.9489C237.89 26.819 239.028 28.0404 239.831 29.6132C240.634 31.1525 241.035 32.9596 241.035 35.0343V49.8921H234.711V35.5362C234.711 33.6623 234.242 32.2568 233.305 31.3198C232.402 30.3829 231.097 29.9144 229.39 29.9144C227.449 29.9144 225.943 30.5669 224.872 31.872C223.802 33.1436 223.266 34.9339 223.266 37.2429V49.8921H216.942ZM256.723 49.8921C255.084 49.8921 253.745 49.3901 252.708 48.3862C251.704 47.3489 251.202 45.9769 251.202 44.2702V30.2155H244.978V24.9952H251.202V17.2652H257.526V24.9952H264.353V30.2155H257.526V43.1659C257.526 44.1698 257.995 44.6718 258.932 44.6718H263.751V49.8921H256.723Z" fill="#4F5665"/>
<path d="M7.53125 43.5584V31.8462C9.76215 30.4519 14.7259 27.4959 16.7337 26.8267C19.2435 25.9901 25.9362 31.8462 25.9362 34.356C25.9362 36.8657 20.9167 46.9048 19.2435 46.9048C17.9049 46.9048 10.8776 44.6739 7.53125 43.5584Z" fill="#3E3AEE"/>
</svg>
