<svg width="63" height="48" viewBox="0 0 63 48" fill="none" xmlns="http://www.w3.org/2000/svg">
<path fill-rule="evenodd" clip-rule="evenodd" d="M8.71658 6.64373C7.96196 6.64373 7.23824 6.94351 6.70464 7.4771C6.17105 8.0107 5.87127 8.73442 5.87127 9.48904V35.0968C5.87127 35.8514 6.17105 36.5751 6.70464 37.1087C7.23824 37.6423 7.96196 37.9421 8.71658 37.9421H54.2415C54.9961 37.9421 55.7198 37.6423 56.2534 37.1087C56.787 36.5751 57.0868 35.8514 57.0868 35.0968V9.48904C57.0868 8.73442 56.787 8.0107 56.2534 7.4771C55.7198 6.94351 54.9961 6.64373 54.2415 6.64373H8.71658ZM2.68078 3.45324C4.28157 1.85244 6.45271 0.953125 8.71658 0.953125H54.2415C56.5053 0.953125 58.6765 1.85244 60.2773 3.45324C61.8781 5.05403 62.7774 7.22517 62.7774 9.48904V35.0968C62.7774 37.3606 61.8781 39.5318 60.2773 41.1326C58.6765 42.7334 56.5053 43.6327 54.2415 43.6327H8.71658C6.45271 43.6327 4.28157 42.7334 2.68078 41.1326C1.07998 39.5318 0.180664 37.3606 0.180664 35.0968V9.48904C0.180664 7.22517 1.07998 5.05403 2.68078 3.45324Z" fill="#B4B4B4"/>
<path fill-rule="evenodd" clip-rule="evenodd" d="M17.2529 44.5562C17.2529 42.9848 18.5268 41.7109 20.0982 41.7109H42.8607C44.4321 41.7109 45.706 42.9848 45.706 44.5562C45.706 46.1277 44.4321 47.4015 42.8607 47.4015H20.0982C18.5268 47.4015 17.2529 46.1277 17.2529 44.5562Z" fill="#B4B4B4"/>
</svg>
