<svg width="41" height="64" viewBox="0 0 41 64" fill="none" xmlns="http://www.w3.org/2000/svg">
<path fill-rule="evenodd" clip-rule="evenodd" d="M9.46462 6.56952C7.89321 6.56952 6.61932 7.8434 6.61932 9.41482V54.9397C6.61932 56.5111 7.89321 57.785 9.46462 57.785H32.2271C33.7985 57.785 35.0724 56.5111 35.0724 54.9397V9.41482C35.0724 7.8434 33.7985 6.56952 32.2271 6.56952H9.46462ZM0.928711 9.41482C0.928711 4.70057 4.75037 0.878906 9.46462 0.878906H32.2271C36.9413 0.878906 40.763 4.70057 40.763 9.41482V54.9397C40.763 59.654 36.9413 63.4756 32.2271 63.4756H9.46462C4.75037 63.4756 0.928711 59.654 0.928711 54.9397V9.41482Z" fill="white"/>
<path fill-rule="evenodd" clip-rule="evenodd" d="M17.8564 48.7008C17.8564 47.1294 19.1303 45.8555 20.7018 45.8555H20.9897C22.5611 45.8555 23.835 47.1294 23.835 48.7008C23.835 50.2722 22.5611 51.5461 20.9897 51.5461H20.7018C19.1303 51.5461 17.8564 50.2722 17.8564 48.7008Z" fill="white"/>
</svg>
