<svg width="934" height="808" viewBox="0 0 934 808" fill="none" xmlns="http://www.w3.org/2000/svg">
<g filter="url(#filter0_d_1587_2730)">
<rect x="49" y="23" width="1540" height="709.441" rx="283" fill="white"/>
<rect x="49.5" y="23.5" width="1539" height="708.441" rx="282.5" stroke="url(#paint0_linear_1587_2730)" stroke-opacity="0.27"/>
</g>
<g clip-path="url(#clip0_1587_2730)">
<path d="M708.107 254.22L696.09 262.845L684.008 254.314C686.686 250.547 691.106 248.055 696.09 248.055C701.041 248.055 705.432 250.486 708.107 254.22Z" fill="white"/>
<path d="M696.081 227.04C683.999 227.04 673.321 233.05 666.844 242.235L674.473 247.589C679.267 240.802 687.176 236.379 696.081 236.379C704.924 236.379 712.77 240.738 717.563 247.431L725.161 241.981C718.654 232.925 708.037 227.04 696.081 227.04Z" fill="white"/>
<path d="M696.091 187.092C670.53 187.092 647.925 199.795 634.227 219.224L641.856 224.578C653.874 207.577 673.707 196.431 696.094 196.431C718.294 196.431 738.003 207.39 750.052 224.172L757.618 218.722C743.884 199.58 721.436 187.092 696.091 187.092Z" fill="white"/>
<path d="M696.089 208.951C677.906 208.951 661.778 217.949 651.969 231.743L659.595 237.097C667.721 225.733 681.048 218.29 696.086 218.29C711 218.29 724.232 225.607 732.389 236.817L739.955 231.399C730.119 217.794 714.116 208.951 696.089 208.951Z" fill="white"/>
<path d="M446.79 306.553L435.773 306.299C439.312 310.889 440.109 315.113 437.903 318.69C435.7 322.34 430.425 325.337 422.551 327.612C428.511 311.752 431.511 295.026 431.511 277.867C431.511 240.756 417.071 204.432 389.821 177.257C363.443 150.882 327.787 135.57 289.211 135.57C267.547 135.57 246.617 140.373 227.579 149.552C227.573 149.554 227.568 149.557 227.562 149.56C221.441 147.693 215.48 146.161 209.729 144.997C180.696 139.107 160.092 143.177 151.722 156.463C143.757 169.099 148.092 188.119 163.897 210.305C163.894 210.308 163.894 210.31 163.891 210.316C160.361 216.84 156.962 224.58 154.461 231.991C124.766 233.759 108.871 238.985 103.091 248.449C96.3721 259.469 105.548 274.255 134.919 288.633C138.966 290.62 143.302 292.572 147.853 294.521C151.372 325.436 165.455 355.403 188.565 378.513C201.642 391.555 216.851 401.813 233.794 409.002C285.698 430.895 347.571 420.646 389.821 378.513C402.536 365.798 412.616 350.985 419.732 334.586C434.218 331.586 443.756 326.892 447.549 320.677C450.186 316.377 449.862 311.609 446.79 306.553ZM412.797 329.853C403.152 331.586 391.122 332.599 377.068 332.745C355.262 333.01 330.217 331.289 303.825 327.811C306.045 322.976 308.222 318.008 310.346 312.928C318.535 315.668 326.483 317.839 334.063 319.376C342.746 321.138 350.673 322.008 357.745 322.008C374.326 322.008 386.203 317.22 392.071 307.907C393.036 306.372 393.824 304.747 394.431 303.029H385.979C385.839 303.286 385.69 303.539 385.535 303.787C381.176 310.705 371.44 314.279 357.765 314.276C351.227 314.276 343.781 313.459 335.598 311.799C328.467 310.352 320.986 308.321 313.275 305.76C315.311 300.668 317.29 295.478 319.201 290.212C324.353 276.006 328.764 261.926 332.33 248.403C361.243 252.665 391.452 252.794 420.47 250.605C422.306 259.507 423.233 268.619 423.233 277.87C423.236 295.895 419.732 313.38 412.797 329.853ZM236.708 400.398C232.598 398.907 230.512 393.007 229.485 388.319C227.862 380.911 227.568 370.507 228.635 358.233C229.175 352.024 230.042 345.424 231.212 338.518C248.061 343.009 264.747 348.783 280.995 355.744C277.336 362.055 273.634 367.904 269.934 373.209C262.885 383.315 255.991 391.111 249.995 395.756C246.202 398.7 240.819 401.889 236.708 400.398ZM284.715 349.141C267.708 341.812 250.223 335.755 232.565 331.081C233.187 327.878 233.87 324.616 234.611 321.305C239.521 322.422 244.501 323.502 249.543 324.543C264.3 327.56 279.019 330.125 293.429 332.196C290.579 338.101 287.664 343.761 284.715 349.141ZM252.796 319.195C247.095 318.022 241.476 316.797 235.953 315.525C238.552 304.706 241.747 293.43 245.473 281.94C264.852 293.853 284.563 303.545 303.221 310.422C300.881 316.012 298.474 321.462 296.02 326.734C281.85 324.701 267.346 322.18 252.796 319.195ZM205.464 173.181C216.236 195.25 236.997 213.435 259.337 225.497C253.925 237.289 248.77 249.876 244.029 262.947C243.145 265.383 242.287 267.816 241.447 270.244C213.134 251.816 189.166 230.669 173.44 210.203C173.437 210.2 173.437 210.197 173.435 210.194C181.732 196.038 192.545 183.539 205.464 173.181ZM326.524 152.761C330.635 154.252 332.721 160.151 333.748 164.84C335.37 172.248 335.665 182.652 334.597 194.926C333.427 208.362 330.737 223.623 326.734 239.874C307.046 236.487 287.37 230.903 269.254 222.109C276.974 206.007 285.138 191.65 293.301 179.947C300.35 169.84 307.244 162.045 313.24 157.4C316.368 154.975 320.575 152.382 324.26 152.382C325.042 152.382 325.8 152.498 326.524 152.761ZM324.858 247.195C321.383 260.271 317.103 273.891 312.114 287.641C310.191 292.943 308.201 298.159 306.153 303.274C287.419 296.394 267.533 286.556 247.985 274.404C248.994 271.452 250.039 268.487 251.116 265.517C255.749 252.741 260.779 240.446 266.051 228.931C284.502 237.873 304.49 243.647 324.858 247.195ZM383.968 183.075C401.351 200.458 412.885 221.339 418.717 243.171C387.82 245.43 359.507 244.721 334.2 241.059C338.217 224.65 340.919 209.213 342.107 195.58C343.417 180.522 343.256 162.689 337.153 152.653C354.836 159.445 370.632 169.7 383.968 183.075ZM289.211 143.807C298.497 143.807 307.629 144.74 316.557 146.596C306.028 151.18 295.276 163.938 287.116 175.635C278.763 187.609 270.424 202.261 262.547 218.661C241.286 207.11 221.207 189.4 211.608 168.539C234.018 152.597 260.971 143.807 289.211 143.807ZM158.257 160.58C162.616 153.662 172.352 150.091 186.027 150.091C192.568 150.091 200.011 150.908 208.195 152.568C211.302 153.199 214.473 153.937 217.7 154.789C217.703 154.789 217.706 154.789 217.709 154.792C198.187 166.083 180.991 182.421 168.189 202.906C168.186 202.909 168.183 202.911 168.183 202.917C156.101 184.977 152.469 169.765 158.257 160.58ZM169.417 217.61C169.417 217.607 169.42 217.604 169.42 217.604C185.977 238.299 210.38 259.454 238.897 277.803C234.853 290.11 231.404 302.203 228.621 313.792C204.98 308.073 177.502 299.983 155.801 290.801C154 272.805 155.961 254.591 161.364 237.406C163.459 230.745 166.243 223.877 169.417 217.61ZM141.493 284.371C115.879 271.872 104.174 259.805 109.414 251.244C113.641 244.309 129.029 239.612 152.585 237.879C147.838 253.905 146.184 270.568 147.167 287.046C145.213 286.177 143.334 285.275 141.493 284.371ZM227.273 319.595C226.544 322.854 225.87 326.066 225.251 329.226C223.608 328.826 221.963 328.438 220.317 328.062C192.513 321.733 171.649 320.447 161.977 320.228C159.582 313.013 157.82 305.631 156.705 298.098C175.643 305.386 196.968 312.374 227.273 319.595ZM164.775 327.878C175.089 328.292 194.214 329.856 218.643 335.414C220.39 335.811 222.138 336.228 223.883 336.654C222.625 343.986 221.697 350.994 221.126 357.579C220.04 370.058 219.964 384.444 223.445 394.72C212.851 388.757 203.136 381.378 194.418 372.66C181.42 359.665 171.421 344.45 164.775 327.878ZM248.563 405.658C258.48 400.462 268.443 388.523 276.116 377.524C280.073 371.852 284.029 365.573 287.933 358.796C310.445 368.99 332.091 381.515 352.423 396.106C318.906 414.017 281.164 416.045 248.563 405.658ZM383.968 372.663C376.558 380.094 368.4 386.551 359.586 391.989C338.226 376.38 315.408 363.017 291.632 352.202C294.9 346.212 298.121 339.887 301.266 333.284C323.028 336.17 343.951 337.9 363.049 338.346C368.035 338.489 372.876 338.489 377.573 338.454C389.748 338.311 400.584 337.588 409.871 336.286C403.367 349.76 394.661 361.97 383.968 372.663Z" fill="#ADCBF9"/>
<path d="M380.92 328.759L361.241 562.744C361.241 562.744 359.178 576.927 369.728 576.953C387.076 576.994 456.069 576.953 456.069 576.953C456.069 576.953 443.013 574.001 443.17 567.357C443.357 559.526 466.17 326.545 466.17 326.545L380.92 328.759Z" fill="#4446B2"/>
<path d="M461.67 572.708C458.26 572.717 392.36 572.924 375.467 572.708C368.106 572.618 366.814 566.161 366.752 561.986C366.723 559.984 366.977 558.502 366.977 558.502L367.488 552.422L368.792 536.921L369.944 523.226L371.423 505.627L372.669 490.773L386.65 324.511L471.905 322.299C471.905 322.299 462.298 419.8 455.5 490.773C454.741 498.68 454.021 506.263 453.352 513.341C453.137 515.602 452.929 517.811 452.725 519.961C452.095 526.677 451.52 532.842 451.018 538.286C450.753 541.157 450.511 543.821 450.289 546.266C449.422 555.836 448.915 561.948 448.906 563.112C448.903 563.789 448.961 564.419 449.072 565.006C450.476 572.466 460.39 572.708 461.67 572.708Z" fill="#3E3AEE"/>
<path d="M173.883 201.435L221.816 393.976L228.378 420.345L250.703 510.023H665.472L583.184 201.435H173.883Z" fill="#3E3AEE"/>
<path d="M173.878 201.435L167.234 203.65L241.869 516.722L250.701 510.023L173.878 201.435Z" fill="#4446B2"/>
<path d="M241.867 516.722H654.083L665.464 510.023H250.699L241.867 516.722Z" fill="#4446B2"/>
<path d="M386.626 577.044H475.875V572.802H386.626V577.044Z" fill="#4C4FFA"/>
<path d="M645.379 453.162L578.076 205.514H173.219V201.435H583.185L650.26 452.611L645.379 453.162Z" fill="#4446B2"/>
<path d="M453.194 516.719L452.733 519.964L368.797 536.921L369.949 523.226L370.498 516.719H453.194Z" fill="#4446B2"/>
<path opacity="0.4" d="M461.668 572.708C458.257 572.717 392.358 572.924 375.465 572.708C368.104 572.618 366.811 566.161 366.75 561.986L450.29 546.269C449.423 555.839 448.915 561.951 448.907 563.115C448.904 563.792 448.962 564.422 449.073 565.009C450.473 572.466 460.387 572.708 461.668 572.708Z" fill="#4446B2"/>
<path opacity="0.4" d="M427.769 453.136L245.568 515.605L223.242 425.927L427.769 453.136Z" fill="#4446B3"/>
<path d="M173.875 201.435H583.179L649.589 449.442H233.511L173.875 201.435Z" fill="#699DEE"/>
<path d="M469.085 480.795C467.903 474.712 462.012 469.781 455.932 469.781C449.849 469.781 445.878 474.712 447.06 480.795C448.241 486.878 454.132 491.809 460.212 491.809C466.295 491.809 470.266 486.878 469.085 480.795Z" fill="#4446B2"/>
<path d="M630.29 438.697H247.058L203.656 265.803L200.333 252.546L197.491 241.237L195.221 232.184L190.836 214.719H568.542L568.808 215.679L573.353 232.184L575.851 241.237L578.97 252.546L582.625 265.803L630.29 438.697Z" fill="#E9F3FE"/>
<path d="M630.29 439.286H247.058L203.656 266.395L200.333 253.138L197.491 241.829L195.221 232.773L190.836 215.311H568.542L568.808 216.271L573.353 232.773L575.851 241.829L578.97 253.138L582.625 266.395L630.29 439.286Z" fill="#E9F3FE"/>
<path d="M573.353 232.184H195.221L190.836 214.719H568.399L568.808 215.679L573.353 232.184Z" fill="#AFCDFB"/>
<path d="M201.344 223.451C200.889 221.622 202.001 220.137 203.833 220.137C205.665 220.137 207.518 221.622 207.973 223.451C208.428 225.281 207.316 226.766 205.484 226.766C203.652 226.766 201.799 225.281 201.344 223.451Z" fill="#E9F3FE"/>
<path d="M218.488 225.946C219.558 224.734 219.165 222.639 217.611 221.267C216.056 219.894 213.929 219.763 212.859 220.974C211.789 222.185 212.182 224.28 213.736 225.653C215.291 227.026 217.418 227.157 218.488 225.946Z" fill="#E9F3FE"/>
<path d="M224.219 223.451C223.764 221.622 224.876 220.137 226.708 220.137C228.54 220.137 230.393 221.622 230.848 223.451C231.303 225.281 230.191 226.766 228.359 226.766C226.527 226.766 224.677 225.281 224.219 223.451Z" fill="#E9F3FE"/>
<path d="M366.439 439.286H328.545C328.18 436.325 327.862 433.194 327.573 429.93C327.066 424.071 326.675 417.772 326.389 411.216C326.319 409.705 326.26 408.179 326.205 406.644C326.132 404.689 326.071 402.711 326.012 400.724C325.919 397.349 325.846 393.935 325.793 390.501C325.791 390.498 325.791 390.492 325.791 390.49C325.723 386.11 325.691 381.702 325.683 377.311C325.683 377.308 325.683 377.308 325.683 377.308C325.68 376.211 325.68 375.117 325.68 374.023V374.02C325.68 372.99 325.683 371.966 325.686 370.942C325.718 361.489 325.861 352.217 326.062 343.595C326.497 324.52 327.206 308.625 327.582 300.984V300.981C327.734 297.844 327.833 296.099 327.833 296.099C327.836 296.099 327.839 296.102 327.842 296.102C327.926 296.114 328.501 296.222 329.405 296.438C330.068 296.598 330.911 296.82 331.868 297.115H331.871C332.734 297.374 333.691 297.698 334.695 298.078C334.698 298.078 334.701 298.078 334.704 298.081C336.411 298.737 338.252 299.577 339.982 300.631C340.008 300.645 340.034 300.657 340.061 300.671C342.891 302.428 345.446 304.756 346.611 307.831C347.611 310.442 349.951 324.479 352.781 343.122C352.86 343.653 352.939 344.19 353.023 344.73C354.52 354.629 356.136 365.737 357.762 377.08C359.483 389.101 361.201 401.375 362.783 412.751C364.137 422.507 365.388 431.596 366.439 439.286Z" fill="#2B478B"/>
<path d="M355.828 439.286H311.719C310.873 435.648 310.083 432.138 309.379 428.844C307.442 419.771 306.167 412.334 306.237 408.339C306.269 406.466 306.978 405.002 308.192 403.876C309.023 403.102 310.094 402.49 311.352 402.011C315.072 400.599 320.42 400.366 326.016 400.725C327.918 400.844 329.846 401.028 331.749 401.258C342.232 402.531 351.965 405.124 351.965 405.124C351.965 405.124 352.615 407.756 353.385 412.357C353.963 415.809 354.608 420.372 355.086 425.76C355.364 428.891 355.588 432.302 355.714 435.937C355.746 437.028 355.784 438.149 355.828 439.286Z" fill="#233862"/>
<path d="M335.457 408.395L335.016 411.581L332.88 427.053L332.516 429.693L331.191 439.286H285.227C284.871 432.946 284.542 426.77 284.478 421.384C284.472 420.786 284.469 420.202 284.469 419.628C284.469 411.517 285.181 405.503 287.506 403.986C290.141 402.265 298.882 402.738 308.189 403.878C309.117 403.989 310.05 404.112 310.987 404.237C316.411 404.967 321.84 405.868 326.205 406.644C328.469 407.047 330.447 407.417 331.988 407.712C334.158 408.126 335.457 408.395 335.457 408.395Z" fill="#C65447"/>
<path d="M284.469 304.076C284.469 304.076 309.721 287.746 327.836 296.099C330.721 297.43 334.015 301.144 336.373 303.741C342.92 310.956 355.714 425.556 355.714 425.556C355.714 425.556 319.398 437.857 284.472 421.381V304.076H284.469Z" fill="white"/>
<path d="M329.273 295.682C329.273 295.682 354.837 306.159 358.301 314.209C361.764 322.259 373.017 371.694 373.017 377.492C373.017 383.289 353.422 378.787 350.268 369.439C347.648 361.675 338.814 337.824 334.155 322.74L329.273 295.682Z" fill="#2B478B"/>
<path d="M323.961 303.668C318.38 304.762 310.181 303.595 304.18 299.639C306.89 293.167 308.002 288.056 308.396 284.747C308.419 284.572 308.436 284.4 308.454 284.237C308.632 282.521 308.606 281.36 308.524 280.826H322.952C322.952 280.826 326.896 282.629 326.896 283.875C326.896 284.54 326.902 285.179 326.914 285.789C326.943 287.449 327.01 288.896 327.095 290.142C327.369 294.191 327.833 296.097 327.833 296.097C327.833 296.097 329.598 302.562 323.961 303.668Z" fill="#FFB27D"/>
<path d="M327.099 290.142C316.167 292.254 309.821 286.282 308.4 284.747C308.199 284.528 308.094 284.397 308.094 284.397C308.21 284.339 308.33 284.286 308.458 284.237C312.528 282.588 321.763 283.898 326.918 285.789C326.947 287.449 327.011 288.899 327.099 290.142Z" fill="#E2915A"/>
<path d="M304.829 278.454C306.781 288.966 320.347 288.622 326.209 287.959C327.857 287.776 328.896 287.566 328.896 287.566C330.757 287.07 331.793 284.137 332.277 280.301C333.234 272.706 332.027 261.555 330.743 258.705C328.811 254.413 325.173 249.774 311.513 253.12C297.85 256.476 302.323 264.986 304.829 278.454Z" fill="#FFB27D"/>
<path d="M331.247 252.843C329.38 250.258 325.421 247.098 321.826 245.155C314.1 240.977 304.215 245.287 304.175 245.304C293.018 250.209 290.103 258.746 296.017 272.044C302.272 286.107 308.23 284.522 308.23 284.522C308.23 284.522 306.967 283.735 307.081 279.353C307.086 279.105 307.098 278.894 307.11 278.716C307.168 277.818 306.85 276.916 306.179 276.318C304.793 275.081 304.116 271.341 305.277 270.299C306.678 269.042 308.644 270.568 309.275 271.743C309.823 272.572 310.806 272.864 311.722 272.283C315.194 270.089 312.939 265.695 316.256 263.011C319.574 260.324 326.307 262.579 331.288 260.441C337.803 258.013 332.656 254.789 331.247 252.843Z" fill="#233862"/>
<path d="M333.04 439.286H278.055C278.449 427.884 278.953 414.271 279.484 400.488C279.619 396.914 279.761 393.325 279.902 389.766C279.966 388.258 280.021 386.758 280.08 385.258C281.293 354.65 282.501 327.008 282.755 325.518C283.333 322.151 283.878 319.28 284.468 316.791C286.195 309.541 288.342 305.564 293.022 302.145C293.477 301.798 297.223 299.913 300.52 298.267C303.216 296.931 305.611 295.761 305.684 295.729V295.726H305.687C306.233 295.992 306.834 296.75 307.467 297.876C308.1 299.002 308.768 300.502 309.451 302.253C311.963 308.709 314.679 318.588 316.564 325.967C316.567 325.976 316.57 325.984 316.57 325.99C316.573 325.996 316.573 325.999 316.573 326.005C316.573 326.008 316.573 326.008 316.573 326.008C317.787 330.772 318.659 334.48 318.907 335.548C319.33 337.346 319.884 340.82 320.541 345.529V345.541C321.428 351.963 322.49 360.678 323.613 370.568V370.571C323.73 371.589 323.843 372.616 323.96 373.652C324.091 374.837 324.229 376.036 324.363 377.247V377.249C324.407 377.638 324.447 378.028 324.488 378.419V378.422C324.92 382.338 325.358 386.376 325.789 390.487C325.789 390.49 325.789 390.495 325.792 390.498C326.163 393.886 331.301 396.339 331.657 399.791C331.683 400.042 331.709 400.549 331.741 401.255C331.808 402.714 331.887 405.031 331.984 407.709C332.024 408.9 332.065 410.166 332.112 411.455C332.313 417.194 332.561 423.482 332.841 426.507C332.856 426.65 332.868 426.831 332.876 427.053C332.908 427.657 332.935 428.547 332.958 429.661C333.008 432.033 333.031 435.423 333.04 439.286Z" fill="#2B478B"/>
<path d="M295.531 337.859C295.513 337.929 294.655 368.812 317.885 372.561C341.115 376.313 325.681 377.305 325.681 377.305C325.681 377.305 281.973 375.446 281.252 374.294C280.528 373.139 295.531 337.859 295.531 337.859Z" fill="#233862"/>
<path d="M315.156 385.819C315.156 385.819 314.721 386.128 313.884 386.668C313.87 386.673 313.855 386.685 313.84 386.694C310.295 388.955 299.778 395.123 284.463 399.257C282.855 399.692 281.192 400.106 279.483 400.485C279.617 396.914 279.76 393.326 279.897 389.766C277.875 389.609 275.938 389.352 274.141 388.97C274.202 388.5 274.266 388.03 274.324 387.557C276.273 386.758 278.208 385.988 280.075 385.258C281.595 384.663 283.068 384.097 284.46 383.572C290.751 381.182 295.413 379.563 295.413 379.563L314.033 385.463L315.156 385.819Z" fill="#233862"/>
<path d="M320.086 385.302C320.086 385.302 317.694 385.9 313.886 386.668C313.872 386.668 313.86 386.67 313.845 386.676C306.823 388.088 295.012 390.067 284.465 389.959C282.91 389.941 281.381 389.88 279.899 389.766C277.877 389.608 275.94 389.352 274.143 388.97C270.289 388.155 267.059 386.778 264.947 384.625C249.256 368.646 273.51 311.288 278.607 305.707C284.559 299.192 295.424 296.905 301.425 296.12C301.676 296.088 301.915 296.056 302.149 296.027C304.258 295.776 305.612 295.723 305.688 295.72C305.691 295.72 305.691 295.72 305.691 295.72C305.691 295.72 305.221 297.232 304.433 299.799C304.127 300.791 303.771 301.943 303.383 303.227C299.698 315.294 292.588 339.011 289.454 352.389C288.305 357.284 287.692 360.791 287.972 361.839C289.195 366.408 301.872 368.756 309.904 369.795C313.253 370.227 315.797 370.434 316.366 370.475C316.407 370.475 316.445 370.478 316.486 370.484L316.95 372.389L318.061 376.958L319.155 381.445L320.086 385.302Z" fill="#2B478B"/>
<path d="M363.846 412.798L309.961 410.525L320.893 343.373L374.778 345.643L363.846 412.798Z" fill="#3E3AEE"/>
<path d="M316.483 370.489C316.483 370.489 326.972 369.757 327.497 372.202C328.723 377.9 318.479 382.58 315.162 382.262C311.844 381.941 314.071 370.107 316.483 370.489Z" fill="#FFB27D"/>
<path d="M371.836 359.28C371.836 359.28 361.799 356.144 360.723 358.399C358.211 363.659 367.095 370.583 370.397 371.038C373.7 371.496 374.272 359.47 371.836 359.28Z" fill="#FFB27D"/>
<path d="M306.774 292.353C306.774 292.353 302.363 294.457 300.148 297.631C300.148 297.631 316.645 326.27 316.569 326.002C316.496 325.734 310.993 296.021 306.774 292.353Z" fill="#233862"/>
<path d="M327.32 292.756C328.773 293.304 331.56 296.158 332.187 297.736L334.147 322.737C334.147 322.737 329.961 304.388 327.831 296.094C327.291 293.99 327.39 293.348 327.32 292.756Z" fill="#233862"/>
<path d="M338.758 344.126C338.758 344.126 339.184 342.262 341.637 342.481C344.091 342.696 357.871 343.373 357.871 343.373C357.871 343.373 360.529 343.33 360.281 345.033L338.758 344.126Z" fill="#4446B2"/>
<path d="M322.953 280.826C322.953 280.826 324.742 282.457 327.627 281.952C329.34 281.652 330.297 279.428 330.297 279.428C330.297 279.428 327.009 278.836 322.953 280.826Z" fill="white"/>
<path d="M578.28 301.725L538.478 301.871L525.57 252.458L565.372 252.309L578.28 301.725Z" fill="white"/>
<path d="M555.506 258.804L538.818 258.865L538.625 258.133L555.314 258.072L555.506 258.804Z" fill="#ADCBF9"/>
<path d="M558.167 260.835L537.213 260.91L537.023 260.181L557.978 260.102L558.167 260.835Z" fill="#ADCBF9"/>
<path d="M563.931 270.892L536.713 270.991L536.523 270.261L563.739 270.159L563.931 270.892Z" fill="#ADCBF9"/>
<path d="M564.556 273.301L537.338 273.401L537.148 272.668L564.364 272.569L564.556 273.301Z" fill="#ADCBF9"/>
<path d="M565.189 275.708L537.974 275.811L537.781 275.078L564.999 274.979L565.189 275.708Z" fill="#ADCBF9"/>
<path d="M565.814 278.118L538.599 278.221L538.406 277.488L565.622 277.389L565.814 278.118Z" fill="#ADCBF9"/>
<path d="M566.447 280.528L539.229 280.628L539.039 279.898L566.254 279.796L566.447 280.528Z" fill="#ADCBF9"/>
<path d="M567.983 286.39L540.768 286.492L540.578 285.76L567.793 285.66L567.983 286.39Z" fill="#ADCBF9"/>
<path d="M568.611 288.8L541.396 288.902L541.203 288.17L568.421 288.07L568.611 288.8Z" fill="#ADCBF9"/>
<path d="M569.244 291.21L542.029 291.309L541.836 290.579L569.051 290.477L569.244 291.21Z" fill="#ADCBF9"/>
<path d="M569.877 293.62L542.658 293.719L542.469 292.989L569.684 292.887L569.877 293.62Z" fill="#ADCBF9"/>
<path d="M570.499 296.03L543.283 296.129L543.094 295.396L570.309 295.297L570.499 296.03Z" fill="#ADCBF9"/>
<path d="M594.311 363.125L554.509 363.274L541.602 313.859L581.403 313.713L594.311 363.125Z" fill="white"/>
<path d="M571.53 320.205L554.841 320.266L554.648 319.537L571.34 319.475L571.53 320.205Z" fill="#ADCBF9"/>
<path d="M574.191 322.235L553.239 322.314L553.047 321.582L574.001 321.506L574.191 322.235Z" fill="#ADCBF9"/>
<path d="M579.955 332.292L552.739 332.394L552.547 331.662L579.765 331.563L579.955 332.292Z" fill="#ADCBF9"/>
<path d="M580.588 334.702L553.369 334.801L553.18 334.072L580.395 333.97L580.588 334.702Z" fill="#ADCBF9"/>
<path d="M581.21 337.112L553.994 337.211L553.805 336.482L581.02 336.38L581.21 337.112Z" fill="#ADCBF9"/>
<path d="M581.845 339.522L554.63 339.621L554.438 338.889L581.656 338.79L581.845 339.522Z" fill="#ADCBF9"/>
<path d="M582.47 341.929L555.252 342.031L555.062 341.299L582.278 341.2L582.47 341.929Z" fill="#ADCBF9"/>
<path d="M584.009 347.794L556.791 347.893L556.602 347.163L583.817 347.061L584.009 347.794Z" fill="#ADCBF9"/>
<path d="M584.639 350.203L557.424 350.303L557.234 349.573L584.45 349.471L584.639 350.203Z" fill="#ADCBF9"/>
<path d="M585.267 352.613L558.052 352.713L557.859 351.98L585.078 351.881L585.267 352.613Z" fill="#ADCBF9"/>
<path d="M585.9 355.02L558.682 355.123L558.492 354.39L585.708 354.291L585.9 355.02Z" fill="#ADCBF9"/>
<path d="M586.522 357.43L559.307 357.533L559.117 356.8L586.333 356.701L586.522 357.43Z" fill="#ADCBF9"/>
<path d="M610.462 424.941L570.657 425.089L557.75 375.674L597.555 375.528L610.462 424.941Z" fill="white"/>
<path d="M587.678 382.02L570.989 382.081L570.797 381.352L587.488 381.291L587.678 382.02Z" fill="#ADCBF9"/>
<path d="M590.347 384.051L569.396 384.129L569.203 383.397L590.157 383.321L590.347 384.051Z" fill="#ADCBF9"/>
<path d="M596.103 394.107L568.888 394.21L568.695 393.477L595.914 393.378L596.103 394.107Z" fill="#ADCBF9"/>
<path d="M596.736 396.517L569.518 396.617L569.328 395.887L596.543 395.785L596.736 396.517Z" fill="#ADCBF9"/>
<path d="M597.361 398.927L570.143 399.027L569.953 398.297L597.168 398.195L597.361 398.927Z" fill="#ADCBF9"/>
<path d="M597.994 401.337L570.778 401.436L570.586 400.704L597.804 400.605L597.994 401.337Z" fill="#ADCBF9"/>
<path d="M598.619 403.744L571.404 403.846L571.211 403.114L598.426 403.015L598.619 403.744Z" fill="#ADCBF9"/>
<path d="M600.158 409.609L572.943 409.708L572.75 408.979L599.965 408.876L600.158 409.609Z" fill="#ADCBF9"/>
<path d="M600.791 412.019L573.572 412.118L573.383 411.388L600.598 411.286L600.791 412.019Z" fill="#ADCBF9"/>
<path d="M601.416 414.429L574.2 414.528L574.008 413.795L601.226 413.696L601.416 414.429Z" fill="#ADCBF9"/>
<path d="M602.049 416.836L574.833 416.938L574.641 416.205L601.856 416.106L602.049 416.836Z" fill="#ADCBF9"/>
<path d="M602.674 419.246L575.455 419.348L575.266 418.615L602.481 418.516L602.674 419.246Z" fill="#ADCBF9"/>
<path d="M558.126 425.358L418.916 425.871L378.852 272.487L396.984 252.96L512.982 252.531L558.126 425.358Z" fill="white"/>
<path d="M474.633 278.451L425.571 278.632L425.008 276.484L474.07 276.304L474.633 278.451Z" fill="#ADCBF9"/>
<path d="M482.472 284.423L420.873 284.651L420.312 282.5L481.909 282.273L482.472 284.423Z" fill="#ADCBF9"/>
<path d="M499.398 313.987L419.391 314.282L418.828 312.132L498.837 311.837L499.398 313.987Z" fill="#ADCBF9"/>
<path d="M501.252 321.068L421.243 321.363L420.68 319.216L500.689 318.918L501.252 321.068Z" fill="#ADCBF9"/>
<path d="M503.104 328.152L423.094 328.447L422.531 326.297L502.541 326.002L503.104 328.152Z" fill="#ADCBF9"/>
<path d="M504.952 335.233L424.943 335.531L424.383 333.38L504.389 333.086L504.952 335.233Z" fill="#ADCBF9"/>
<path d="M506.796 342.317L426.787 342.612L426.227 340.464L506.233 340.167L506.796 342.317Z" fill="#ADCBF9"/>
<path d="M511.304 359.554L431.295 359.849L430.734 357.699L510.744 357.404L511.304 359.554Z" fill="#ADCBF9"/>
<path d="M513.155 366.635L433.146 366.93L432.586 364.783L512.595 364.485L513.155 366.635Z" fill="#ADCBF9"/>
<path d="M515.007 373.719L434.998 374.014L434.438 371.864L514.447 371.569L515.007 373.719Z" fill="#ADCBF9"/>
<path d="M516.851 380.8L436.841 381.098L436.281 378.948L516.29 378.653L516.851 380.8Z" fill="#ADCBF9"/>
<path d="M518.702 387.884L438.696 388.179L438.133 386.029L518.142 385.734L518.702 387.884Z" fill="#ADCBF9"/>
<path d="M378.852 272.487L402.064 272.4L396.984 252.96L378.852 272.487Z" fill="#ADCBF9"/>
<path d="M714.159 545.653H600.828V505.627H714.521C723.361 505.627 730.527 512.792 730.527 521.633V529.288C730.527 538.327 723.198 545.653 714.159 545.653Z" fill="#FCECDB"/>
<path d="M827.26 522.096V528.118C827.26 531.337 826.394 534.35 824.883 536.938C821.845 542.149 816.194 545.653 809.723 545.653H597.357C595.95 545.653 594.812 544.515 594.812 543.112V542.21C594.812 540.807 595.95 539.669 597.357 539.669H726.813C727.505 538.826 728.115 537.913 728.631 536.938C729.845 534.654 730.527 532.051 730.527 529.285V521.63C730.527 520.22 730.346 518.855 730.002 517.557C729.422 515.354 728.386 513.335 727 511.614H597.357C595.95 511.614 594.812 510.476 594.812 509.069V508.171C594.812 506.765 595.95 505.627 597.357 505.627H810.791C818.312 505.627 824.655 510.668 826.624 517.557C827.042 519.001 827.26 520.524 827.26 522.096Z" fill="#699DEE"/>
<path d="M826.624 517.557H730.002C729.422 515.354 728.386 513.335 727 511.614H597.357C595.95 511.614 594.812 510.476 594.812 509.069V508.171C594.812 506.765 595.95 505.627 597.357 505.627H810.791C818.312 505.627 824.655 510.668 826.624 517.557Z" fill="#548EE2"/>
<path d="M600.828 525.641L616.554 526.312L600.828 526.718V525.641Z" fill="#F4D2B8"/>
<path d="M600.828 531.92L638.238 532.594L600.828 533V531.92Z" fill="#F4D2B8"/>
<path d="M627.848 576.705H748.49V545.571H626.867C618.54 545.571 611.789 552.323 611.789 560.65C611.792 569.516 618.978 576.705 627.848 576.705Z" fill="#2B478B"/>
<path d="M741.562 576.705H878.864V545.571H741.212C732.745 545.571 725.883 552.434 725.883 560.9V561.026C725.886 569.685 732.905 576.705 741.562 576.705Z" fill="#FCECDB"/>
<path d="M716.719 576.705H883.635C884.921 576.705 885.963 575.663 885.963 574.377C885.963 573.09 884.921 572.049 883.635 572.049H716.719C715.432 572.049 714.391 573.09 714.391 574.377C714.391 575.661 715.432 576.705 716.719 576.705Z" fill="#2B478B"/>
<path d="M716.719 550.225H883.635C884.921 550.225 885.963 549.183 885.963 547.897C885.963 546.61 884.921 545.568 883.635 545.568H716.719C715.432 545.568 714.391 546.61 714.391 547.897C714.391 549.183 715.432 550.225 716.719 550.225Z" fill="#2B478B"/>
<path d="M878.875 561.137L860.328 561.659L878.875 561.977V561.137Z" fill="#F4D2B8"/>
<path d="M878.868 553.971L834.742 554.496L878.868 554.811V553.971Z" fill="#F4D2B8"/>
<path d="M835.203 554.391C835.203 554.391 837.094 555.728 837.721 557.927C837.832 558.313 837.902 558.724 837.917 559.159C838.022 562.079 837.917 568.69 837.917 568.69L843.501 565.385L849.068 568.69V559.731C849.068 558.035 848.589 556.387 847.702 555.307C847.273 554.785 846.751 554.391 846.159 554.391H835.203V554.391Z" fill="#699DEE"/>
<path d="M835.203 554.391C835.203 554.391 837.094 555.728 837.721 557.927L848.91 558.059C848.91 558.059 848.472 554.911 846.162 554.391H835.203Z" fill="#568CDB"/>
<path d="M727.529 505.711H850.791V459.969H727.123C717.253 459.969 709.25 467.972 709.25 477.842V487.433C709.25 497.527 717.434 505.711 727.529 505.711Z" fill="#FCECDB"/>
<path d="M712.154 477.717V487.561C712.183 491.765 714.511 495.412 717.93 497.364C719.614 498.321 721.56 498.87 723.629 498.87H857.488C859.058 498.87 860.33 500.142 860.33 501.711V502.872C860.33 504.442 859.058 505.714 857.488 505.714H626.242C619.607 505.714 613.743 502.417 610.201 497.367C607.969 494.187 606.656 490.312 606.656 486.128V478.362C606.656 475.497 607.313 472.783 608.483 470.365C611.456 464.214 617.755 459.972 625.046 459.972H857.488C859.058 459.972 860.33 461.241 860.33 462.811V463.972C860.33 465.542 859.058 466.814 857.488 466.814H723.217C720.008 466.814 717.105 468.179 715.074 470.365C713.28 472.299 712.171 474.875 712.154 477.717Z" fill="#5277F7"/>
<path d="M850.794 482.84L833.633 483.61L850.794 484.071V482.84Z" fill="#F4D2B8"/>
<path d="M850.795 472.314L809.969 473.084L850.795 473.545V472.314Z" fill="#F4D2B8"/>
<path d="M810.391 472.929C810.391 472.929 813.084 474.379 813.976 476.763C814.134 477.18 814.236 477.626 814.256 478.096C814.405 481.265 814.256 488.433 814.256 488.433L822.21 484.847L830.143 488.433V478.718C830.143 476.88 829.463 475.094 828.197 473.924C827.584 473.358 826.84 472.929 826 472.929H810.391Z" fill="#3E3AEE"/>
<path d="M810.391 472.929C810.391 472.929 813.084 474.379 813.976 476.763L829.918 476.906C829.918 476.906 829.294 473.492 826.003 472.929H810.391Z" fill="#4446B2"/>
<path d="M729.672 443.009C736.727 455.29 745.602 460.028 745.602 460.028H782.521C782.518 460.028 724.289 433.641 729.672 443.009Z" fill="#233862"/>
<path d="M758.026 538.018C758.989 539.121 759.111 540.352 758.636 541.668C758.636 541.674 758.633 541.683 758.627 541.685C757.746 544.119 754.837 546.835 751.458 549.548C751.026 549.896 750.641 550.214 750.309 550.508C750.221 550.584 750.134 550.663 750.052 550.739C749.985 550.797 749.918 550.861 749.854 550.917C746.703 553.823 747.887 554.488 742.227 560.381C735.773 567.098 731.327 567.217 730.064 566.608C728.993 566.085 731.166 562.523 733.573 558.52C733.69 558.327 733.804 558.132 733.924 557.936C734.244 557.405 734.562 556.863 734.88 556.329C737.702 551.509 736.978 549.251 736.307 542.079C735.765 536.253 727.242 509.525 727.242 509.525L739.613 507.395C739.613 507.395 743.339 528.679 747.444 531.955C749.638 533.703 752.094 533.723 754.204 535.019C754.353 535.109 754.498 535.2 754.641 535.296C755.841 536.092 757.06 536.912 758.026 538.018Z" fill="#FFB27D"/>
<path d="M758.024 538.018C758.987 539.121 759.109 540.352 758.634 541.668C758.634 541.674 758.631 541.682 758.625 541.685C757.545 544.116 754.709 546.82 751.445 549.525C751.019 549.878 750.642 550.205 750.307 550.508C750.219 550.584 750.132 550.663 750.05 550.739C749.983 550.797 749.916 550.861 749.852 550.917C746.701 553.823 747.885 554.488 742.225 560.381C735.771 567.098 731.325 567.217 730.062 566.608C728.991 566.085 731.164 562.523 733.571 558.52C734.829 558.059 740.664 555.69 745.079 550.041C748.965 545.081 751.559 538.709 754.205 535.019C754.354 535.109 754.499 535.2 754.642 535.296C755.839 536.092 757.058 536.912 758.024 538.018Z" fill="#233862"/>
<path d="M658.28 530.292C657.516 534.111 652.075 533.472 645.994 531.987C639.914 530.502 641.358 532.267 632.705 531.31C624.051 530.353 621.428 527.127 621.166 525.84C620.929 524.699 625.206 524.297 629.793 523.768C630.371 523.704 630.948 523.631 631.529 523.561C636.708 522.911 640.501 519.57 645.204 516.825C649.659 514.225 656.308 503.634 656.308 503.634L668.177 504.574C668.177 504.574 661.948 514.032 659.541 518.146C658.123 520.565 658.199 523.763 658.377 526.234C658.464 527.576 658.552 528.947 658.28 530.292Z" fill="#FFB27D"/>
<path d="M645.994 531.987C639.914 530.502 641.358 532.267 632.705 531.31C624.051 530.353 621.428 527.127 621.166 525.84C620.929 524.699 625.206 524.297 629.793 523.768L629.837 523.856C629.837 523.856 635.027 527.535 642.231 527.707C648.101 527.85 654.321 526.167 658.377 526.234C658.47 527.576 658.558 528.95 658.286 530.295C657.516 534.111 652.075 533.475 645.994 531.987Z" fill="#233862"/>
<path d="M703.766 454.403L714.861 484.258L729.347 523.24C729.347 523.24 733.277 523.62 737.044 522.537C740.51 521.537 744.487 518.914 744.487 518.914C744.487 518.914 740.463 477.058 732.962 453.031C731.039 446.864 728.883 441.874 726.505 439.068C714.873 425.323 703.766 454.403 703.766 454.403Z" fill="#233862"/>
<path d="M715.045 406.989C722.313 404.643 743.046 407.654 763.871 411.73L768.233 404.538L813.214 401.025C813.214 401.025 828.059 433.942 819.93 454.916C818.737 458 816.362 459.975 812.318 460.042C812.318 460.045 811.665 460.039 811.662 460.042C811.662 460.042 784.89 460.028 776.195 460.028C753.826 460.028 728.852 444.652 725.622 444.004C720.335 442.948 718.22 453.522 712.93 464.626C707.644 475.73 663.226 513.802 663.226 513.802C663.226 513.802 656.399 513.869 653.58 512.813C650.549 511.675 649.438 510.199 649.438 510.199C649.438 510.199 698.651 412.278 715.045 406.989Z" fill="#2B478B"/>
<path d="M768.494 342.594C784.512 351.414 817.008 369.699 817.177 369.579C817.177 369.579 829.122 374.081 835.897 369.579C847.191 362.078 853.248 341.894 832.594 324.523C822.295 315.861 814.975 313.751 813.863 299.916C813.259 292.412 803.001 267.641 785.956 269.935C784.532 270.127 775.765 270.536 770.003 273.561C755.319 281.272 744.483 339.181 768.494 342.594Z" fill="#233862"/>
<path d="M781.917 335.087C781.847 335.134 789.798 337.848 795.117 335.493C800.117 333.281 803.907 325.054 803.834 325.048C801.559 324.943 799.061 322.953 797.135 309.9L796.167 310.247L779.875 316.109C779.875 316.109 781.057 321.337 781.818 326.311C782.463 330.492 782.807 334.495 781.917 335.087Z" fill="#FFB27D"/>
<path d="M779.875 316.108C779.875 316.108 781.057 321.337 781.818 326.311C791.175 324.628 794.848 315.303 796.164 310.244L779.875 316.108Z" fill="#ED975D"/>
<path d="M777.45 321.299C777.45 321.299 799.737 318.308 797.663 304.456C795.585 290.603 797.065 280.89 782.745 282.212C768.425 283.536 766.459 289.235 766.03 294.028C765.595 298.819 771.597 321.719 777.45 321.299Z" fill="#FFB27D"/>
<path d="M766.844 286.434C766.844 286.434 781.111 298.728 790.818 299.72C800.522 300.712 804.198 297.596 804.198 297.596C804.198 297.596 798.476 292.847 795.034 285.182C794.018 282.924 791.877 281.372 789.408 281.159C782.479 280.561 769.341 280.289 766.844 286.434Z" fill="#233862"/>
<path d="M775.757 285.334C775.757 285.334 770.984 289.949 769.481 293.372C768.031 296.674 767.597 304.575 768.752 307.715C768.752 307.715 761.315 293.252 765.525 286.226C769.989 278.778 775.757 285.334 775.757 285.334Z" fill="#233862"/>
<path d="M763.153 367.919C763.827 413.037 763.337 403.61 768.273 407.89C769.463 408.92 772.807 409.536 777.207 409.825C791.042 410.744 815.36 408.465 816.285 405.906C819.477 397.06 817.224 394.312 819.885 380.768C820.162 379.327 820.507 377.769 820.909 376.071C823.13 366.77 825.289 363.604 817.414 348.66C810.272 335.122 802.852 324.135 802.184 324.532C783.342 335.718 781.822 326.314 781.822 326.314C781.822 326.314 762.823 345.912 763.153 367.919Z" fill="white"/>
<path d="M714.859 484.258L729.345 523.24C729.345 523.24 733.275 523.62 737.042 522.537C740.508 521.537 744.485 518.914 744.485 518.914C744.485 518.914 740.461 477.058 732.96 453.031L714.859 484.258Z" fill="#2B478B"/>
<path d="M781.819 326.314C781.819 326.314 762.431 329.602 760.153 337.95C757.874 346.297 744.477 395.374 744.477 395.374C744.477 395.374 754.332 397.145 758.887 392.59C763.441 388.036 774.729 350.347 774.729 350.347L781.819 326.314Z" fill="white"/>
<path d="M777.203 409.828C791.038 410.747 815.357 408.468 816.281 405.909C819.473 397.063 817.221 394.315 819.882 380.771L813.209 361.982C813.209 361.982 814.312 382.907 808.141 388.409C801.976 393.912 782.878 399.032 779.876 403.631C778.431 405.836 777.48 408.051 777.203 409.828Z" fill="#EBF3FF"/>
<path d="M793.058 401.028C793.058 401.028 779.409 397.988 777.207 399.202C775.004 400.413 769.621 404.824 768.947 406.359C768.273 407.893 773.848 405.194 775.663 404.707C776.839 404.392 779.932 405.466 781.46 405.976C787.902 408.124 791.85 407.018 791.85 407.018L793.058 401.028Z" fill="#FFB27D"/>
<path d="M802.198 324.523C802.198 324.523 820.527 325.652 826.869 334.501C835.8 346.956 853.516 400.042 843.363 407.123C831.929 415.097 791.322 409.209 791.322 409.209C791.322 409.209 789.971 402.892 791.85 399.838C793.728 396.783 824.282 391.846 825.694 390.437C827.103 389.028 808.068 362.939 808.068 358.708C808.068 354.478 802.198 324.523 802.198 324.523Z" fill="white"/>
<path d="M776.542 402.997C776.542 402.997 773.683 406.685 772.747 407.126C771.81 407.566 771.203 407.456 771.203 407.456L773.132 403.987L776.542 402.997Z" fill="#FFB27D"/>
<path d="M777.206 399.199L768.891 403.237C768.891 403.237 769.244 403.814 770.268 403.768C771.292 403.721 773.874 402.776 773.874 402.776L777.206 399.199Z" fill="#FFB27D"/>
<path d="M772.746 412.777H706.972L687.188 363.578H752.86L772.746 412.777Z" fill="#3E3AEE"/>
<path d="M706.203 410.86H793.057V412.777H706.973L706.203 410.86Z" fill="#4446B2"/>
<path d="M723.58 388.179C723.084 386.449 724.085 385.048 725.815 385.048C727.545 385.048 729.348 386.452 729.844 388.179C730.34 389.909 729.339 391.31 727.609 391.31C725.879 391.31 724.076 389.906 723.58 388.179Z" fill="white"/>
<path d="M562.455 241.128C562.822 239.572 561.859 238.014 560.303 237.646C558.748 237.279 557.189 238.242 556.821 239.798C556.454 241.354 557.417 242.912 558.973 243.28C560.529 243.647 562.087 242.684 562.455 241.128Z" fill="#3E3AEE"/>
</g>
<defs>
<filter id="filter0_d_1587_2730" x="0" y="0" width="1638" height="807.441" filterUnits="userSpaceOnUse" color-interpolation-filters="sRGB">
<feFlood flood-opacity="0" result="BackgroundImageFix"/>
<feColorMatrix in="SourceAlpha" type="matrix" values="0 0 0 0 0 0 0 0 0 0 0 0 0 0 0 0 0 0 127 0" result="hardAlpha"/>
<feOffset dy="26"/>
<feGaussianBlur stdDeviation="24.5"/>
<feColorMatrix type="matrix" values="0 0 0 0 0.573663 0 0 0 0 0.647248 0 0 0 0 0.720833 0 0 0 0.14 0"/>
<feBlend mode="normal" in2="BackgroundImageFix" result="effect1_dropShadow_1587_2730"/>
<feBlend mode="normal" in="SourceGraphic" in2="effect1_dropShadow_1587_2730" result="shape"/>
</filter>
<linearGradient id="paint0_linear_1587_2730" x1="819" y1="23" x2="819" y2="732.441" gradientUnits="userSpaceOnUse">
<stop stop-color="#B9B9B9" stop-opacity="0.13"/>
<stop offset="1" stop-color="#5E5E5E" stop-opacity="0.37"/>
</linearGradient>
<clipPath id="clip0_1587_2730">
<rect width="850.628" height="445.73" fill="white" transform="translate(101 133)"/>
</clipPath>
</defs>
</svg>
