<svg width="179" height="193" viewBox="0 0 179 193" fill="none" xmlns="http://www.w3.org/2000/svg">
<path d="M161.053 43.0603C161.056 43.1211 161.056 43.1819 161.053 43.2426C161.053 43.3782 161.053 43.5464 161.053 43.7521C161.053 44.2195 161.053 44.8599 161.081 45.6638C161.081 47.3138 161.109 49.6322 161.132 52.4039L161.029 52.2964H170.377L170.256 52.4179V49.9079C170.256 49.0806 170.256 48.2767 170.256 47.4914C170.256 45.9209 170.256 44.4439 170.256 43.0837L170.363 43.1865L163.623 43.1351L161.712 43.1071H161.202H161.02C161.073 43.1003 161.126 43.1003 161.179 43.1071H161.646L163.516 43.079L170.326 43.0229H170.429V43.1305C170.429 44.4906 170.429 45.9676 170.429 47.5381C170.429 48.3234 170.429 49.1273 170.429 49.9547V52.4647L170.307 52.5862H160.959H160.852V52.4834C160.852 49.6789 160.894 47.3418 160.908 45.6732C160.908 44.8832 160.908 44.2476 160.936 43.8035C160.936 43.6025 160.936 43.4436 160.936 43.3127C160.954 43.2204 160.994 43.1338 161.053 43.0603Z" fill="#263238"/>
<path d="M172.345 40.971C172.499 41.1019 170.475 43.8035 167.858 47.01L166.282 48.8796L166.049 49.1554L165.787 48.9217C163.59 46.9586 162.09 45.4815 162.192 45.36C162.295 45.2385 163.978 46.5145 166.24 48.4029L165.75 48.4449L167.297 46.5285C169.928 43.3408 172.19 40.8448 172.345 40.971Z" fill="#407BFF"/>
<path d="M165.438 33.5579C165.516 33.5528 165.594 33.5528 165.672 33.5579L166.354 33.5813C166.504 33.5813 166.672 33.5813 166.859 33.5813L167.462 33.6701L168.168 33.7683L168.953 33.9646C170.307 34.3066 171.596 34.8688 172.767 35.6286C174.33 36.6278 175.672 37.9352 176.712 39.4707C177.959 41.3478 178.727 43.5012 178.951 45.7434C179.003 46.3558 179.016 46.9709 178.988 47.585C178.965 47.8981 178.988 48.216 178.928 48.5198C178.867 48.8236 178.83 49.1508 178.783 49.4546C178.542 50.7572 178.111 52.0172 177.502 53.1939C176.852 54.4319 176.026 55.5687 175.048 56.5686C174.009 57.591 172.819 58.447 171.519 59.1067C170.174 59.7972 168.716 60.2435 167.214 60.4248C166.834 60.4833 166.45 60.5161 166.065 60.5229C165.679 60.5463 165.291 60.5463 164.905 60.5229C164.119 60.4907 163.338 60.3922 162.568 60.2284C160.917 59.8725 159.346 59.2115 157.936 58.2793H158.076L153.365 60.149L153.085 60.2612L153.164 59.9714L154.566 54.9327V55.0589C153.286 53.3624 152.425 51.3878 152.052 49.2957C151.869 48.3238 151.807 47.3334 151.865 46.3463C151.877 45.8763 151.922 45.4078 152 44.9441C152.038 44.715 152.07 44.4767 152.108 44.2523C152.145 44.028 152.22 43.7849 152.271 43.5886C153.086 40.5204 154.956 37.8375 157.553 36.0118C158.517 35.3214 159.57 34.7663 160.685 34.3619L161.39 34.1095L162.059 33.9412L162.671 33.787C162.867 33.7496 163.059 33.7309 163.237 33.7028C163.592 33.6561 163.905 33.5953 164.172 33.5813H164.863H165.284C165.332 33.576 165.381 33.576 165.429 33.5813C165.381 33.5895 165.332 33.5895 165.284 33.5813L164.863 33.6187L164.176 33.6654C163.905 33.6654 163.592 33.7542 163.241 33.8057C160.684 34.2476 158.311 35.4223 156.408 37.187C154.506 38.9518 153.156 41.2308 152.524 43.7475C152.472 43.9672 152.402 44.1822 152.365 44.4066C152.327 44.6309 152.295 44.874 152.262 45.0843C152.184 45.5477 152.141 46.0166 152.136 46.4865C152.084 47.4552 152.148 48.4265 152.327 49.3798C152.703 51.427 153.553 53.3577 154.809 55.0168L154.851 55.0729V55.1383L153.477 60.1817L153.276 60.0041L157.988 58.1064L158.062 58.0784L158.128 58.1204C159.506 59.0287 161.04 59.6738 162.652 60.0228C163.4 60.1816 164.16 60.2785 164.924 60.3126C165.307 60.3126 165.686 60.3126 166.06 60.3126C166.436 60.3076 166.81 60.2763 167.182 60.2191C168.649 60.0402 170.073 59.6034 171.388 58.929C172.662 58.2877 173.828 57.4536 174.847 56.4564C175.805 55.4805 176.616 54.3704 177.254 53.1612C177.854 52.0052 178.281 50.7674 178.521 49.4873C178.572 49.1742 178.619 48.8657 178.666 48.5525C178.713 48.2393 178.708 47.9308 178.731 47.6177C178.846 45.2917 178.348 42.9764 177.285 40.9041C176.223 38.8318 174.634 37.0753 172.678 35.8108C171.53 35.0519 170.268 34.4822 168.939 34.1235L168.159 33.9132L167.462 33.801L166.864 33.7028C166.682 33.7028 166.513 33.6748 166.364 33.6654L165.686 33.614C165.602 33.6022 165.519 33.5834 165.438 33.5579Z" fill="#455A64"/>
<path d="M77.9427 36.1615H78.2418C78.536 36.1638 78.8297 36.1872 79.1206 36.2316C80.2694 36.3701 81.3754 36.7525 82.3644 37.3534C83.101 37.7824 83.7677 38.3215 84.3416 38.9519C85.0396 39.7095 85.5982 40.5846 85.9915 41.5367C86.4396 42.6534 86.659 43.8486 86.6366 45.0516C86.6366 46.3323 86.6366 47.6925 86.6366 49.1321C86.6366 60.6679 86.6366 77.3545 86.6693 97.9767C86.702 118.599 86.6693 143.152 86.6693 170.426V183.401C86.6872 184.293 86.5754 185.182 86.3374 186.042C86.0969 186.907 85.7248 187.73 85.2343 188.482C84.7332 189.233 84.1255 189.906 83.4301 190.482C82.0074 191.637 80.2579 192.315 78.4288 192.422C76.6152 192.478 74.811 192.422 72.9881 192.45H61.9666H39.3392H21.9327C19.9341 192.561 17.9541 192.014 16.2958 190.893C14.6496 189.746 13.4404 188.076 12.865 186.154C12.5944 185.201 12.4729 184.213 12.505 183.223V168.733C12.505 161.074 12.505 153.53 12.505 146.101C12.505 131.266 12.505 116.949 12.505 103.315C12.505 89.6801 12.505 76.7235 12.505 64.5988C12.505 58.5349 12.505 52.6876 12.505 47.0568C12.505 46.351 12.505 45.6546 12.505 44.9535C12.505 44.6076 12.5331 44.2524 12.5518 43.9065C12.5705 43.5606 12.6406 43.21 12.7294 42.8735C13.0414 41.5255 13.664 40.269 14.5476 39.2043C15.4242 38.1739 16.5218 37.3543 17.7588 36.8065C18.9744 36.2865 20.2887 36.0377 21.6102 36.0773H29.1542H34.6089C35.2132 36.045 35.8116 36.209 36.315 36.5447C36.8065 36.8887 37.1763 37.3796 37.3714 37.947C37.5385 38.4992 37.5987 39.0782 37.549 39.653V40.499C37.5394 40.7736 37.5488 41.0484 37.577 41.3217C37.6422 41.8583 37.8669 42.3631 38.222 42.7707C38.5665 43.176 39.0289 43.4636 39.5448 43.5933C39.8002 43.6551 40.0628 43.6818 40.3254 43.6728H44.247H55.6612H60.6952C61.0925 43.6728 61.4991 43.6728 61.8731 43.6728C62.2502 43.6286 62.6126 43.5009 62.9341 43.2988C63.2417 43.1029 63.5075 42.8479 63.7161 42.5487C63.9247 42.2494 64.072 41.9118 64.1494 41.5554C64.2108 41.2084 64.2327 40.8556 64.2148 40.5037C64.2148 40.1532 64.2148 39.8073 64.2148 39.4661C64.1984 39.1289 64.2125 38.791 64.2569 38.4565C64.3118 38.1285 64.4225 37.8123 64.5841 37.5216C64.8938 36.963 65.3902 36.5311 65.9863 36.3017C66.5415 36.1255 67.1263 36.0619 67.7064 36.1147H73.3153H76.7695H77.9427H76.7695H73.3153H67.7064C67.1359 36.0635 66.5609 36.1255 66.0143 36.297C65.4437 36.5268 64.971 36.9483 64.6775 37.4889C64.5214 37.7695 64.4139 38.0745 64.3597 38.391C64.3189 38.7196 64.3064 39.0512 64.3223 39.3819V40.4196C64.3405 40.7779 64.317 41.1371 64.2522 41.49C64.1744 41.8597 64.0235 42.2101 63.8084 42.5208C63.5933 42.8314 63.3183 43.0959 62.9995 43.2988C62.6668 43.509 62.2917 43.643 61.9011 43.6915C61.4992 43.7242 61.1112 43.6915 60.7092 43.6915H40.3347C40.0614 43.6998 39.788 43.6731 39.5214 43.612C38.9758 43.4759 38.4858 43.1738 38.1192 42.7473C37.7468 42.3157 37.5095 41.7842 37.4368 41.2189C37.4089 40.9393 37.3996 40.6583 37.4087 40.3775V39.5315C37.4545 38.9743 37.3975 38.4134 37.2405 37.8769C37.0505 37.3438 36.6993 36.8831 36.2355 36.5588C35.7629 36.2285 35.1942 36.0641 34.6183 36.0913H21.6663C20.3689 36.053 19.0787 36.297 17.885 36.8065C16.6763 37.3408 15.603 38.1394 14.7439 39.1435C13.8766 40.1854 13.2666 41.4167 12.9631 42.7379C12.879 43.0651 12.8509 43.411 12.7902 43.7476C12.7294 44.0841 12.7481 44.43 12.7434 44.7759V46.8792C12.7434 52.5069 12.7434 58.3542 12.7434 64.4212C12.7434 76.5458 12.7434 89.5025 12.7434 103.137V145.924C12.7434 153.343 12.7434 160.887 12.7434 168.556V183.046C12.6983 184.061 12.8215 185.076 13.108 186.051C13.6656 187.921 14.8425 189.546 16.4453 190.66C18.0613 191.755 19.9932 192.287 21.9421 192.174H39.3625H61.9899H73.0115C74.8297 192.174 76.6526 192.202 78.4381 192.151C80.2171 192.052 81.9203 191.398 83.3086 190.281C83.9822 189.718 84.5724 189.062 85.0614 188.332C85.5411 187.601 85.9053 186.8 86.1411 185.958C86.372 185.118 86.4806 184.249 86.4636 183.377V180.751C86.4636 177.264 86.4636 173.814 86.4636 170.402C86.4636 143.138 86.4917 118.585 86.5057 97.9533C86.5197 77.3217 86.5431 60.6445 86.5524 49.1088C86.5524 47.6691 86.5524 46.309 86.5524 45.0283C86.5817 43.8351 86.367 42.6486 85.9214 41.5414C85.5366 40.5944 84.9858 39.7238 84.2948 38.9706C82.9401 37.4825 81.1085 36.5138 79.1159 36.2316C78.8264 36.1876 78.5345 36.161 78.2418 36.1521L77.9427 36.1615Z" fill="#407BFF"/>
<path d="M78.0234 79.0606C78.56 78.9412 79.1111 78.9003 79.6594 78.939L79.5378 79.0606V78.7427C79.5378 78.6399 79.5378 78.5371 79.5378 78.4342C79.5378 78.2379 79.5378 78.0603 79.5659 77.9154C79.5893 77.6163 79.6173 77.448 79.65 77.448C79.6827 77.448 79.7155 77.6303 79.7388 77.9154C79.7388 78.0603 79.7388 78.2379 79.7388 78.4342C79.7388 78.5371 79.7388 78.6399 79.7388 78.7427V79.0606L79.6173 79.1821C79.083 79.2168 78.5464 79.1759 78.0234 79.0606Z" fill="#407BFF"/>
<path d="M71.7031 79.0607C72.7485 78.8984 73.8127 78.8984 74.8582 79.0607C73.8127 79.223 72.7485 79.223 71.7031 79.0607Z" fill="#407BFF"/>
<path d="M65.3906 79.0607C66.436 78.8984 67.5002 78.8984 68.5457 79.0607C67.5002 79.223 66.436 79.223 65.3906 79.0607Z" fill="#407BFF"/>
<path d="M59.0781 79.0607C60.1235 78.8984 61.1877 78.8984 62.2332 79.0607C61.1877 79.223 60.1235 79.223 59.0781 79.0607Z" fill="#407BFF"/>
<path d="M52.7656 79.0607C53.811 78.8984 54.8752 78.8984 55.9207 79.0607C54.8752 79.223 53.811 79.223 52.7656 79.0607Z" fill="#407BFF"/>
<path d="M46.4531 79.0607C47.4985 78.8984 48.5627 78.8984 49.6082 79.0607C48.5627 79.223 47.4985 79.223 46.4531 79.0607Z" fill="#407BFF"/>
<path d="M40.1406 79.0607C41.186 78.8984 42.2502 78.8984 43.2957 79.0607C42.2502 79.223 41.186 79.223 40.1406 79.0607Z" fill="#407BFF"/>
<path d="M33.8281 79.0605C34.8751 78.8985 35.9408 78.8985 36.9878 79.0605C35.9408 79.2225 34.8751 79.2225 33.8281 79.0605Z" fill="#407BFF"/>
<path d="M27.5156 79.0607C28.561 78.8984 29.6252 78.8984 30.6707 79.0607C29.6252 79.223 28.561 79.223 27.5156 79.0607Z" fill="#407BFF"/>
<path d="M22.7264 77.4246C22.8458 77.9611 22.8867 78.5122 22.848 79.0605L22.7264 78.939H23.3621C23.5584 78.939 23.7314 78.9483 23.881 78.967C24.1754 78.967 24.3484 79.0184 24.3484 79.0512C24.3484 79.0839 24.1614 79.1166 23.881 79.1353C23.7314 79.1353 23.5584 79.1446 23.3621 79.1633H23.0536H22.7264L22.6003 79.0418C22.5607 78.4994 22.6032 77.9542 22.7264 77.4246Z" fill="#407BFF"/>
<path d="M22.7278 71.021C22.8898 72.0821 22.8898 73.1617 22.7278 74.2228C22.5595 73.1621 22.5595 72.0816 22.7278 71.021Z" fill="#407BFF"/>
<path d="M22.7277 64.6222C22.8898 65.6817 22.8898 66.7597 22.7277 67.8193C22.5595 66.7602 22.5595 65.6813 22.7277 64.6222Z" fill="#407BFF"/>
<path d="M24.356 59.7845C23.8194 59.9038 23.2683 59.9448 22.72 59.906C22.9631 59.663 22.7855 59.8359 22.8416 59.7845V60.4108C22.8416 60.6071 22.8322 60.7801 22.8135 60.9296C22.7901 61.2241 22.7621 61.3971 22.7294 61.3971C22.6966 61.3971 22.6639 61.2101 22.6406 60.9296C22.6406 60.7801 22.6406 60.6071 22.6172 60.4108V60.1023V59.7845L22.7434 59.663C23.284 59.6238 23.8274 59.6647 24.356 59.7845Z" fill="#407BFF"/>
<path d="M30.6707 59.7844C29.6252 59.9467 28.561 59.9467 27.5156 59.7844C28.561 59.6221 29.6252 59.6221 30.6707 59.7844Z" fill="#407BFF"/>
<path d="M36.9878 59.7845C35.9408 59.9465 34.8751 59.9465 33.8281 59.7845C34.8751 59.6225 35.9408 59.6225 36.9878 59.7845Z" fill="#407BFF"/>
<path d="M43.2957 59.7844C42.2502 59.9467 41.186 59.9467 40.1406 59.7844C41.186 59.6221 42.2502 59.6221 43.2957 59.7844Z" fill="#407BFF"/>
<path d="M49.6082 59.7844C48.5627 59.9467 47.4985 59.9467 46.4531 59.7844C47.4985 59.6221 48.5627 59.6221 49.6082 59.7844Z" fill="#407BFF"/>
<path d="M55.9207 59.7844C54.8752 59.9467 53.811 59.9467 52.7656 59.7844C53.811 59.6221 54.8752 59.6221 55.9207 59.7844Z" fill="#407BFF"/>
<path d="M62.2332 59.7844C61.1877 59.9467 60.1235 59.9467 59.0781 59.7844C60.1235 59.6221 61.1877 59.6221 62.2332 59.7844Z" fill="#407BFF"/>
<path d="M68.5457 59.7844C67.5002 59.9467 66.436 59.9467 65.3906 59.7844C66.436 59.6221 67.5002 59.6221 68.5457 59.7844Z" fill="#407BFF"/>
<path d="M74.8582 59.7844C73.8127 59.9467 72.7485 59.9467 71.7031 59.7844C72.7485 59.6221 73.8127 59.6221 74.8582 59.7844Z" fill="#407BFF"/>
<path d="M79.6485 61.4204C79.5292 60.8838 79.4882 60.3327 79.527 59.7844C79.77 60.0275 79.5971 59.8499 79.6485 59.9059H79.0175L78.4987 59.8779C78.1995 59.8779 78.0312 59.8265 78.0312 59.7938C78.0312 59.761 78.2135 59.7283 78.4987 59.705H79.0175H79.326H79.6532L79.7747 59.8265C79.8105 60.3611 79.768 60.8981 79.6485 61.4204Z" fill="#407BFF"/>
<path d="M79.645 67.8193C79.4829 66.7597 79.4829 65.6817 79.645 64.6222C79.807 65.6817 79.807 66.7597 79.645 67.8193Z" fill="#407BFF"/>
<path d="M79.645 74.2228C79.4829 73.1617 79.4829 72.0821 79.645 71.021C79.807 72.0821 79.807 73.1617 79.645 74.2228Z" fill="#407BFF"/>
<path d="M23.3487 59.2797H22.3438V60.2846H23.3487V59.2797Z" fill="#407BFF"/>
<path d="M23.2237 78.5603H22.2188V79.5652H23.2237V78.5603Z" fill="#407BFF"/>
<path d="M51.6846 78.5603H50.6797V79.5652H51.6846V78.5603Z" fill="#407BFF"/>
<path d="M51.6846 59.0693H50.6797V60.0743H51.6846V59.0693Z" fill="#407BFF"/>
<path d="M79.6286 50.1839C79.6286 50.2213 78.1983 50.2634 76.4315 50.2774C74.6647 50.2914 73.2344 50.2774 73.2344 50.24C73.2344 50.2026 74.6647 50.1605 76.4315 50.1418C78.1983 50.1231 79.6239 50.1465 79.6286 50.1839Z" fill="#263238"/>
<path d="M79.6395 51.8198C79.6395 51.8572 78.2092 51.8993 76.4471 51.9133C74.685 51.9273 73.25 51.9133 73.25 51.8712C73.25 51.8291 74.6803 51.7917 76.4471 51.7777C78.2139 51.7637 79.6395 51.7824 79.6395 51.8198Z" fill="#263238"/>
<path d="M79.6473 53.4557C79.6473 53.4931 78.2171 53.5351 76.4549 53.5491C74.6928 53.5632 73.2578 53.5491 73.2578 53.5071C73.2578 53.465 74.6881 53.4276 76.4549 53.4136C78.2217 53.3996 79.6473 53.4183 79.6473 53.4557Z" fill="#263238"/>
<path d="M60.0982 107.418C60.0982 107.479 55.6765 107.531 50.2311 107.531C44.7858 107.531 40.3594 107.479 40.3594 107.418C40.3594 107.358 44.7764 107.306 50.2311 107.306C55.6858 107.306 60.0982 107.353 60.0982 107.418Z" fill="#E0E0E0"/>
<path d="M75.8313 111.466C75.8313 111.527 67.8853 111.578 58.0977 111.578C48.3101 111.578 40.3594 111.527 40.3594 111.466C40.3594 111.405 48.3054 111.354 58.0977 111.354C67.8899 111.354 75.8313 111.405 75.8313 111.466Z" fill="#263238"/>
<path d="M75.4153 114.359C75.4153 114.42 67.5674 114.472 57.8873 114.472C48.2072 114.472 40.3594 114.42 40.3594 114.359C40.3594 114.299 48.2072 114.247 57.8873 114.247C67.5674 114.247 75.4153 114.299 75.4153 114.359Z" fill="#263238"/>
<path d="M61.0564 117.117C61.0564 117.183 56.4243 117.229 50.7079 117.229C44.9914 117.229 40.3594 117.183 40.3594 117.117C40.3594 117.052 44.9914 117.005 50.7079 117.005C56.4243 117.005 61.0564 117.056 61.0564 117.117Z" fill="#263238"/>
<path d="M60.0982 151.463C60.0982 151.523 55.6765 151.575 50.2311 151.575C44.7858 151.575 40.3594 151.523 40.3594 151.463C40.3594 151.402 44.7764 151.35 50.2311 151.35C55.6858 151.35 60.0982 151.383 60.0982 151.463Z" fill="#E0E0E0"/>
<path d="M75.8313 155.496C75.8313 155.557 67.8853 155.609 58.0977 155.609C48.3101 155.609 40.3594 155.557 40.3594 155.496C40.3594 155.436 48.3054 155.384 58.0977 155.384C67.8899 155.384 75.8313 155.431 75.8313 155.496Z" fill="#263238"/>
<path d="M75.4153 158.39C75.4153 158.451 67.5674 158.502 57.8873 158.502C48.2072 158.502 40.3594 158.451 40.3594 158.39C40.3594 158.329 48.2072 158.278 57.8873 158.278C67.5674 158.278 75.4153 158.324 75.4153 158.39Z" fill="#263238"/>
<path d="M61.0564 161.147C61.0564 161.208 56.4243 161.26 50.7079 161.26C44.9914 161.26 40.3594 161.208 40.3594 161.147C40.3594 161.087 44.9914 161.035 50.7079 161.035C56.4243 161.035 61.0564 161.087 61.0564 161.147Z" fill="#263238"/>
<path d="M60.156 87.4973C60.156 87.5581 55.739 87.6095 50.2889 87.6095C44.8389 87.6095 40.4219 87.5581 40.4219 87.4973C40.4219 87.4365 44.8389 87.3851 50.2889 87.3851C55.739 87.3851 60.156 87.4272 60.156 87.4973Z" fill="#407BFF"/>
<path d="M75.8937 91.5498C75.8937 91.6106 67.9477 91.662 58.1555 91.662C48.3632 91.662 40.4219 91.6106 40.4219 91.5498C40.4219 91.489 48.3679 91.4376 58.1555 91.4376C67.9431 91.4376 75.8937 91.4844 75.8937 91.5498Z" fill="#263238"/>
<path d="M75.4731 94.4385C75.4731 94.5039 67.6252 94.5553 57.9498 94.5553C48.2744 94.5553 40.4219 94.5039 40.4219 94.4385C40.4219 94.373 48.265 94.3263 57.9498 94.3263C67.6346 94.3263 75.4731 94.3777 75.4731 94.4385Z" fill="#263238"/>
<path d="M61.1189 97.2008C61.1189 97.2616 56.4821 97.313 50.7704 97.313C45.0586 97.313 40.4219 97.2616 40.4219 97.2008C40.4219 97.14 45.0539 97.0886 50.7704 97.0886C56.4868 97.0886 61.1189 97.14 61.1189 97.2008Z" fill="#263238"/>
<path d="M31.9062 98.0514C32.9909 97.8894 34.0935 97.8894 35.1781 98.0514C34.0935 98.2135 32.9909 98.2135 31.9062 98.0514Z" fill="#407BFF"/>
<path d="M25.3672 98.0514C26.4518 97.8894 27.5545 97.8894 28.6391 98.0514C27.5545 98.2135 26.4518 98.2135 25.3672 98.0514Z" fill="#407BFF"/>
<path d="M24.1528 92.7183C24.3148 93.8029 24.3148 94.9055 24.1528 95.9901C23.9907 94.9055 23.9907 93.8029 24.1528 92.7183Z" fill="#407BFF"/>
<path d="M25.0051 87.0251C24.7297 87.1165 24.4391 87.153 24.1497 87.1327L24.2572 87.0251C24.2572 87.2542 24.2572 87.5253 24.2572 87.8104C24.2988 88.3587 24.2578 88.9102 24.1357 89.4463C24.0163 88.9098 23.9754 88.3587 24.0141 87.8104C24.0141 87.5253 24.0141 87.2542 24.0141 87.0251V86.913H24.117C24.4175 86.8928 24.719 86.9309 25.0051 87.0251Z" fill="#407BFF"/>
<path d="M31.5531 87.0252C30.4685 87.1872 29.3659 87.1872 28.2812 87.0252C29.3659 86.8632 30.4685 86.8632 31.5531 87.0252Z" fill="#407BFF"/>
<path d="M35.1833 89.942C35.0612 89.4058 35.0203 88.8544 35.0618 88.3061C35.0618 87.7826 35.0618 87.3198 35.1086 87.0253L35.1833 87.1001C34.959 87.1001 34.8281 87.0534 34.8281 87.0253C34.8281 86.9973 34.959 86.9693 35.1833 86.9506H35.2488V87.03C35.2768 87.3245 35.2955 87.7872 35.2955 88.3107C35.3369 88.8571 35.2991 89.4065 35.1833 89.942Z" fill="#407BFF"/>
<path d="M35.1762 96.4857C35.0142 95.4011 35.0142 94.2985 35.1762 93.2139C35.3382 94.2985 35.3382 95.4011 35.1762 96.4857Z" fill="#407BFF"/>
<path d="M35.6731 97.514H34.4531V98.734H35.6731V97.514Z" fill="#407BFF"/>
<path d="M35.6731 86.1184H34.4531V87.3384H35.6731V86.1184Z" fill="#407BFF"/>
<path d="M24.7668 97.514H23.5469V98.734H24.7668V97.514Z" fill="#407BFF"/>
<path d="M24.7668 86.4176H23.5469V87.6375H24.7668V86.4176Z" fill="#407BFF"/>
<path d="M31.9062 118.346C32.9909 118.184 34.0935 118.184 35.1781 118.346C34.094 118.515 32.9904 118.515 31.9062 118.346Z" fill="#E0E0E0"/>
<path d="M25.3672 118.346C26.4518 118.184 27.5545 118.184 28.6391 118.346C27.5549 118.515 26.4513 118.515 25.3672 118.346Z" fill="#E0E0E0"/>
<path d="M24.1528 113.013C24.3148 114.098 24.3148 115.201 24.1528 116.285C23.9907 115.201 23.9907 114.098 24.1528 113.013Z" fill="#E0E0E0"/>
<path d="M25.0053 107.325C24.7293 107.413 24.4392 107.45 24.1499 107.432L24.2574 107.325C24.2574 107.554 24.2574 107.82 24.2574 108.105C24.2993 108.654 24.2583 109.205 24.1359 109.741C24.0162 109.205 23.9753 108.654 24.0143 108.105C24.0143 107.82 24.0143 107.554 24.0143 107.325V107.213H24.1172C24.4177 107.189 24.7199 107.228 25.0053 107.325Z" fill="#E0E0E0"/>
<path d="M31.5531 107.325C30.4685 107.487 29.3659 107.487 28.2812 107.325C29.3659 107.163 30.4685 107.163 31.5531 107.325Z" fill="#E0E0E0"/>
<path d="M35.1833 110.242C35.0612 109.705 35.0203 109.154 35.0618 108.606C35.0618 108.082 35.0618 107.619 35.1086 107.325L35.1833 107.4C34.959 107.376 34.8281 107.353 34.8281 107.325C34.8281 107.297 34.959 107.269 35.1833 107.25H35.2488V107.334C35.2768 107.629 35.2955 108.091 35.2955 108.615C35.3364 109.16 35.2987 109.708 35.1833 110.242Z" fill="#E0E0E0"/>
<path d="M35.1762 116.785C35.0142 115.701 35.0142 114.598 35.1762 113.513C35.3382 114.598 35.3382 115.701 35.1762 116.785Z" fill="#E0E0E0"/>
<path d="M35.6731 117.814H34.4531V119.034H35.6731V117.814Z" fill="#E0E0E0"/>
<path d="M35.6731 106.413H34.4531V107.633H35.6731V106.413Z" fill="#E0E0E0"/>
<path d="M24.7668 117.814H23.5469V119.034H24.7668V117.814Z" fill="#E0E0E0"/>
<path d="M24.7668 106.713H23.5469V107.933H24.7668V106.713Z" fill="#E0E0E0"/>
<path d="M31.9688 139.843C33.0534 139.681 34.156 139.681 35.2406 139.843C34.156 140.005 33.0534 140.005 31.9688 139.843Z" fill="#407BFF"/>
<path d="M25.4219 139.843C26.5065 139.681 27.6091 139.681 28.6938 139.843C27.6091 140.005 26.5065 140.005 25.4219 139.843Z" fill="#407BFF"/>
<path d="M24.2153 134.51C24.3773 135.594 24.3773 136.697 24.2153 137.782C24.0532 136.697 24.0532 135.594 24.2153 134.51Z" fill="#407BFF"/>
<path d="M25.0645 128.821C24.7895 128.907 24.5012 128.942 24.2138 128.924L24.3213 128.821C24.3213 129.05 24.3213 129.317 24.3213 129.602C24.36 130.15 24.3191 130.701 24.1997 131.238C24.0776 130.702 24.0367 130.15 24.0782 129.602C24.0782 129.317 24.0782 129.05 24.0782 128.821V128.709H24.181C24.4801 128.685 24.7808 128.724 25.0645 128.821Z" fill="#407BFF"/>
<path d="M31.6156 128.821C30.531 128.983 29.4284 128.983 28.3438 128.821C29.4284 128.659 30.531 128.659 31.6156 128.821Z" fill="#407BFF"/>
<path d="M35.238 131.738C35.1187 131.201 35.0778 130.65 35.1165 130.102C35.1165 129.578 35.1165 129.116 35.1633 128.821L35.238 128.896C35.0137 128.873 34.8828 128.849 34.8828 128.821C34.8828 128.793 35.0137 128.765 35.238 128.746H35.3082V128.831C35.3409 129.125 35.3549 129.588 35.3549 130.111C35.397 130.656 35.3576 131.205 35.238 131.738Z" fill="#407BFF"/>
<path d="M35.2387 138.282C35.0767 137.197 35.0767 136.094 35.2387 135.01C35.4007 136.094 35.4007 137.197 35.2387 138.282Z" fill="#407BFF"/>
<path d="M35.7356 139.305H34.5156V140.525H35.7356V139.305Z" fill="#407BFF"/>
<path d="M35.7356 127.91H34.5156V129.13H35.7356V127.91Z" fill="#407BFF"/>
<path d="M24.8215 139.305H23.6016V140.525H24.8215V139.305Z" fill="#407BFF"/>
<path d="M24.8215 128.209H23.6016V129.429H24.8215V128.209Z" fill="#407BFF"/>
<path d="M31.9062 161.278C32.9909 161.116 34.0935 161.116 35.1781 161.278C34.0935 161.44 32.9909 161.44 31.9062 161.278Z" fill="#E0E0E0"/>
<path d="M25.3672 161.278C26.4518 161.116 27.5545 161.116 28.6391 161.278C27.5545 161.44 26.4518 161.44 25.3672 161.278Z" fill="#E0E0E0"/>
<path d="M24.1528 155.945C24.3148 157.03 24.3148 158.132 24.1528 159.217C23.9907 158.132 23.9907 157.03 24.1528 155.945Z" fill="#E0E0E0"/>
<path d="M25.0053 150.257C24.7293 150.345 24.4392 150.382 24.1499 150.364L24.2574 150.257C24.2574 150.486 24.2574 150.752 24.2574 151.037C24.2993 151.586 24.2583 152.137 24.1359 152.673C24.0162 152.137 23.9753 151.586 24.0143 151.037C24.0143 150.752 24.0143 150.486 24.0143 150.257V150.145H24.1172C24.4177 150.124 24.7192 150.162 25.0053 150.257Z" fill="#E0E0E0"/>
<path d="M31.5531 150.257C30.4685 150.419 29.3659 150.419 28.2812 150.257C29.3659 150.095 30.4685 150.095 31.5531 150.257Z" fill="#E0E0E0"/>
<path d="M35.1833 153.173C35.0612 152.637 35.0203 152.086 35.0618 151.537C35.0618 151.014 35.0618 150.551 35.1086 150.257L35.1833 150.332C34.959 150.332 34.8281 150.285 34.8281 150.257C34.8281 150.229 34.959 150.201 35.1833 150.182H35.2488V150.261C35.2768 150.556 35.2955 151.019 35.2955 151.542C35.3369 152.088 35.2991 152.638 35.1833 153.173Z" fill="#E0E0E0"/>
<path d="M35.1762 159.717C35.0142 158.632 35.0142 157.53 35.1762 156.445C35.3382 157.53 35.3382 158.632 35.1762 159.717Z" fill="#E0E0E0"/>
<path d="M35.6731 160.745H34.4531V161.965H35.6731V160.745Z" fill="#E0E0E0"/>
<path d="M35.6731 149.345H34.4531V150.565H35.6731V149.345Z" fill="#E0E0E0"/>
<path d="M24.7668 160.745H23.5469V161.965H24.7668V160.745Z" fill="#E0E0E0"/>
<path d="M24.7668 149.644H23.5469V150.864H24.7668V149.644Z" fill="#E0E0E0"/>
<path d="M31.9062 183.466C32.9909 183.304 34.0935 183.304 35.1781 183.466C34.0935 183.628 32.9909 183.628 31.9062 183.466Z" fill="#407BFF"/>
<path d="M25.3672 183.466C26.4518 183.304 27.5545 183.304 28.6391 183.466C27.5545 183.628 26.4518 183.628 25.3672 183.466Z" fill="#407BFF"/>
<path d="M24.1528 178.129C24.3148 179.213 24.3148 180.316 24.1528 181.4C23.9907 180.316 23.9907 179.213 24.1528 178.129Z" fill="#407BFF"/>
<path d="M25.0053 172.44C24.7293 172.529 24.4392 172.565 24.1499 172.548L24.2574 172.44C24.2574 172.669 24.2574 172.936 24.2574 173.221C24.2993 173.769 24.2583 174.321 24.1359 174.857C24.0162 174.32 23.9753 173.769 24.0143 173.221C24.0143 172.936 24.0143 172.669 24.0143 172.44V172.328H24.1172C24.4177 172.308 24.7192 172.346 25.0053 172.44Z" fill="#407BFF"/>
<path d="M31.5531 172.44C30.4685 172.602 29.3659 172.602 28.2812 172.44C29.3659 172.278 30.4685 172.278 31.5531 172.44Z" fill="#407BFF"/>
<path d="M35.1833 175.357C35.0612 174.821 35.0203 174.269 35.0618 173.721C35.0618 173.197 35.0618 172.734 35.1086 172.44L35.1833 172.515C34.959 172.515 34.8281 172.468 34.8281 172.44C34.8281 172.412 34.959 172.384 35.1833 172.365H35.2488V172.445C35.2768 172.739 35.2955 173.202 35.2955 173.725C35.3369 174.272 35.2991 174.821 35.1833 175.357Z" fill="#407BFF"/>
<path d="M35.1762 181.901C35.0142 180.816 35.0142 179.713 35.1762 178.629C35.3382 179.713 35.3382 180.816 35.1762 181.901Z" fill="#407BFF"/>
<path d="M35.6731 182.929H34.4531V184.149H35.6731V182.929Z" fill="#407BFF"/>
<path d="M35.6731 171.529H34.4531V172.749H35.6731V171.529Z" fill="#407BFF"/>
<path d="M24.7668 182.929H23.5469V184.149H24.7668V182.929Z" fill="#407BFF"/>
<path d="M24.7668 171.828H23.5469V173.048H24.7668V171.828Z" fill="#407BFF"/>
<path d="M59.6873 128.447C59.6873 128.508 55.2702 128.56 49.8202 128.56C44.3702 128.56 39.9531 128.508 39.9531 128.447C39.9531 128.387 44.3702 128.335 49.8202 128.335C55.2702 128.335 59.6873 128.387 59.6873 128.447Z" fill="#407BFF"/>
<path d="M75.425 132.5C75.425 132.561 67.479 132.612 57.6914 132.612C47.9038 132.612 39.9531 132.561 39.9531 132.5C39.9531 132.439 47.8991 132.388 57.6914 132.388C67.4837 132.388 75.425 132.434 75.425 132.5Z" fill="#263238"/>
<path d="M75.009 135.393C75.009 135.454 67.1612 135.505 57.4811 135.505C47.801 135.505 39.9531 135.454 39.9531 135.393C39.9531 135.332 47.801 135.281 57.4811 135.281C67.1612 135.281 75.009 135.328 75.009 135.393Z" fill="#263238"/>
<path d="M60.6501 138.151C60.6501 138.212 56.0181 138.263 50.3016 138.263C44.5852 138.263 39.9531 138.212 39.9531 138.151C39.9531 138.09 44.5852 138.039 50.3016 138.039C56.0181 138.039 60.6501 138.09 60.6501 138.151Z" fill="#263238"/>
<path d="M59.6873 173.398C59.6873 173.464 55.2702 173.51 49.8202 173.51C44.3702 173.51 39.9531 173.464 39.9531 173.398C39.9531 173.333 44.3702 173.286 49.8202 173.286C55.2702 173.286 59.6873 173.338 59.6873 173.398Z" fill="#407BFF"/>
<path d="M75.425 177.451C75.425 177.512 67.479 177.563 57.6914 177.563C47.9038 177.563 39.9531 177.512 39.9531 177.451C39.9531 177.39 47.8991 177.339 57.6914 177.339C67.4837 177.339 75.425 177.39 75.425 177.451Z" fill="#263238"/>
<path d="M75.009 180.344C75.009 180.405 67.1612 180.456 57.4811 180.456C47.801 180.456 39.9531 180.405 39.9531 180.344C39.9531 180.283 47.801 180.232 57.4811 180.232C67.1612 180.232 75.009 180.279 75.009 180.344Z" fill="#263238"/>
<path d="M60.6501 183.102C60.6501 183.163 56.0181 183.214 50.3016 183.214C44.5852 183.214 39.9531 183.163 39.9531 183.102C39.9531 183.041 44.5852 182.99 50.3016 182.99C56.0181 182.99 60.6501 183.041 60.6501 183.102Z" fill="#263238"/>
<path d="M22.9375 53.2407H23.0637H23.4236L24.7464 53.208L24.709 53.2454C24.709 52.9509 24.709 52.6331 24.709 52.2872C24.709 52.1096 24.709 51.9413 24.709 51.731C24.7315 51.6255 24.7864 51.5296 24.866 51.4567C24.9456 51.3838 25.0459 51.3375 25.153 51.3243C25.368 51.3243 25.555 51.3243 25.7887 51.3243C25.9101 51.3452 26.0202 51.4082 26.0997 51.5023C26.1792 51.5963 26.223 51.7154 26.2234 51.8385C26.2234 52.3059 26.2234 52.7733 26.2234 53.2407L26.1626 53.18H27.8313L27.7705 53.2454C27.7705 52.5723 27.7705 51.8759 27.7705 51.1654C27.7705 50.9831 27.7705 50.8102 27.7705 50.6326C27.7613 50.5538 27.7353 50.478 27.6942 50.4103C27.653 50.3425 27.5978 50.2844 27.5322 50.24L26.803 49.5201L26.1019 48.8237L25.7607 48.4872C25.6391 48.375 25.5503 48.2581 25.4148 48.2301C25.3495 48.2114 25.2808 48.2085 25.2142 48.2215C25.1475 48.2345 25.085 48.263 25.0315 48.3049C24.9287 48.389 24.8212 48.5105 24.7183 48.6087L24.1201 49.2116C23.7414 49.6043 23.3488 49.9642 23.0637 50.3007C22.9822 50.4971 22.9532 50.7114 22.9796 50.9224V51.5113C22.9796 51.8712 22.9796 52.1891 22.9796 52.4461C22.9796 52.7032 22.9796 52.8855 22.9796 53.0491C22.9796 53.2127 22.9796 53.2641 22.9796 53.2688C22.9729 53.202 22.9729 53.1346 22.9796 53.0678C22.9796 52.9089 22.9796 52.7126 22.9796 52.4742C22.9796 52.2358 22.9796 51.8806 22.9562 51.5394C22.9562 51.3524 22.9562 51.1514 22.9562 50.9411C22.9562 50.8336 22.9562 50.7261 22.9562 50.6139C22.9528 50.4911 22.9835 50.3697 23.045 50.2633C23.3535 49.8847 23.7228 49.5482 24.106 49.1462C24.2977 48.9499 24.494 48.7442 24.6996 48.5386C24.8071 48.4311 24.8913 48.3282 25.0222 48.2161C25.0886 48.1674 25.1648 48.1338 25.2455 48.1177C25.3263 48.1015 25.4095 48.1032 25.4896 48.1226C25.6466 48.18 25.7855 48.2784 25.8915 48.4077L26.2327 48.7442L26.9385 49.436L27.6724 50.1558C27.7416 50.2161 27.8042 50.2835 27.8593 50.3568C27.9118 50.4414 27.9424 50.5378 27.9482 50.6372C27.9482 50.8149 27.9482 50.9925 27.9482 51.1701C27.9482 51.8852 27.9482 52.5723 27.9482 53.2501V53.3155H27.8827H26.2141H26.1533V53.2548C26.1533 52.7873 26.1533 52.3199 26.1533 51.8525C26.1557 51.7555 26.123 51.661 26.0611 51.5862C25.9993 51.5115 25.9125 51.4616 25.8168 51.4459C25.6251 51.4459 25.4008 51.4459 25.2138 51.4459C25.1269 51.4533 25.0449 51.4888 24.98 51.547C24.915 51.6052 24.8708 51.6829 24.8539 51.7684C24.8539 51.9367 24.8539 52.133 24.8539 52.3059V53.3015H24.8165H23.4704H23.1198C23.0555 53.2941 22.9934 53.2734 22.9375 53.2407Z" fill="#407BFF"/>
<path d="M22.3508 67.4547H22.2386H21.9021H20.6167L15.8865 67.4968H8.87534H4.7294H3.64501C3.28757 67.4719 2.92842 67.5002 2.57931 67.5809C2.23801 67.6821 1.93007 67.8729 1.68757 68.1335C1.44506 68.3941 1.27684 68.7149 1.20044 69.0626C1.15557 69.43 1.1415 69.8006 1.15837 70.1704C1.15837 70.549 1.15837 70.9229 1.15837 71.2921V73.4843C1.15837 74.9239 1.15837 76.2888 1.15837 77.6303C1.15837 80.2665 1.15838 82.6456 1.13033 84.6414C1.10229 86.6373 1.10229 88.2358 1.09294 89.3716C1.09294 89.9138 1.09294 90.3439 1.06957 90.657C1.06957 90.791 1.06957 90.9032 1.06957 90.9936C1.06957 91.0683 1.06957 91.1057 1.06957 91.1057C1.06354 91.0686 1.06354 91.0307 1.06957 90.9936C1.06957 90.9063 1.06957 90.7941 1.06957 90.657C1.06957 90.3439 1.06956 89.9138 1.04619 89.3716C1.04619 88.2358 1.0462 86.6233 1.00881 84.6414C0.971414 82.6596 1.00881 80.2571 1.00881 77.6303C1.00881 76.3075 1.00881 74.9239 1.00881 73.4843V70.1704C0.990037 69.7833 1.00568 69.3954 1.05554 69.0112C1.14144 68.6203 1.33078 68.2596 1.60376 67.9669C1.87675 67.6741 2.22336 67.4601 2.60735 67.3472C2.97769 67.2602 3.35912 67.2303 3.73849 67.2584H8.96883L15.98 67.2864L20.7102 67.3238L21.9956 67.3472H22.3321C22.3422 67.3823 22.3484 67.4183 22.3508 67.4547Z" fill="#407BFF"/>
<path d="M23.5708 67.4173C23.5708 67.5634 23.5275 67.7062 23.4463 67.8276C23.3652 67.9491 23.2498 68.0437 23.1149 68.0996C22.9799 68.1555 22.8314 68.1702 22.6882 68.1417C22.5449 68.1132 22.4133 68.0428 22.3101 67.9396C22.2068 67.8363 22.1364 67.7047 22.1079 67.5614C22.0794 67.4182 22.0941 67.2697 22.15 67.1347C22.2059 66.9998 22.3005 66.8844 22.422 66.8033C22.5434 66.7221 22.6862 66.6788 22.8323 66.6788C23.0281 66.6788 23.216 66.7566 23.3545 66.8951C23.493 67.0336 23.5708 67.2215 23.5708 67.4173Z" fill="#407BFF"/>
<path d="M37.0282 73.4376C37.0048 73.4376 37.0048 73.2693 36.9253 72.9702C36.8093 72.5782 36.5679 72.235 36.2382 71.9933C35.9976 71.8191 35.7179 71.7067 35.4237 71.666C35.1295 71.6252 34.8298 71.6574 34.5509 71.7596C34.2124 71.8848 33.9203 72.1108 33.7141 72.407C33.5079 72.7033 33.3973 73.0556 33.3973 73.4165C33.3973 73.7775 33.5079 74.1298 33.7141 74.426C33.9203 74.7223 34.2124 74.9482 34.5509 75.0735C34.8295 75.1769 35.1295 75.2097 35.424 75.169C35.7184 75.1282 35.9982 75.0151 36.2382 74.8398C36.5679 74.598 36.8093 74.2549 36.9253 73.8629C37.0048 73.5825 37.0048 73.3955 37.0282 73.3955C37.0701 73.5485 37.0701 73.7099 37.0282 73.8629C36.9377 74.2945 36.6977 74.6802 36.3504 74.952C36.0912 75.159 35.7832 75.2961 35.4558 75.3501C35.1285 75.4041 34.7928 75.3732 34.4808 75.2605C34.0936 75.1243 33.7582 74.8714 33.5209 74.5365C33.2837 74.2016 33.1562 73.8013 33.1562 73.3908C33.1562 72.9804 33.2837 72.5801 33.5209 72.2452C33.7582 71.9103 34.0936 71.6573 34.4808 71.5212C34.7932 71.4111 35.1283 71.3816 35.4552 71.4356C35.782 71.4895 36.0899 71.625 36.3504 71.8297C36.6977 72.1014 36.9377 72.4872 37.0282 72.9187C37.0787 73.088 37.0787 73.2683 37.0282 73.4376Z" fill="#407BFF"/>
<path d="M135.376 192.436L80.4642 192.403C77.2928 192.402 74.2516 191.141 72.0095 188.898C69.7674 186.655 68.5078 183.614 68.5078 180.442L68.5359 42.7706C68.5365 41.1995 68.8466 39.6438 69.4486 38.1926C70.0505 36.7413 70.9325 35.4229 72.0441 34.3126C73.1558 33.2023 74.4752 32.3218 75.9272 31.7216C77.3791 31.1213 78.9351 30.813 80.5063 30.8142L135.418 30.8469C138.589 30.8482 141.63 32.1089 143.873 34.3519C146.115 36.5949 147.374 39.6365 147.374 42.808L147.346 180.479C147.346 182.051 147.035 183.606 146.433 185.058C145.831 186.509 144.95 187.827 143.838 188.938C142.726 190.048 141.407 190.928 139.955 191.529C138.503 192.129 136.947 192.437 135.376 192.436Z" fill="#263238"/>
<path d="M135.361 35.7127H124.714C124.013 35.7286 123.347 36.0221 122.862 36.5287C122.377 37.0352 122.114 37.7134 122.129 38.4143V40.3448C122.137 40.6921 122.077 41.0378 121.952 41.3619C121.827 41.6859 121.638 41.982 121.398 42.2331C121.158 42.4842 120.871 42.6853 120.552 42.8249C120.234 42.9644 119.891 43.0397 119.544 43.0464H98.7909C98.09 43.0305 97.4241 42.737 96.9395 42.2304C96.4548 41.7239 96.1911 41.0457 96.2061 40.3448V38.3957C96.2212 37.6935 95.9569 37.0141 95.4714 36.5067C94.9859 35.9992 94.3188 35.7053 93.6167 35.6893H80.5572C79.4566 35.6887 78.3667 35.9049 77.3497 36.3255C76.3326 36.7461 75.4084 37.3629 74.6298 38.1407C73.8511 38.9185 73.2333 39.842 72.8115 40.8586C72.3898 41.8751 72.1724 42.9648 72.1718 44.0654L72.1484 178.437C72.1478 179.537 72.3639 180.626 72.7842 181.643C73.2046 182.659 73.8211 183.583 74.5984 184.361C75.3758 185.139 76.2988 185.757 77.3148 186.178C78.3308 186.6 79.4198 186.817 80.5198 186.818L135.324 186.846C136.424 186.847 137.514 186.631 138.53 186.211C139.547 185.791 140.471 185.175 141.249 184.397C142.028 183.62 142.645 182.696 143.066 181.68C143.488 180.664 143.705 179.574 143.705 178.474L143.733 44.0981C143.733 41.8766 142.851 39.7458 141.281 38.1737C139.712 36.6015 137.583 35.7164 135.361 35.7127Z" fill="white"/>
<path d="M136.989 49.2816C136.989 49.319 135.586 49.3611 133.899 49.3751C132.212 49.3891 130.805 49.3751 130.805 49.333C130.805 49.291 132.207 49.2582 133.894 49.2442C135.582 49.2302 136.989 49.2489 136.989 49.2816Z" fill="#263238"/>
<path d="M136.989 50.8662C136.989 50.9036 135.586 50.941 133.894 50.955C132.202 50.969 130.805 50.955 130.805 50.9176C130.805 50.8802 132.207 50.8381 133.894 50.8241C135.582 50.8101 136.989 50.8288 136.989 50.8662Z" fill="#263238"/>
<path d="M136.993 52.446C136.993 52.4834 135.591 52.5255 133.899 52.5395C132.207 52.5535 130.805 52.5395 130.805 52.4975C130.805 52.4554 132.207 52.4227 133.899 52.4086C135.591 52.3946 136.993 52.4133 136.993 52.446Z" fill="#263238"/>
<path d="M80.7188 54.2409H80.8496H81.2049L82.5276 54.2082L82.4902 54.2456C82.4902 53.9512 82.4902 53.6333 82.4902 53.2874C82.4902 53.1098 82.4902 52.9415 82.4902 52.7359C82.5108 52.6294 82.565 52.5323 82.645 52.4591C82.725 52.3859 82.8264 52.3403 82.9343 52.3292C83.1493 52.3292 83.3363 52.3292 83.5653 52.3292C83.6867 52.3482 83.7972 52.41 83.877 52.5035C83.9567 52.5969 84.0003 52.7159 84 52.8387C84 53.3061 84 53.7735 84 54.2409L83.9392 54.1802H85.6032L85.5424 54.2409C85.5424 53.5726 85.5424 52.8761 85.5424 52.1656C85.5424 51.988 85.5424 51.8151 85.5424 51.6375C85.5354 51.5587 85.5107 51.4825 85.4702 51.4146C85.4298 51.3466 85.3746 51.2886 85.3087 51.2448L84.5562 50.5017L83.8551 49.8099L83.5139 49.4734C83.4243 49.3576 83.3046 49.2687 83.168 49.2163C83.1027 49.198 83.034 49.1952 82.9675 49.2082C82.9009 49.2212 82.8383 49.2496 82.7847 49.2911C82.6866 49.3752 82.5791 49.4967 82.4762 49.5949L81.8779 50.1978C81.504 50.5905 81.1114 50.9457 80.8263 51.2822C80.7423 51.478 80.7132 51.6929 80.7421 51.9039V52.4928C80.7421 52.8527 80.7421 53.1659 80.7421 53.4277C80.7421 53.6894 80.7421 53.867 80.7421 54.0306C80.7487 54.1037 80.7487 54.1772 80.7421 54.2503C80.7421 54.2503 80.7421 54.1849 80.7421 54.0493C80.7421 53.9138 80.7421 53.6941 80.7421 53.4557C80.7421 53.2173 80.7421 52.8621 80.7421 52.5209C80.7421 52.3292 80.7421 52.1329 80.7421 51.9226C80.7421 51.8151 80.7421 51.7076 80.7421 51.5954C80.7426 51.4725 80.7748 51.3517 80.8356 51.2448C81.1441 50.8662 81.5134 50.5344 81.892 50.1324L82.4809 49.5248C82.5884 49.4173 82.6772 49.3144 82.8034 49.2069C82.8699 49.1583 82.9459 49.1244 83.0265 49.1075C83.1071 49.0905 83.1904 49.091 83.2708 49.1088C83.4262 49.1669 83.5633 49.2653 83.6681 49.3939L84.0093 49.7304C84.243 49.9548 84.4767 50.1978 84.7151 50.4222L85.4443 51.1373C85.5135 51.1975 85.5762 51.2649 85.6313 51.3383C85.6857 51.422 85.7164 51.519 85.7201 51.6188C85.7201 51.7964 85.7201 51.974 85.7201 52.1516C85.7201 52.8621 85.7201 53.5539 85.7201 54.2269V54.2924H85.6593H83.9906H83.9299V54.2409C83.9299 53.7735 83.9299 53.3061 83.9299 52.8387C83.9343 52.7412 83.9023 52.6456 83.8401 52.5704C83.7779 52.4952 83.6899 52.4459 83.5933 52.4321C83.4017 52.4321 83.1773 52.4321 82.9904 52.4321C82.904 52.441 82.8227 52.477 82.7581 52.5349C82.6934 52.5928 82.6487 52.6697 82.6305 52.7546C82.6305 52.9229 82.6305 53.1192 82.6305 53.2874V54.283H82.5931H81.2516H80.901L80.7188 54.2409Z" fill="#263238"/>
<path d="M132.169 62.6169H82.7169C80.2413 62.6169 78.2344 64.6238 78.2344 67.0994V68.7587C78.2344 71.2343 80.2413 73.2412 82.7169 73.2412H132.169C134.645 73.2412 136.652 71.2343 136.652 68.7587V67.0994C136.652 64.6238 134.645 62.6169 132.169 62.6169Z" fill="#F5F5F5"/>
<path d="M132.169 73.2458L132.506 73.2178C132.832 73.1853 133.154 73.1227 133.469 73.0308C133.975 72.8654 134.449 72.6157 134.871 72.2923C135.448 71.8468 135.906 71.2656 136.203 70.6003C136.382 70.2074 136.5 69.7898 136.554 69.3616C136.597 68.8862 136.611 68.4085 136.596 67.9314C136.61 67.4175 136.583 66.9033 136.516 66.3936C136.366 65.5045 135.948 64.6827 135.317 64.0385C134.686 63.3943 133.873 62.9585 132.987 62.7898C132.315 62.7062 131.636 62.6796 130.959 62.7104H128.799L82.7033 62.7431C81.6068 62.7417 80.5499 63.153 79.7428 63.8952C78.9357 64.6373 78.4374 65.6561 78.347 66.7488C78.3096 67.2817 78.347 67.8379 78.347 68.3801C78.3184 68.912 78.3736 69.4452 78.5106 69.9599C78.7966 70.9748 79.4388 71.8527 80.3195 72.4325C80.7459 72.719 81.2211 72.9249 81.7217 73.0402C82.228 73.1389 82.7443 73.1766 83.2595 73.1524H92.3413L113.066 73.1757L127.037 73.2131H130.837H131.824C132.048 73.2131 132.16 73.2131 132.16 73.2131H131.824H130.837H127.037L113.066 73.2458L92.3413 73.2692H83.2688C82.7379 73.2928 82.206 73.2536 81.6843 73.1524C81.1545 73.0344 80.6508 72.8206 80.198 72.5214C79.2749 71.91 78.6016 70.9879 78.3003 69.9225C78.1577 69.3895 78.0978 68.8378 78.1226 68.2866C78.1226 67.7397 78.1226 67.2022 78.1226 66.6366C78.2209 65.4901 78.7453 64.4221 79.5925 63.6433C80.4396 62.8645 81.5479 62.4316 82.6986 62.4299L128.795 62.4626H130.954C131.641 62.4342 132.329 62.4623 133.011 62.5468C133.635 62.6698 134.227 62.9221 134.748 63.2876C135.268 63.6531 135.707 64.1236 136.035 64.6688C136.332 65.1609 136.531 65.705 136.624 66.2721C136.688 66.7945 136.708 67.3214 136.685 67.8472C136.699 68.3293 136.681 68.8117 136.633 69.2915C136.469 70.4719 135.844 71.5391 134.894 72.2596C134.201 72.7952 133.362 73.1081 132.487 73.157L132.169 73.2458Z" fill="#263238"/>
<path d="M133.071 67.6789C133.071 67.6789 133.071 67.506 132.968 67.2115C132.853 66.8049 132.605 66.4491 132.262 66.2019C131.99 66.0001 131.668 65.8779 131.33 65.8488C130.993 65.8197 130.654 65.8849 130.352 66.0371C130.049 66.1893 129.795 66.4225 129.617 66.7108C129.44 66.999 129.345 67.331 129.345 67.6696C129.345 68.0082 129.44 68.3401 129.617 68.6284C129.795 68.9167 130.049 69.1499 130.352 69.3021C130.654 69.4543 130.993 69.5195 131.33 69.4904C131.668 69.4613 131.99 69.339 132.262 69.1373C132.605 68.8901 132.853 68.5343 132.968 68.1277C133.052 67.8425 133.052 67.6602 133.071 67.6602C133.089 67.6602 133.071 67.7023 133.071 67.7818C133.075 67.9026 133.064 68.0236 133.038 68.1417C132.944 68.5815 132.697 68.9739 132.342 69.2494C132.078 69.4585 131.765 69.5969 131.433 69.6517C131.101 69.7065 130.761 69.6758 130.444 69.5626C130.051 69.4229 129.711 69.165 129.471 68.8244C129.231 68.4837 129.102 68.0771 129.102 67.6602C129.102 67.2434 129.231 66.8367 129.471 66.4961C129.711 66.1555 130.051 65.8976 130.444 65.7579C130.761 65.6454 131.101 65.6146 131.432 65.6686C131.764 65.7225 132.077 65.8593 132.342 66.0664C132.697 66.3442 132.943 66.7379 133.038 67.1788C133.064 67.2953 133.075 67.4147 133.071 67.534C133.08 67.6306 133.08 67.6789 133.071 67.6789Z" fill="#263238"/>
<path d="M134.139 70.9976C133.461 70.478 132.877 69.8456 132.414 69.1279C132.772 69.3596 133.088 69.6504 133.349 69.988C133.667 70.2781 133.934 70.6194 134.139 70.9976Z" fill="#263238"/>
<path d="M86.1283 66.8611H85.1094V66.59H87.5072V66.8611H86.4649V69.5534H86.1517L86.1283 66.8611Z" fill="#E0E0E0"/>
<path d="M89.6235 68.5437H87.7538C87.7598 68.6522 87.7871 68.7585 87.8344 68.8563C87.8816 68.9542 87.9478 69.0417 88.0291 69.1139C88.1104 69.186 88.2051 69.2414 88.3079 69.2767C88.4107 69.312 88.5194 69.3266 88.6279 69.3196C88.7563 69.3237 88.884 69.2994 89.0019 69.2485C89.1199 69.1976 89.2252 69.1214 89.3103 69.0252L89.4786 69.2215C89.3188 69.3905 89.1126 69.5084 88.8859 69.5604C88.6593 69.6124 88.4223 69.5961 88.2048 69.5136C87.9874 69.4312 87.7992 69.2862 87.6641 69.0969C87.5289 68.9077 87.4528 68.6827 87.4453 68.4502C87.4453 68.1626 87.5596 67.8868 87.7629 67.6835C87.9663 67.4801 88.2421 67.3658 88.5297 67.3658C88.8173 67.3658 89.0931 67.4801 89.2965 67.6835C89.4999 67.8868 89.6141 68.1626 89.6141 68.4502C89.6141 68.4502 89.6235 68.5063 89.6235 68.5437ZM87.7538 68.3194H89.3337C89.3337 68.1099 89.2504 67.9089 89.1023 67.7608C88.9542 67.6127 88.7532 67.5294 88.5437 67.5294C88.3342 67.5294 88.1333 67.6127 87.9852 67.7608C87.837 67.9089 87.7538 68.1099 87.7538 68.3194Z" fill="#E0E0E0"/>
<path d="M91.5934 69.5626L90.8829 68.6278L90.1725 69.5626H89.8359L90.7147 68.4174L89.878 67.3284H90.2145L90.8829 68.2024L91.556 67.3284H91.8832L91.0465 68.4128L91.9346 69.5579L91.5934 69.5626Z" fill="#E0E0E0"/>
<path d="M93.6129 69.4272C93.4813 69.5347 93.3154 69.5911 93.1455 69.5861C93.0578 69.5957 92.9691 69.5855 92.8859 69.5563C92.8027 69.527 92.7271 69.4795 92.6648 69.4171C92.6024 69.3548 92.5548 69.2792 92.5256 69.196C92.4964 69.1128 92.4862 69.0241 92.4958 68.9364V67.5902H92.1172V67.3285H92.5145V66.8611H92.8136V67.3285H93.4914V67.5856H92.8136V68.913C92.8055 68.9667 92.8097 69.0215 92.8261 69.0732C92.8424 69.125 92.8704 69.1723 92.9078 69.2116C92.9453 69.2508 92.9912 69.281 93.0421 69.2997C93.0931 69.3185 93.1476 69.3253 93.2016 69.3197C93.3206 69.3228 93.4367 69.283 93.5288 69.2075L93.6129 69.4272Z" fill="#E0E0E0"/>
<path d="M93.4915 81.9865H80.7031V94.7748H93.4915V81.9865Z" fill="#407BFF"/>
<path d="M118.083 83.3654C118.083 83.4262 113.806 83.4729 108.534 83.4729C103.261 83.4729 98.9844 83.4262 98.9844 83.3654C98.9844 83.3047 103.261 83.2579 108.534 83.2579C113.806 83.2579 118.083 83.3047 118.083 83.3654Z" fill="#407BFF"/>
<path d="M133.311 87.2822C133.311 87.3429 125.627 87.3944 116.148 87.3944C106.669 87.3944 98.9844 87.3429 98.9844 87.2822C98.9844 87.2214 106.669 87.1747 116.148 87.1747C125.627 87.1747 133.311 87.2261 133.311 87.2822Z" fill="#263238"/>
<path d="M132.909 90.082C132.909 90.1428 125.314 90.1942 115.947 90.1942C106.58 90.1942 98.9844 90.1428 98.9844 90.082C98.9844 90.0212 106.575 89.9745 115.947 89.9745C125.318 89.9745 132.909 90.0212 132.909 90.082Z" fill="#263238"/>
<path d="M119.013 92.7556C119.013 92.8117 114.53 92.8631 109.001 92.8631C103.472 92.8631 98.9844 92.8117 98.9844 92.7556C98.9844 92.6995 103.467 92.6434 109.001 92.6434C114.535 92.6434 119.013 92.6948 119.013 92.7556Z" fill="#263238"/>
<path d="M93.4915 103.291H80.7031V116.08H93.4915V103.291Z" fill="#407BFF"/>
<path d="M118.083 104.67C118.083 104.726 113.806 104.777 108.534 104.777C103.261 104.777 98.9844 104.726 98.9844 104.67C98.9844 104.614 103.261 104.558 108.534 104.558C113.806 104.558 118.083 104.609 118.083 104.67Z" fill="#407BFF"/>
<path d="M133.311 108.587C133.311 108.648 125.627 108.694 116.148 108.694C106.669 108.694 98.9844 108.648 98.9844 108.587C98.9844 108.526 106.669 108.479 116.148 108.479C125.627 108.479 133.311 108.526 133.311 108.587Z" fill="#263238"/>
<path d="M132.909 111.387C132.909 111.447 125.314 111.494 115.947 111.494C106.58 111.494 98.9844 111.447 98.9844 111.387C98.9844 111.326 106.575 111.265 115.951 111.265C125.328 111.265 132.909 111.326 132.909 111.387Z" fill="#263238"/>
<path d="M119.013 114.07C119.013 114.13 114.53 114.182 109.001 114.182C103.472 114.182 98.9844 114.13 98.9844 114.07C98.9844 114.009 103.467 113.962 109.001 113.962C114.535 113.962 119.013 113.995 119.013 114.07Z" fill="#263238"/>
<path d="M93.4915 124.596H80.7031V137.384H93.4915V124.596Z" fill="#407BFF"/>
<path d="M118.083 125.97C118.083 126.031 113.806 126.082 108.534 126.082C103.261 126.082 98.9844 126.031 98.9844 125.97C98.9844 125.909 103.261 125.862 108.534 125.862C113.806 125.862 118.083 125.909 118.083 125.97Z" fill="#407BFF"/>
<path d="M133.311 129.892C133.311 129.952 125.627 129.999 116.148 129.999C106.669 129.999 98.9844 129.952 98.9844 129.892C98.9844 129.831 106.669 129.784 116.148 129.784C125.627 129.784 133.311 129.831 133.311 129.892Z" fill="#263238"/>
<path d="M132.909 132.691C132.909 132.752 125.314 132.799 115.947 132.799C106.58 132.799 98.9844 132.752 98.9844 132.691C98.9844 132.63 106.575 132.584 115.947 132.584C125.318 132.584 132.909 132.63 132.909 132.691Z" fill="#263238"/>
<path d="M119.013 135.36C119.013 135.421 114.53 135.468 109.001 135.468C103.472 135.468 98.9844 135.421 98.9844 135.36C98.9844 135.299 103.467 135.253 109.001 135.253C114.535 135.253 119.013 135.299 119.013 135.36Z" fill="#263238"/>
<path d="M93.4915 145.9H80.7031V158.689H93.4915V145.9Z" fill="#407BFF"/>
<path d="M118.083 147.256C118.083 147.317 113.806 147.363 108.534 147.363C103.261 147.363 98.9844 147.317 98.9844 147.256C98.9844 147.195 103.261 147.148 108.534 147.148C113.806 147.148 118.083 147.214 118.083 147.256Z" fill="#455A64"/>
<path d="M133.311 151.196C133.311 151.252 125.627 151.304 116.148 151.304C106.669 151.304 98.9844 151.252 98.9844 151.196C98.9844 151.14 106.669 151.084 116.148 151.084C125.627 151.084 133.311 151.135 133.311 151.196Z" fill="#263238"/>
<path d="M132.909 153.996C132.909 154.052 125.314 154.103 115.947 154.103C106.58 154.103 98.9844 154.052 98.9844 153.996C98.9844 153.94 106.575 153.884 115.947 153.884C125.318 153.884 132.909 153.935 132.909 153.996Z" fill="#263238"/>
<path d="M119.013 156.665C119.013 156.726 114.53 156.772 109.001 156.772C103.472 156.772 98.9844 156.726 98.9844 156.665C98.9844 156.604 103.467 156.557 109.001 156.557C114.535 156.557 119.013 156.604 119.013 156.665Z" fill="#263238"/>
<path d="M93.4915 167.205H80.7031V179.993H93.4915V167.205Z" fill="#E0E0E0"/>
<path d="M118.083 168.579C118.083 168.64 113.806 168.687 108.534 168.687C103.261 168.687 98.9844 168.64 98.9844 168.579C98.9844 168.518 103.261 168.472 108.534 168.472C113.806 168.472 118.083 168.518 118.083 168.579Z" fill="#E0E0E0"/>
<path d="M133.311 172.496C133.311 172.557 125.627 172.608 116.148 172.608C106.669 172.608 98.9844 172.557 98.9844 172.496C98.9844 172.435 106.669 172.389 116.148 172.389C125.627 172.389 133.311 172.44 133.311 172.496Z" fill="#EBEBEB"/>
<path d="M132.909 175.301C132.909 175.361 125.314 175.413 115.947 175.413C106.58 175.413 98.9844 175.361 98.9844 175.301C98.9844 175.24 106.575 175.193 115.947 175.193C125.318 175.193 132.909 175.235 132.909 175.301Z" fill="#EBEBEB"/>
<path d="M119.013 177.969C119.013 178.026 114.53 178.077 109.001 178.077C103.472 178.077 98.9844 178.026 98.9844 177.969C98.9844 177.913 103.467 177.857 109.001 177.857C114.535 177.857 119.013 177.909 119.013 177.969Z" fill="#EBEBEB"/>
<g opacity="0.3">
<path d="M93.4915 145.9H80.7031V158.689H93.4915V145.9Z" fill="black"/>
</g>
<g opacity="0.3">
<path d="M93.4915 103.291H80.7031V116.08H93.4915V103.291Z" fill="black"/>
</g>
<path d="M110.179 0.600708H40.7031V28.8184H110.179V0.600708Z" fill="white"/>
<path d="M110.174 28.8184C110.174 28.8184 110.174 28.6454 110.174 28.3136C110.174 27.9817 110.174 27.4909 110.174 26.8506C110.174 25.5605 110.174 23.6722 110.174 21.2416C110.174 16.3712 110.151 9.32728 110.132 0.610052L110.207 0.684837L40.6934 0.70821L40.801 0.600705C40.801 10.4818 40.801 20.0217 40.801 28.8184L40.6981 28.7108L90.5102 28.7623L104.958 28.7903H108.828H109.828H108.837H104.991L90.5663 28.8184L40.6934 28.9259H40.5859V28.8184C40.5859 20.0217 40.5859 10.4818 40.5859 0.600705V0.488525H40.6934L110.16 0.521244H110.24V0.600705C110.24 9.33663 110.207 16.3992 110.198 21.279C110.198 23.7095 110.198 25.5979 110.198 26.8879C110.198 27.5236 110.198 28.0097 110.198 28.3369C110.198 28.6641 110.174 28.8184 110.174 28.8184Z" fill="#407BFF"/>
<path d="M40.7656 4.40539C40.7656 4.34463 56.2977 4.29321 75.4476 4.29321C94.5974 4.29321 110.134 4.34463 110.134 4.40539C110.134 4.46616 94.6068 4.5129 75.4476 4.5129C56.2884 4.5129 40.7656 4.46616 40.7656 4.40539Z" fill="#407BFF"/>
<g opacity="0.3">
<path d="M43.1767 3.20871C43.4555 3.20871 43.6815 2.9827 43.6815 2.7039C43.6815 2.42511 43.4555 2.1991 43.1767 2.1991C42.8979 2.1991 42.6719 2.42511 42.6719 2.7039C42.6719 2.9827 42.8979 3.20871 43.1767 3.20871Z" fill="#407BFF"/>
</g>
<g opacity="0.3">
<path d="M45.4002 2.70405C45.4002 2.80389 45.3706 2.90149 45.3152 2.9845C45.2597 3.06751 45.1808 3.13222 45.0886 3.17042C44.9964 3.20863 44.8949 3.21863 44.7969 3.19915C44.699 3.17967 44.6091 3.13159 44.5385 3.061C44.4679 2.9904 44.4198 2.90045 44.4003 2.80253C44.3809 2.70461 44.3908 2.60311 44.429 2.51087C44.4672 2.41862 44.532 2.33979 44.615 2.28432C44.698 2.22885 44.7956 2.19924 44.8954 2.19924C44.9619 2.19862 45.0278 2.21125 45.0893 2.2364C45.1509 2.26154 45.2068 2.2987 45.2538 2.3457C45.3008 2.3927 45.3379 2.4486 45.3631 2.51013C45.3882 2.57166 45.4008 2.63758 45.4002 2.70405Z" fill="#407BFF"/>
</g>
<g opacity="0.3">
<path d="M47.1112 2.70402C47.1112 2.80387 47.0816 2.90146 47.0261 2.98448C46.9706 3.06749 46.8918 3.13219 46.7995 3.1704C46.7073 3.20861 46.6058 3.21861 46.5079 3.19913C46.41 3.17965 46.32 3.13157 46.2494 3.06097C46.1788 2.99038 46.1307 2.90043 46.1113 2.80251C46.0918 2.70458 46.1018 2.60308 46.14 2.51084C46.1782 2.4186 46.2429 2.33976 46.3259 2.28429C46.4089 2.22883 46.5065 2.19922 46.6064 2.19922C46.7402 2.19922 46.8686 2.2524 46.9633 2.34707C47.058 2.44174 47.1112 2.57014 47.1112 2.70402Z" fill="#407BFF"/>
</g>
<path d="M63.3895 8.99072H46.6094V25.7708H63.3895V8.99072Z" fill="#407BFF"/>
<g opacity="0.5">
<path d="M63.3895 8.9906H46.6094V25.7707H63.3895V8.9906Z" fill="white"/>
</g>
<path d="M105.368 13.4873C105.368 13.548 96.7346 13.5994 86.0823 13.5994C75.43 13.5994 66.7969 13.548 66.7969 13.4873C66.7969 13.4265 75.43 13.3798 86.0823 13.3798C96.7346 13.3798 105.368 13.4265 105.368 13.4873Z" fill="#407BFF"/>
<path d="M105.368 16.9087C105.368 16.9695 96.7346 17.0162 86.0823 17.0162C75.43 17.0162 66.7969 16.9695 66.7969 16.9087C66.7969 16.8479 75.43 16.7965 86.0823 16.7965C96.7346 16.7965 105.368 16.8479 105.368 16.9087Z" fill="#407BFF"/>
<path d="M91.6414 20.3255C91.5576 20.3357 91.4728 20.3357 91.389 20.3255H90.6645L88.0049 20.3629L79.227 20.3909L70.449 20.3629L67.7847 20.3255H67.0649C66.9811 20.3357 66.8963 20.3357 66.8125 20.3255C66.8963 20.3153 66.9811 20.3153 67.0649 20.3255H67.7847L70.449 20.2881L79.227 20.2554L88.0049 20.2881L90.6645 20.3255H91.389C91.4728 20.3153 91.5576 20.3153 91.6414 20.3255Z" fill="#407BFF"/>
</svg>
