<svg width="114" height="74" viewBox="0 0 114 74" fill="none" xmlns="http://www.w3.org/2000/svg">
<rect width="114" height="74" rx="8" fill="white"/>
<path d="M36.4385 55H35.2738L37.891 47.7273H39.1587L41.7759 55H40.6111L38.555 49.0483H38.4982L36.4385 55ZM36.6339 52.152H40.4123V53.0753H36.6339V52.152ZM44.4949 55.1065C44.0546 55.1065 43.6616 54.9941 43.316 54.7692C42.9727 54.5419 42.7028 54.2187 42.5063 53.7997C42.3122 53.3783 42.2151 52.8729 42.2151 52.2834C42.2151 51.6939 42.3134 51.1896 42.5099 50.7706C42.7087 50.3516 42.981 50.0308 43.3266 49.8082C43.6723 49.5857 44.0641 49.4744 44.502 49.4744C44.8406 49.4744 45.1128 49.5312 45.3188 49.6449C45.5271 49.7562 45.6881 49.8864 45.8018 50.0355C45.9178 50.1847 46.0077 50.3161 46.0716 50.4297H46.1356V47.7273H47.1974V55H46.1604V54.1513H46.0716C46.0077 54.2673 45.9154 54.3999 45.7947 54.549C45.6763 54.6982 45.5129 54.8284 45.3046 54.9396C45.0963 55.0509 44.8264 55.1065 44.4949 55.1065ZM44.7293 54.201C45.0347 54.201 45.2928 54.1205 45.5035 53.9595C45.7165 53.7962 45.8775 53.5701 45.9864 53.2812C46.0977 52.9924 46.1533 52.6562 46.1533 52.2727C46.1533 51.8939 46.0989 51.5625 45.99 51.2784C45.8811 50.9943 45.7213 50.773 45.5106 50.6143C45.2999 50.4557 45.0394 50.3764 44.7293 50.3764C44.4097 50.3764 44.1434 50.4593 43.9303 50.625C43.7172 50.7907 43.5563 51.0168 43.4474 51.3033C43.3408 51.5897 43.2876 51.9129 43.2876 52.2727C43.2876 52.6373 43.342 52.9652 43.4509 53.2564C43.5598 53.5476 43.7208 53.7784 43.9339 53.9489C44.1493 54.117 44.4144 54.201 44.7293 54.201ZM50.5547 55.1065C50.1144 55.1065 49.7214 54.9941 49.3757 54.7692C49.0325 54.5419 48.7626 54.2187 48.5661 53.7997C48.3719 53.3783 48.2749 52.8729 48.2749 52.2834C48.2749 51.6939 48.3731 51.1896 48.5696 50.7706C48.7685 50.3516 49.0407 50.0308 49.3864 49.8082C49.732 49.5857 50.1238 49.4744 50.5618 49.4744C50.9004 49.4744 51.1726 49.5312 51.3786 49.6449C51.5869 49.7562 51.7479 49.8864 51.8615 50.0355C51.9775 50.1847 52.0675 50.3161 52.1314 50.4297H52.1953V47.7273H53.2571V55H52.2202V54.1513H52.1314C52.0675 54.2673 51.9752 54.3999 51.8544 54.549C51.7361 54.6982 51.5727 54.8284 51.3644 54.9396C51.156 55.0509 50.8861 55.1065 50.5547 55.1065ZM50.7891 54.201C51.0945 54.201 51.3525 54.1205 51.5632 53.9595C51.7763 53.7962 51.9373 53.5701 52.0462 53.2812C52.1575 52.9924 52.2131 52.6562 52.2131 52.2727C52.2131 51.8939 52.1586 51.5625 52.0497 51.2784C51.9408 50.9943 51.781 50.773 51.5703 50.6143C51.3596 50.4557 51.0992 50.3764 50.7891 50.3764C50.4695 50.3764 50.2031 50.4593 49.9901 50.625C49.777 50.7907 49.616 51.0168 49.5071 51.3033C49.4006 51.5897 49.3473 51.9129 49.3473 52.2727C49.3473 52.6373 49.4018 52.9652 49.5107 53.2564C49.6196 53.5476 49.7806 53.7784 49.9936 53.9489C50.2091 54.117 50.4742 54.201 50.7891 54.201ZM59.3166 55.1101C58.7887 55.1101 58.3342 54.9905 57.953 54.7514C57.5742 54.5099 57.283 54.1773 57.0794 53.7536C56.8758 53.3298 56.774 52.8445 56.774 52.2976C56.774 51.7436 56.8782 51.2547 57.0865 50.831C57.2949 50.4048 57.5884 50.0722 57.9672 49.8331C58.346 49.594 58.7923 49.4744 59.306 49.4744C59.7203 49.4744 60.0896 49.5514 60.4139 49.7053C60.7383 49.8568 60.9999 50.0698 61.1987 50.3445C61.4 50.6191 61.5195 50.9399 61.5574 51.3068H60.524C60.4672 51.0511 60.337 50.831 60.1334 50.6463C59.9322 50.4616 59.6623 50.3693 59.3237 50.3693C59.0278 50.3693 58.7686 50.4474 58.546 50.6037C58.3259 50.7576 58.1542 50.9777 58.0311 51.2642C57.908 51.5483 57.8465 51.8845 57.8465 52.2727C57.8465 52.6705 57.9068 53.0137 58.0276 53.3026C58.1483 53.5914 58.3188 53.8151 58.5389 53.9737C58.7615 54.1323 59.0231 54.2116 59.3237 54.2116C59.525 54.2116 59.7073 54.175 59.8706 54.1016C60.0363 54.0258 60.1748 53.9181 60.2861 53.7784C60.3997 53.6387 60.479 53.4706 60.524 53.2741H61.5574C61.5195 53.6269 61.4047 53.9418 61.2129 54.2188C61.0212 54.4957 60.7643 54.7135 60.4423 54.8722C60.1227 55.0308 59.7475 55.1101 59.3166 55.1101ZM64.0802 55.1207C63.7346 55.1207 63.4221 55.0568 63.1427 54.929C62.8634 54.7988 62.642 54.6106 62.4787 54.3643C62.3177 54.1181 62.2372 53.8163 62.2372 53.4588C62.2372 53.151 62.2964 52.8977 62.4148 52.6989C62.5331 52.5 62.6929 52.3426 62.8942 52.2266C63.0954 52.1106 63.3203 52.023 63.5689 51.9638C63.8175 51.9046 64.0708 51.8596 64.3288 51.8288C64.6555 51.791 64.9207 51.7602 65.1243 51.7365C65.3279 51.7105 65.4758 51.669 65.5682 51.6122C65.6605 51.5554 65.7067 51.4631 65.7067 51.3352V51.3104C65.7067 51.0002 65.6191 50.7599 65.4439 50.5895C65.2711 50.419 65.013 50.3338 64.6697 50.3338C64.3122 50.3338 64.0305 50.4131 63.8246 50.5717C63.621 50.728 63.4801 50.902 63.402 51.0938L62.4041 50.8665C62.5225 50.535 62.6953 50.2675 62.9226 50.0639C63.1522 49.858 63.4162 49.7088 63.7145 49.6165C64.0128 49.5218 64.3265 49.4744 64.6555 49.4744C64.8733 49.4744 65.1041 49.5005 65.348 49.5526C65.5942 49.6023 65.8238 49.6946 66.0369 49.8295C66.2524 49.9645 66.4287 50.1574 66.566 50.4084C66.7033 50.657 66.772 50.9801 66.772 51.3778V55H65.7351V54.2543H65.6925C65.6238 54.3916 65.5208 54.5265 65.3835 54.6591C65.2462 54.7917 65.0698 54.9018 64.8544 54.9893C64.639 55.0769 64.3809 55.1207 64.0802 55.1207ZM64.3111 54.2685C64.6046 54.2685 64.8556 54.2105 65.0639 54.0945C65.2746 53.9785 65.4344 53.8269 65.5433 53.6399C65.6546 53.4505 65.7102 53.2481 65.7102 53.0327V52.3295C65.6723 52.3674 65.5989 52.4029 65.49 52.4361C65.3835 52.4669 65.2616 52.4941 65.1243 52.5178C64.987 52.5391 64.8532 52.5592 64.723 52.5781C64.5928 52.5947 64.4839 52.6089 64.3963 52.6207C64.1903 52.6468 64.0021 52.6906 63.8317 52.7521C63.6636 52.8137 63.5286 52.9025 63.4268 53.0185C63.3274 53.1321 63.2777 53.2836 63.2777 53.473C63.2777 53.7358 63.3747 53.9347 63.5689 54.0696C63.763 54.2022 64.0104 54.2685 64.3111 54.2685ZM67.9862 55V49.5455H69.0125V50.4119H69.0693C69.1688 50.1184 69.344 49.8875 69.5949 49.7195C69.8482 49.549 70.1347 49.4638 70.4543 49.4638C70.5206 49.4638 70.5987 49.4661 70.6887 49.4709C70.781 49.4756 70.8532 49.4815 70.9053 49.4886V50.5043C70.8627 50.4924 70.7869 50.4794 70.678 50.4652C70.5691 50.4486 70.4602 50.4403 70.3513 50.4403C70.1003 50.4403 69.8766 50.4936 69.6801 50.6001C69.486 50.7043 69.3321 50.8499 69.2185 51.0369C69.1048 51.2216 69.048 51.4323 69.048 51.669V55H67.9862ZM73.4707 55.1065C73.0304 55.1065 72.6374 54.9941 72.2917 54.7692C71.9485 54.5419 71.6786 54.2187 71.4821 53.7997C71.288 53.3783 71.1909 52.8729 71.1909 52.2834C71.1909 51.6939 71.2891 51.1896 71.4856 50.7706C71.6845 50.3516 71.9568 50.0308 72.3024 49.8082C72.648 49.5857 73.0398 49.4744 73.4778 49.4744C73.8164 49.4744 74.0886 49.5312 74.2946 49.6449C74.5029 49.7562 74.6639 49.8864 74.7775 50.0355C74.8935 50.1847 74.9835 50.3161 75.0474 50.4297H75.1113V47.7273H76.1731V55H75.1362V54.1513H75.0474C74.9835 54.2673 74.8912 54.3999 74.7704 54.549C74.6521 54.6982 74.4887 54.8284 74.2804 54.9396C74.072 55.0509 73.8022 55.1065 73.4707 55.1065ZM73.7051 54.201C74.0105 54.201 74.2685 54.1205 74.4792 53.9595C74.6923 53.7962 74.8533 53.5701 74.9622 53.2812C75.0735 52.9924 75.1291 52.6562 75.1291 52.2727C75.1291 51.8939 75.0747 51.5625 74.9657 51.2784C74.8568 50.9943 74.697 50.773 74.4863 50.6143C74.2756 50.4557 74.0152 50.3764 73.7051 50.3764C73.3855 50.3764 73.1192 50.4593 72.9061 50.625C72.693 50.7907 72.532 51.0168 72.4231 51.3033C72.3166 51.5897 72.2633 51.9129 72.2633 52.2727C72.2633 52.6373 72.3178 52.9652 72.4267 53.2564C72.5356 53.5476 72.6966 53.7784 72.9096 53.9489C73.1251 54.117 73.3902 54.201 73.7051 54.201Z" fill="#A4A4A4"/>
<path d="M55 19C50.5817 19 47 22.5817 47 27C47 31.4183 50.5817 35 55 35C59.4183 35 63 31.4183 63 27C63 22.5817 59.4183 19 55 19ZM45 27C45 21.4772 49.4772 17 55 17C60.5228 17 65 21.4772 65 27C65 32.5228 60.5228 37 55 37C49.4772 37 45 32.5228 45 27ZM55 22C55.5523 22 56 22.4477 56 23V26H59C59.5523 26 60 26.4477 60 27C60 27.5523 59.5523 28 59 28H56V31C56 31.5523 55.5523 32 55 32C54.4477 32 54 31.5523 54 31V28H51C50.4477 28 50 27.5523 50 27C50 26.4477 50.4477 26 51 26H54V23C54 22.4477 54.4477 22 55 22Z" fill="#D7D7D7"/>
</svg>
