<svg width="816" height="905" viewBox="0 0 816 905" fill="none" xmlns="http://www.w3.org/2000/svg">
<g filter="url(#filter0_d_1587_2731)">
<rect x="-773" y="120" width="1540" height="709.441" rx="283" fill="white"/>
<rect x="-772.5" y="120.5" width="1539" height="708.441" rx="282.5" stroke="url(#paint0_linear_1587_2731)" stroke-opacity="0.27"/>
</g>
<g clip-path="url(#clip0_1587_2731)">
<g opacity="0.1">
<path d="M766.992 547.832L606.892 640.819L237.265 427.309L401.111 330.862L766.992 547.832Z" fill="black"/>
</g>
<path d="M623.896 637.792L624.761 371.517L634.992 365.606L634.272 631.737C634.272 634.909 633.119 637.071 631.39 638.08C627.931 640.099 624.617 641.973 621.158 643.991C622.887 643.126 623.896 640.819 623.896 637.792Z" fill="#C0C0F6"/>
<path d="M624.761 371.517L634.992 365.606V329.708L624.761 335.619V371.517Z" fill="#C0C0F6"/>
<path d="M235.82 146.906L624.758 371.517L624.037 637.648C624.037 643.991 619.57 646.442 614.094 643.27L244.899 430.048C239.423 426.877 235.1 419.38 235.1 413.037L235.82 146.906Z" fill="url(#paint1_linear_1587_2731)"/>
<path d="M245.776 105.386C240.3 102.214 235.977 104.809 235.832 111.008L235.688 147.05L624.77 371.517L624.914 335.475C624.914 329.276 620.591 321.635 615.115 318.463L245.776 105.386Z" fill="#F0F0F9"/>
<path d="M243.616 104.376C243.04 104.232 242.463 104.088 242.031 104.088H241.887C241.311 104.088 240.734 104.088 240.302 104.232C239.725 104.376 239.293 104.521 238.861 104.809L249.092 98.8981C249.236 98.7539 249.38 98.7539 249.524 98.6097C249.669 98.6097 249.813 98.4656 250.101 98.4656C250.245 98.4656 250.389 98.4656 250.389 98.3214C250.389 98.3214 250.389 98.3214 250.533 98.3214H250.677C250.821 98.3214 251.11 98.3214 251.254 98.3214C251.542 98.3214 251.686 98.3214 251.974 98.3214C252.118 98.3214 252.118 98.3214 252.118 98.3214H252.262C252.406 98.3214 252.551 98.3214 252.551 98.3214C252.839 98.3214 253.127 98.4656 253.415 98.4656C253.559 98.4656 253.703 98.6097 253.703 98.6097C253.848 98.6097 253.992 98.6097 253.992 98.7539C254.136 98.7539 254.28 98.8981 254.424 98.8981C254.856 99.0422 255.289 99.3306 255.865 99.6189L625.204 312.553C625.781 312.985 626.357 313.418 627.078 313.85C627.222 313.994 627.51 314.283 627.654 314.427C627.942 314.715 628.231 314.859 628.519 315.148C628.663 315.292 628.807 315.436 628.807 315.58C628.951 315.724 629.095 315.868 629.239 316.013C629.383 316.157 629.528 316.301 629.528 316.445C629.816 316.733 630.104 317.166 630.392 317.454C630.536 317.598 630.536 317.743 630.68 317.887L630.824 318.031C630.969 318.175 630.969 318.319 631.113 318.319C631.257 318.608 631.545 318.896 631.689 319.184C631.833 319.473 631.977 319.761 632.121 320.049C632.121 320.049 632.121 320.049 632.121 320.193C632.266 320.482 632.41 320.626 632.554 320.914C632.698 321.203 632.842 321.491 632.986 321.779C633.13 322.068 633.274 322.356 633.274 322.5C633.418 322.788 633.562 323.077 633.562 323.365C633.707 323.653 633.851 323.942 633.851 324.374C633.851 324.518 633.995 324.663 633.995 324.807C633.995 324.951 633.995 324.951 634.139 325.095C634.139 325.239 634.139 325.383 634.283 325.383C634.427 325.816 634.427 326.104 634.571 326.537C634.571 326.825 634.715 326.969 634.715 327.258C634.715 327.402 634.715 327.546 634.715 327.546C634.715 327.69 634.715 327.69 634.715 327.834C634.859 328.411 634.859 329.132 634.859 329.708L624.628 335.619C624.628 334.898 624.484 334.178 624.484 333.313C624.484 333.168 624.484 333.024 624.484 333.024C624.34 332.303 624.196 331.583 624.052 330.862V330.718C623.763 329.997 623.475 329.132 623.187 328.411C623.187 328.411 623.187 328.411 623.187 328.267C622.899 327.546 622.466 326.681 622.034 325.96C622.034 325.96 622.034 325.96 622.034 325.816C621.602 325.095 621.169 324.374 620.593 323.653L620.449 323.509C620.017 322.933 619.44 322.356 619.008 321.779C618.864 321.635 618.864 321.491 618.72 321.491C618.287 321.058 617.855 320.626 617.423 320.338C617.279 320.193 617.135 320.049 616.846 319.905C616.27 319.473 615.549 319.04 614.973 318.608L245.778 105.386C245.201 104.953 244.481 104.809 243.904 104.521C243.904 104.376 243.76 104.376 243.616 104.376Z" fill="#C0C0F6"/>
<path d="M600.406 343.837C595.362 340.953 591.327 334.033 591.471 328.267C591.471 322.5 595.506 320.193 600.55 323.077C605.594 325.96 609.484 332.88 609.484 338.647C609.34 344.413 605.305 346.72 600.406 343.837Z" fill="#C0C0F6"/>
<path d="M573.023 327.978C567.979 325.095 563.944 318.175 564.089 312.408C564.089 306.642 568.123 304.335 573.167 307.218C578.211 310.102 582.102 317.022 582.102 322.788C582.102 328.555 577.923 330.862 573.023 327.978Z" fill="#C0C0F6"/>
<path d="M546.375 312.553C541.331 309.669 537.296 302.749 537.44 296.983C537.44 291.216 541.475 288.909 546.519 291.793C551.562 294.676 555.453 301.596 555.453 307.363C555.453 313.129 551.418 315.436 546.375 312.553Z" fill="#C0C0F6"/>
<g opacity="0.5">
<g opacity="0.1429">
<path d="M708.944 458.161L727.389 468.829C728.542 469.55 729.983 469.55 731.136 468.829L749.725 458.161C752.175 456.719 752.175 453.115 749.725 451.673L731.28 441.005C730.127 440.284 728.686 440.284 727.533 441.005L708.944 451.673C706.35 453.115 706.35 456.719 708.944 458.161Z" fill="#FDCDE7"/>
</g>
<g opacity="0.2857">
<path d="M708.944 436.536L727.389 447.204C728.542 447.925 729.983 447.925 731.136 447.204L749.725 436.536C752.175 435.094 752.175 431.49 749.725 430.048L731.28 419.38C730.127 418.659 728.686 418.659 727.533 419.38L708.944 430.048C706.35 431.49 706.35 435.094 708.944 436.536Z" fill="#FDCDE7"/>
</g>
<g opacity="0.4286">
<path d="M708.944 414.766L727.389 425.435C728.542 426.156 729.983 426.156 731.136 425.435L749.725 414.766C752.175 413.325 752.175 409.721 749.725 408.279L731.28 397.611C730.127 396.89 728.686 396.89 727.533 397.611L708.944 408.279C706.35 409.721 706.35 413.325 708.944 414.766Z" fill="#FDCDE7"/>
</g>
<g opacity="0.5714">
<path d="M708.944 393.142L727.389 403.81C728.542 404.531 729.983 404.531 731.136 403.81L749.725 393.142C752.175 391.7 752.175 388.096 749.725 386.654L731.28 375.986C730.127 375.265 728.686 375.265 727.533 375.986L708.944 386.654C706.35 388.096 706.35 391.7 708.944 393.142Z" fill="#FDCDE7"/>
</g>
<g opacity="0.7143">
<path d="M708.944 371.517L727.389 382.185C728.542 382.906 729.983 382.906 731.136 382.185L749.725 371.517C752.175 370.075 752.175 366.471 749.725 365.029L731.28 354.361C730.127 353.64 728.686 353.64 727.533 354.361L708.944 365.029C706.35 366.471 706.35 370.075 708.944 371.517Z" fill="#FDCDE7"/>
</g>
<g opacity="0.8571">
<path d="M708.944 349.747L727.389 360.416C728.542 361.137 729.983 361.137 731.136 360.416L749.725 349.747C752.175 348.306 752.175 344.702 749.725 343.26L731.28 332.592C730.127 331.871 728.686 331.871 727.533 332.592L708.944 343.26C706.35 344.702 706.35 348.306 708.944 349.747Z" fill="#FDCDE7"/>
</g>
<path d="M708.944 328.123L727.389 338.791C728.542 339.512 729.983 339.512 731.136 338.791L749.725 328.123C752.175 326.681 752.175 323.077 749.725 321.635L731.28 310.967C730.127 310.246 728.686 310.246 727.533 310.967L708.944 321.635C706.35 323.077 706.35 326.681 708.944 328.123Z" fill="#FDCDE7"/>
</g>
<path d="M708.944 328.123L727.389 338.791C728.542 339.512 729.983 339.512 731.136 338.791L749.725 328.123C752.175 326.681 752.175 323.077 749.725 321.635L731.28 310.967C730.127 310.246 728.686 310.246 727.533 310.967L708.944 321.635C706.35 323.077 706.35 326.681 708.944 328.123Z" fill="#FDCDE7"/>
<g opacity="0.5">
<g opacity="0.1429">
<path d="M181.393 100.916L197.821 110.431C198.829 111.008 200.126 111.008 201.135 110.431L217.707 100.916C219.869 99.6189 219.869 96.4472 217.707 95.1497L201.423 85.6348C200.414 85.0581 199.117 85.0581 198.109 85.6348L181.681 95.1497C179.231 96.4472 179.231 99.6189 181.393 100.916Z" fill="#6058DF"/>
</g>
<g opacity="0.2857">
<path d="M181.381 86.7881L197.808 96.3031C198.817 96.8797 200.114 96.8797 201.123 96.3031L217.551 86.7881C219.712 85.4906 219.712 82.3189 217.551 81.0214L201.267 71.5065C200.258 70.9298 198.961 70.9298 197.953 71.5065L181.525 81.0214C179.219 82.1748 179.219 85.4906 181.381 86.7881Z" fill="#6058DF"/>
</g>
<g opacity="0.4286">
<path d="M181.381 72.5156L197.808 82.0306C198.817 82.6073 200.114 82.6073 201.123 82.0306L217.551 72.5156C219.712 71.2181 219.712 68.0465 217.551 66.749L201.267 57.234C200.258 56.6573 198.961 56.6573 197.953 57.234L181.525 66.749C179.219 68.0465 179.219 71.2181 181.381 72.5156Z" fill="#6058DF"/>
</g>
<g opacity="0.5714">
<path d="M181.381 58.3873L197.808 67.9023C198.817 68.479 200.114 68.479 201.123 67.9023L217.551 58.3873C219.712 57.0898 219.712 53.9182 217.551 52.6207L201.267 43.1057C200.258 42.529 198.961 42.529 197.953 43.1057L181.525 52.6207C179.219 53.9182 179.219 57.0898 181.381 58.3873Z" fill="#6058DF"/>
</g>
<g opacity="0.7143">
<path d="M181.381 44.1149L197.808 53.6298C198.817 54.2065 200.114 54.2065 201.123 53.6298L217.551 44.1149C219.712 42.8174 219.712 39.6457 217.551 38.3482L201.267 28.8332C200.258 28.2566 198.961 28.2566 197.953 28.8332L181.525 38.3482C179.219 39.6457 179.219 42.8174 181.381 44.1149Z" fill="#6058DF"/>
</g>
<g opacity="0.8571">
<path d="M181.381 29.9866L197.808 39.5015C198.817 40.0782 200.114 40.0782 201.123 39.5015L217.551 29.9866C219.712 28.6891 219.712 25.5174 217.551 24.2199L201.267 14.7049C200.258 14.1283 198.961 14.1283 197.953 14.7049L181.525 24.2199C179.219 25.5174 179.219 28.6891 181.381 29.9866Z" fill="#6058DF"/>
</g>
<path d="M181.381 15.7141L197.808 25.229C198.817 25.8057 200.114 25.8057 201.123 25.229L217.551 15.7141C219.712 14.4166 219.712 11.2449 217.551 9.94741L201.267 0.432438C200.258 -0.144227 198.961 -0.144227 197.953 0.432438L181.525 9.94741C179.219 11.2449 179.219 14.4166 181.381 15.7141Z" fill="#6058DF"/>
</g>
<path d="M181.365 15.7141L197.793 25.229C198.802 25.8057 200.098 25.8057 201.107 25.229L217.535 15.7141C219.697 14.4166 219.697 11.2449 217.535 9.94741L201.251 0.432438C200.243 -0.144227 198.946 -0.144227 197.937 0.432438L181.509 9.94741C179.203 11.2449 179.203 14.4166 181.365 15.7141Z" fill="#6057DF"/>
<g opacity="0.5">
<path d="M329.198 304.768V311.543L402.547 353.784V347.008L329.198 304.768Z" fill="#4C4FFA"/>
</g>
<g opacity="0.6">
<path d="M175.73 234.703L175.586 282.854L279.629 343.116L279.773 294.82L175.73 234.703Z" fill="#4C4FFA"/>
</g>
<g opacity="0.5">
<path d="M290.438 289.053L167.805 218.268L167.517 325.528L290.149 396.313L290.438 289.053ZM175.586 282.854L175.73 234.559L279.918 294.676L279.774 342.972L175.586 282.854Z" fill="#4C4FFA"/>
</g>
<g opacity="0.5">
<path d="M167.805 198.95V207.023L290.438 277.953V269.735L167.805 198.95Z" fill="#4C4FFA"/>
</g>
<g opacity="0.5">
<path d="M329.049 365.606L328.905 413.469L402.254 455.71L402.398 407.847L329.049 365.606Z" fill="#4C4FFA"/>
</g>
<g opacity="0.6">
<path d="M410.625 305.633L317.101 251.57L316.669 416.352L410.193 470.415L410.625 305.633ZM328.918 413.469L329.062 365.606L402.267 407.847L402.123 455.71L328.918 413.469ZM329.35 278.097V271.321L402.555 313.562V320.338L329.35 278.097ZM329.206 311.543V304.768L402.411 347.008V353.784L329.206 311.543ZM329.206 326.681V319.905L402.411 362.146V368.922L329.206 326.681ZM329.35 293.234V286.459L402.555 328.843V335.619L329.35 293.234Z" fill="#4C4FFA"/>
</g>
<g opacity="0.7">
<path d="M420.406 277.664L156.551 125.281L155.975 332.448L419.83 484.831L420.406 277.664ZM316.507 416.352L316.939 251.57L410.463 305.633L410.031 470.415L316.507 416.352ZM167.503 325.528L167.791 218.268L290.424 289.053L290.136 396.313L167.503 325.528ZM167.935 156.276V137.967L414.066 280.115V298.424L167.935 156.276ZM167.935 173.576V165.503L290.568 236.289V244.362L167.935 173.576ZM167.791 188.858V180.785L290.424 251.57V259.644L167.791 188.858ZM167.791 207.023V198.95L290.424 269.735V277.809L167.791 207.023Z" fill="#4C4FFA"/>
</g>
<g opacity="0.5">
<path d="M167.817 180.64V188.858L290.45 259.644L290.594 251.57L167.817 180.64Z" fill="#4C4FFA"/>
</g>
<g opacity="0.5">
<path d="M410.625 291.504L276.896 214.231V205.581L410.625 282.854V291.504Z" fill="#4C4FFA"/>
</g>
<g opacity="0.5">
<path d="M167.948 156.276V137.967L414.078 280.115V298.424L167.948 156.276ZM172.847 145.464V154.114L225.734 184.677V176.027L172.847 145.464ZM276.891 205.581V214.231L410.62 291.504V282.854L276.891 205.581Z" fill="#4C4FFA"/>
</g>
<g opacity="0.5">
<path d="M172.848 145.464V154.114L225.734 184.677V176.027L172.848 145.464Z" fill="#4C4FFA"/>
</g>
<g opacity="0.5">
<path d="M167.961 165.503V173.576L290.594 244.362V236.289L167.961 165.503Z" fill="#4C4FFA"/>
</g>
<g opacity="0.5">
<path d="M329.198 319.905V326.681L402.403 369.066L402.547 362.29L329.198 319.905Z" fill="#4C4FFA"/>
</g>
<g opacity="0.5">
<path d="M329.342 286.458V293.234L402.547 335.475V328.843L329.342 286.458Z" fill="#4C4FFA"/>
</g>
<g opacity="0.5">
<path d="M329.342 271.321V278.097L402.547 320.338V313.562L329.342 271.321Z" fill="#4C4FFA"/>
</g>
<g opacity="0.5">
<path d="M473.913 180.352V187.705L553.891 233.838V226.485L473.913 180.352Z" fill="#4C4FFA"/>
<path d="M473.749 246.813L473.605 299.001L553.582 345.134L553.727 292.946L473.749 246.813Z" fill="#4C4FFA"/>
<g opacity="0.6">
<path d="M562.664 181.361L460.494 122.397L459.918 302.173L562.088 361.137L562.664 181.361ZM473.608 299.001L473.752 246.813L553.73 292.946L553.585 345.134L473.608 299.001ZM474.04 151.23V143.878L554.018 190.011V197.364L474.04 151.23ZM473.896 187.705V180.352L553.874 226.485V233.838L473.896 187.705ZM473.896 204.284V196.931L553.874 243.064V250.417L473.896 204.284ZM474.04 167.81V160.457L554.018 206.59V213.943L474.04 167.81Z" fill="#4C4FFA"/>
</g>
<path d="M450.263 106.395L566.555 173.576V153.681L450.263 86.4998V79.724L573.328 150.798L572.752 376.851L450.263 306.065V106.395ZM562.664 181.361L460.494 122.397L459.918 302.173L562.088 361.137L562.664 181.361Z" fill="#4C4FFA"/>
<path d="M450.267 91.4014L562.812 156.42V165.791L450.267 100.916V91.4014Z" fill="#4C4FFA"/>
<path d="M450.259 100.916L562.804 165.791V156.42L450.259 91.4014V86.4998L566.695 153.681L566.551 173.576L450.259 106.395V100.916Z" fill="#4C4FFA"/>
<path d="M473.913 196.931V204.284L553.891 250.561V243.209L473.913 196.931Z" fill="#4C4FFA"/>
<path d="M474.046 160.457V167.81L554.023 213.943V206.59L474.046 160.457Z" fill="#4C4FFA"/>
<path d="M474.046 143.734V151.23L554.023 197.364V190.011L474.046 143.734Z" fill="#4C4FFA"/>
</g>
<g opacity="0.5">
<path d="M479.964 441.149L479.82 489.445L583.864 549.562L584.008 501.266L479.964 441.149Z" fill="#4C4FFA"/>
<g opacity="0.6">
<path d="M594.672 495.644L472.039 424.858L471.751 532.118L594.384 602.904L594.672 495.644ZM479.821 489.445L479.965 441.149L584.152 501.266L584.008 549.562L479.821 489.445Z" fill="#4C4FFA"/>
</g>
<path d="M472.039 405.54V413.613L594.672 484.399V476.326L472.039 405.54Z" fill="#4C4FFA"/>
<g opacity="0.7">
<path d="M601.164 419.092L472.191 344.558V362.867L601.164 437.401V620.348L460.086 538.894L460.662 331.727L601.164 412.892V419.092ZM471.758 531.974L594.391 602.76L594.679 495.5L472.047 424.714L471.758 531.974ZM472.047 413.613L594.679 484.399V476.326L472.047 405.54V413.613ZM472.047 395.304L594.679 466.09V458.017L472.047 387.231V395.304ZM472.191 380.167L594.823 450.952V442.879L472.191 372.093V380.167Z" fill="#4C4FFA"/>
</g>
<path d="M472.036 387.231V395.304L594.668 466.234L594.812 458.016L472.036 387.231Z" fill="#4C4FFA"/>
<path d="M472.191 344.558L601.164 419.092V423.705V432.355V437.401L472.191 362.867V344.558ZM529.977 391.123V382.473L477.09 351.91V360.56L529.977 391.123Z" fill="#4C4FFA"/>
<path d="M477.082 352.054V360.56L529.969 391.123V382.617L477.082 352.054Z" fill="#4C4FFA"/>
<path d="M472.18 371.949V380.167L594.812 450.952V442.879L472.18 371.949Z" fill="#4C4FFA"/>
</g>
<g opacity="0.5">
<path d="M333.818 270.168C323.587 264.257 315.229 269.014 315.229 280.836C315.229 292.658 323.443 306.93 333.674 312.841C343.906 318.752 352.264 313.994 352.264 302.317C352.408 290.351 344.05 276.078 333.818 270.168Z" fill="#B53892"/>
</g>
<g opacity="0.5">
<path d="M333.813 278.385C327.184 274.493 321.852 277.664 321.708 285.305C321.708 292.946 327.04 302.173 333.669 306.065C340.297 309.958 345.773 306.786 345.773 299.145C345.773 291.504 340.442 282.133 333.813 278.385Z" fill="#B53892"/>
</g>
<g opacity="0.5">
<path d="M333.825 286.314C330.655 284.44 328.205 286.026 328.205 289.486C328.205 293.09 330.655 297.415 333.825 299.289C336.996 301.163 339.445 299.722 339.445 296.118C339.445 292.513 336.996 288.188 333.825 286.314Z" fill="#B53892"/>
</g>
<g opacity="0.5">
<path d="M395.201 344.269C384.97 338.358 376.612 343.116 376.612 354.938C376.612 366.759 384.826 381.032 395.057 386.942C405.289 392.853 413.647 388.096 413.647 376.418C413.791 364.597 405.577 350.18 395.201 344.269Z" fill="#B53892"/>
</g>
<g opacity="0.5">
<path d="M395.208 352.487C388.58 348.594 383.248 351.766 383.104 359.407C383.104 367.048 388.436 376.274 395.064 380.167C401.693 384.059 407.169 381.032 407.169 373.247C407.313 365.606 401.837 356.379 395.208 352.487Z" fill="#B53892"/>
</g>
<g opacity="0.5">
<path d="M395.218 360.56C392.048 358.686 389.598 360.272 389.598 363.732C389.598 367.336 392.048 371.661 395.218 373.535C398.388 375.409 400.838 373.968 400.838 370.363C400.982 366.615 398.388 362.29 395.218 360.56Z" fill="#B53892"/>
</g>
<path d="M292.17 646.73C292.17 646.73 286.405 655.957 294.331 658.119C302.257 660.282 299.951 655.38 317.244 659.705C334.536 664.03 332.519 654.371 332.086 652.353C331.654 650.334 324.161 647.595 320.414 646.586C316.667 645.577 301.536 642.117 301.536 642.117L292.314 643.847L292.17 646.73Z" fill="#111114"/>
<path d="M317.101 312.985C317.101 312.985 318.398 300.875 319.695 298.713C320.991 296.406 326.179 286.603 334.97 285.161C339.725 284.296 337.131 289.342 332.664 294.964C330.647 297.559 328.629 299.001 329.205 304.479C329.638 308.372 328.629 314.427 327.764 317.31C326.9 319.905 317.101 312.985 317.101 312.985Z" fill="#E6A376"/>
<path d="M328.052 316.589C328.917 313.85 329.493 307.795 331.799 304.624C334.537 300.731 330.646 297.271 332.807 294.82C336.266 290.495 338.572 286.314 337.275 285.161C334.969 288.765 329.205 287.612 326.179 298.28C325.026 302.173 324.449 311.832 325.026 316.589C327.043 317.31 327.764 317.743 328.052 316.589Z" fill="#E6A376"/>
<path d="M324.453 316.157C324.453 316.157 332.811 305.344 334.829 301.74C336.846 298.136 336.846 294.676 335.837 294.964C334.829 295.253 328.2 305.777 325.318 302.461C323.733 300.587 325.318 314.283 324.453 316.157Z" fill="#E6A376"/>
<path d="M241.734 367.048C241.734 367.048 242.743 382.185 261.909 376.851C281.075 371.661 315.372 357.533 319.839 348.306C324.306 339.079 328.773 314.283 328.773 314.283C328.773 314.283 319.551 317.31 315.948 309.813L300.817 340.521C300.817 340.665 240.726 356.523 241.734 367.048Z" fill="#9DBCC9"/>
<path d="M241.724 367.047C240.716 356.523 300.807 340.665 300.807 340.665L315.938 309.958C317.235 312.841 319.397 314.138 321.414 314.715C319.829 322.644 316.659 336.628 313.632 343.116C309.309 352.343 274.868 366.327 255.702 371.661C250.227 373.247 246.192 372.958 243.31 371.949C241.868 369.354 241.724 367.047 241.724 367.047Z" fill="#CAE0EA"/>
<path d="M272.561 612.13C272.561 612.13 279.766 613.284 278.037 617.32C276.307 621.501 268.093 627.7 266.941 630.439C265.788 633.034 259.159 642.405 256.997 641.54C254.836 640.675 249.216 641.973 249.792 631.304C250.369 620.636 263.05 611.698 272.561 612.13Z" fill="#111114"/>
<path d="M250.519 471.856C250.519 471.856 250.375 533.56 250.375 540.624C250.375 547.544 242.593 602.327 247.349 626.258C247.349 626.258 260.75 639.81 272.711 626.258C272.711 626.258 276.458 557.635 279.916 542.21C283.375 526.784 282.222 479.353 282.222 479.353L250.519 471.856Z" fill="#6057DF"/>
<path d="M274.162 480.651C274.162 480.651 277.188 520.585 280.359 560.086C280.359 560.086 282.376 638.513 284.249 649.902C284.249 649.902 309.612 656.245 312.061 644.279C312.061 644.279 311.485 575.224 312.061 560.807C312.638 546.39 314.223 506.168 308.459 482.813C302.839 459.458 274.162 480.651 274.162 480.651Z" fill="#6057DF"/>
<path d="M284.241 649.758C282.368 638.513 280.35 559.942 280.35 559.942C278.189 533.271 276.171 506.6 275.018 491.896L290.582 495.788C290.582 495.788 301.822 525.342 300.093 569.745C298.796 604.057 298.219 637.936 298.075 651.488C291.158 651.488 284.241 649.758 284.241 649.758Z" fill="#6057DF"/>
<path d="M247.347 626.258C242.736 602.327 250.373 547.544 250.373 540.624C250.373 533.992 250.517 477.623 250.517 472.289L264.063 482.669C264.063 482.669 268.386 526.784 264.063 552.013C260.172 574.935 262.622 619.483 260.749 632.169C253.255 632.169 247.347 626.258 247.347 626.258Z" fill="#6057DF"/>
<path d="M246.198 361.713C246.198 361.713 234.093 367.768 241.01 388.384C247.927 409 252.683 422.263 252.25 430.048C251.818 437.689 249.08 463.639 247.351 468.829C247.351 468.829 245.333 485.841 284.097 495.932C284.097 495.932 315.945 499.104 310.757 478.2C305.569 457.151 303.552 423.272 304.272 415.199C305.137 407.126 309.892 390.979 289.718 380.023C269.543 368.922 259.023 360.848 246.198 361.713Z" fill="#CAE0EA"/>
<path d="M255.134 362.578C264.645 364.885 274.444 371.517 289.863 379.878C310.038 390.835 305.138 406.982 304.418 415.055C303.553 423.128 305.571 457.007 310.902 478.056C315.082 494.923 295.339 496.221 287.414 495.932C251.676 471.28 254.846 407.126 255.134 362.578Z" fill="#CAE0EA"/>
<path d="M260.606 352.342C260.606 352.342 262.047 363.876 258.012 371.228C254.41 377.86 281.645 383.771 282.366 377.716C282.366 376.995 277.178 367.047 283.807 355.226C287.121 349.027 260.606 352.342 260.606 352.342Z" fill="#E6A376"/>
<path d="M258.157 371.661C261.183 366.327 261.183 358.542 260.895 354.793L280.781 364.741C280.061 364.885 266.659 368.345 263.633 378.004C259.598 376.274 256.716 373.967 258.157 371.661Z" fill="#DD9569"/>
<path d="M289.279 321.491C289.279 321.491 293.459 332.015 292.594 341.098C291.729 350.901 293.17 352.775 292.594 357.1C292.306 358.974 292.162 361.713 290.432 363.443C287.406 366.327 281.21 367.48 272.852 364.308C262.62 360.56 251.957 346.576 256.28 334.033C260.603 321.635 274.004 311.255 289.279 321.491Z" fill="#E6A376"/>
<path d="M256.716 347.873C260.751 336.628 270.982 322.933 270.838 322.212C270.838 321.779 274.153 319.617 277.9 317.454C281.502 317.743 285.249 318.896 289.284 321.635C289.284 321.635 290.437 324.518 291.445 328.411C288.996 331.15 284.096 334.178 283.375 336.484C281.646 341.962 282.655 350.036 284.24 353.784C285.825 357.388 279.341 362.722 280.637 365.894C280.637 366.038 280.637 366.182 280.637 366.327C278.332 366.182 275.738 365.606 272.712 364.597C266.371 362.146 259.598 355.514 256.716 347.873Z" fill="#E6A376"/>
<path d="M300.379 310.678C303.694 308.66 293.895 326.248 284.96 330.573C279.628 333.168 280.061 341.818 280.349 343.404C280.637 344.99 282.222 352.198 281.502 353.208C280.205 354.938 276.026 349.459 274.008 349.748C268.965 350.757 270.982 355.37 275.593 360.416C280.493 365.606 267.668 367.768 261.615 363.443C258.445 361.137 257.292 359.695 253.113 351.478C247.061 339.512 245.476 321.635 261.039 317.31C276.026 313.273 291.445 316.157 300.379 310.678Z" fill="#131C24"/>
<path d="M261.616 363.587C258.445 361.281 257.293 359.839 253.114 351.622C247.061 339.656 245.044 325.239 259.166 317.454C273.432 309.813 283.952 317.887 300.236 310.678C301.1 310.39 289.572 325.96 272.135 329.276C264.642 330.718 263.921 333.745 264.21 341.818C264.498 349.603 262.48 359.839 275.594 364.308C270.838 367.912 263.921 365.173 261.616 363.587Z" fill="#1D2833"/>
<path d="M280.789 374.112L290.156 380.022C290.156 380.022 262.056 389.537 253.986 375.842C252.833 373.967 254.274 367.48 259.03 366.327C258.886 366.327 259.894 377.427 280.789 374.112Z" fill="#9DBCC9"/>
<path d="M378.917 373.823C378.917 373.823 385.834 365.894 385.546 363.299C385.258 360.56 389.004 359.407 389.004 362.578C389.004 365.75 387.275 368.922 387.275 368.922C387.275 368.922 396.498 360.848 394.769 357.532C393.039 354.217 402.406 363.443 400.245 369.066C398.083 374.688 396.642 381.176 381.655 383.338C381.511 383.338 377.62 378.869 378.917 373.823Z" fill="#F1B287"/>
<path d="M288.563 387.375C288.563 387.375 282.655 400.782 301.388 404.819C320.122 408.856 351.969 414.19 359.894 408.279C367.82 402.368 387.562 383.482 387.562 383.482C387.562 383.482 378.484 380.743 378.772 372.67L348.654 391.412C348.798 391.267 292.454 378.004 288.563 387.375Z" fill="#9DBCC9"/>
<path d="M288.563 387.375C292.454 377.86 348.799 391.267 348.799 391.267L378.917 372.526C378.773 374.256 379.205 375.842 379.781 376.995C370.414 384.203 353.122 397.178 348.367 398.62C342.602 400.494 298.074 393.574 287.699 391.844C287.699 389.393 288.563 387.375 288.563 387.375Z" fill="#CAE0EA"/>
</g>
<defs>
<filter id="filter0_d_1587_2731" x="-822" y="97" width="1638" height="807.441" filterUnits="userSpaceOnUse" color-interpolation-filters="sRGB">
<feFlood flood-opacity="0" result="BackgroundImageFix"/>
<feColorMatrix in="SourceAlpha" type="matrix" values="0 0 0 0 0 0 0 0 0 0 0 0 0 0 0 0 0 0 127 0" result="hardAlpha"/>
<feOffset dy="26"/>
<feGaussianBlur stdDeviation="24.5"/>
<feColorMatrix type="matrix" values="0 0 0 0 0.573663 0 0 0 0 0.647248 0 0 0 0 0.720833 0 0 0 0.14 0"/>
<feBlend mode="normal" in2="BackgroundImageFix" result="effect1_dropShadow_1587_2731"/>
<feBlend mode="normal" in="SourceGraphic" in2="effect1_dropShadow_1587_2731" result="shape"/>
</filter>
<linearGradient id="paint0_linear_1587_2731" x1="-3" y1="120" x2="-3" y2="829.441" gradientUnits="userSpaceOnUse">
<stop stop-color="#B9B9B9" stop-opacity="0.13"/>
<stop offset="1" stop-color="#5E5E5E" stop-opacity="0.37"/>
</linearGradient>
<linearGradient id="paint1_linear_1587_2731" x1="624.707" y1="395.858" x2="235.023" y2="395.858" gradientUnits="userSpaceOnUse">
<stop stop-color="#4C4FFA"/>
<stop offset="1" stop-color="#B3CDFA"/>
</linearGradient>
<clipPath id="clip0_1587_2731">
<rect width="611.002" height="660.858" fill="white" transform="matrix(-1 0 0 1 767 0)"/>
</clipPath>
</defs>
</svg>
