<svg width="258" height="215" viewBox="0 0 258 215" fill="none" xmlns="http://www.w3.org/2000/svg">
<path d="M250.42 0H7.58012C5.56975 0 3.64172 0.798617 2.22017 2.22016C0.798622 3.64171 0 5.56974 0 7.58011V179.096C0 181.106 0.798622 183.034 2.22017 184.456C3.64172 185.877 5.56975 186.676 7.58012 186.676H100.792C100.792 186.676 106.722 205.011 88.3447 214.494H175.489C175.489 214.494 154.741 207.382 160.077 186.676H250.42C252.43 186.676 254.358 185.877 255.78 184.456C257.201 183.034 258 181.106 258 179.096V7.58011C258 5.56974 257.201 3.64171 255.78 2.22016C254.358 0.798617 252.43 0 250.42 0Z" fill="#242A2D"/>
<path d="M132.241 168.641C135.548 173.358 130.374 178.532 125.639 175.243C125.482 175.134 125.346 174.998 125.237 174.841C121.942 170.118 127.103 164.956 131.839 168.239C131.994 168.35 132.13 168.486 132.241 168.641Z" fill="#263238"/>
<path d="M250.053 10.2809H7.44693C6.36304 10.2809 5.48438 11.1595 5.48438 12.2434V154.549C5.48438 155.633 6.36304 156.512 7.44693 156.512H250.053C251.136 156.512 252.015 155.633 252.015 154.549V12.2434C252.015 11.1595 251.136 10.2809 250.053 10.2809Z" fill="#FAFAFA"/>
<path d="M250.048 156.812H7.44832C6.84768 156.812 6.27155 156.574 5.84627 156.149C5.42099 155.725 5.18128 155.15 5.17969 154.549V12.2435C5.18128 11.6428 5.42099 11.0673 5.84627 10.6432C6.27155 10.219 6.84768 9.98083 7.44832 9.98083H250.048C250.648 9.98083 251.224 10.2192 251.648 10.6435C252.072 11.0679 252.311 11.6434 252.311 12.2435V154.549C252.311 155.149 252.072 155.725 251.648 156.149C251.224 156.573 250.648 156.812 250.048 156.812ZM7.44832 10.581C7.00685 10.581 6.58338 10.756 6.27065 11.0676C5.95792 11.3792 5.78144 11.802 5.77986 12.2435V154.549C5.78144 154.991 5.95792 155.413 6.27065 155.725C6.58338 156.037 7.00685 156.212 7.44832 156.212H250.048C250.489 156.212 250.912 156.036 251.224 155.725C251.535 155.413 251.711 154.99 251.711 154.549V12.2435C251.711 11.8026 251.535 11.3797 251.224 11.0679C250.912 10.7562 250.489 10.581 250.048 10.581H7.44832Z" fill="white"/>
<path d="M25.6949 15.9285C25.6973 16.3183 25.5838 16.7001 25.369 17.0254C25.1541 17.3507 24.8475 17.6049 24.488 17.7557C24.1285 17.9065 23.7323 17.9472 23.3497 17.8727C22.967 17.7981 22.6152 17.6115 22.3387 17.3367C22.0621 17.0619 21.8735 16.7111 21.7965 16.329C21.7196 15.9468 21.7579 15.5503 21.9065 15.1899C22.0551 14.8295 22.3074 14.5214 22.6314 14.3045C22.9554 14.0877 23.3365 13.9719 23.7263 13.9719C24.2463 13.9719 24.7452 14.1777 25.1141 14.5442C25.4829 14.9108 25.6917 15.4085 25.6949 15.9285Z" fill="#455A64"/>
<path d="M13.7652 15.9285C13.7652 16.3179 13.6498 16.6984 13.4335 17.0222C13.2172 17.3459 12.9097 17.5982 12.55 17.7472C12.1903 17.8962 11.7945 17.9352 11.4126 17.8592C11.0308 17.7833 10.68 17.5958 10.4047 17.3205C10.1294 17.0452 9.94191 16.6944 9.86595 16.3126C9.78999 15.9307 9.82898 15.5349 9.97798 15.1752C10.127 14.8155 10.3793 14.508 10.703 14.2917C11.0267 14.0754 11.4073 13.96 11.7967 13.96C12.3188 13.96 12.8195 14.1674 13.1886 14.5365C13.5578 14.9057 13.7652 15.4064 13.7652 15.9285Z" fill="#455A64"/>
<path d="M19.4918 15.9285C19.4918 16.3179 19.3763 16.6984 19.16 17.0222C18.9437 17.3459 18.6363 17.5982 18.2766 17.7472C17.9169 17.8962 17.5211 17.9352 17.1392 17.8592C16.7573 17.7833 16.4066 17.5958 16.1313 17.3205C15.856 17.0452 15.6685 16.6944 15.5925 16.3126C15.5166 15.9307 15.5555 15.5349 15.7045 15.1752C15.8535 14.8155 16.1058 14.508 16.4296 14.2917C16.7533 14.0754 17.1339 13.96 17.5232 13.96C18.0453 13.96 18.546 14.1674 18.9152 14.5365C19.2844 14.9057 19.4918 15.4064 19.4918 15.9285Z" fill="#455A64"/>
<path d="M252.19 21.8401C252.19 21.9242 196.914 21.9962 128.753 21.9962C60.5921 21.9962 5.30469 21.9242 5.30469 21.8401C5.30469 21.7561 60.5621 21.6841 128.753 21.6841C196.944 21.6841 252.19 21.7741 252.19 21.8401Z" fill="#263238"/>
<path d="M238.663 34.9471L194.125 35.0326L194.193 70.6405L238.732 70.555L238.663 34.9471Z" fill="#F5F5F5"/>
<path d="M237.083 37.1948L195.672 37.2743L195.732 68.3989L237.143 68.3194L237.083 37.1948Z" fill="#EBEBEB"/>
<path d="M195.719 68.4191L210.147 49.0457L219.131 61.139L225.193 54.6512L237.13 68.347L195.719 68.4191Z" fill="#E0E0E0"/>
<path d="M222.913 46.6571C222.91 47.3015 222.717 47.9309 222.358 48.4658C221.998 49.0007 221.489 49.4174 220.893 49.6632C220.297 49.9089 219.642 49.9729 219.01 49.8471C218.378 49.7212 217.797 49.4111 217.341 48.9558C216.885 48.5005 216.574 47.9204 216.447 47.2886C216.32 46.6568 216.383 46.0015 216.627 45.4053C216.872 44.8091 217.288 44.2987 217.822 43.9383C218.356 43.5779 218.985 43.3837 219.63 43.3802C220.061 43.3778 220.488 43.4609 220.887 43.6246C221.286 43.7884 221.649 44.0296 221.954 44.3343C222.259 44.639 222.501 45.0011 222.666 45.3998C222.83 45.7985 222.914 46.2258 222.913 46.6571Z" fill="#E0E0E0"/>
<path d="M238.671 111.186L194.133 111.272L194.201 146.88L238.74 146.794L238.671 111.186Z" fill="#F5F5F5"/>
<path d="M237.083 113.434L195.672 113.513L195.732 144.638L237.143 144.559L237.083 113.434Z" fill="#EBEBEB"/>
<path d="M195.719 144.658L210.147 125.285L219.131 137.372L225.193 130.89L237.13 144.58L195.719 144.658Z" fill="#E0E0E0"/>
<path d="M222.913 122.89C222.915 123.536 222.726 124.169 222.368 124.707C222.011 125.246 221.502 125.666 220.905 125.915C220.309 126.164 219.652 126.23 219.018 126.106C218.384 125.981 217.801 125.671 217.343 125.215C216.886 124.759 216.573 124.177 216.446 123.544C216.319 122.91 216.383 122.253 216.63 121.656C216.877 121.058 217.295 120.548 217.833 120.188C218.37 119.829 219.001 119.637 219.648 119.637C220.076 119.637 220.5 119.72 220.895 119.883C221.291 120.046 221.651 120.286 221.954 120.588C222.257 120.89 222.498 121.248 222.662 121.644C222.827 122.039 222.912 122.462 222.913 122.89Z" fill="#E0E0E0"/>
<path d="M60.1009 34.9599L15.5625 35.0454L15.6309 70.6533L60.1692 70.5678L60.1009 34.9599Z" fill="#F5F5F5"/>
<path d="M58.513 37.2075L17.1016 37.287L17.1613 68.4116L58.5728 68.3321L58.513 37.2075Z" fill="#EBEBEB"/>
<path d="M17.1484 68.4191L31.5765 49.0457L40.561 61.139L46.6227 54.6512L58.56 68.347L17.1484 68.4191Z" fill="#E0E0E0"/>
<path d="M44.3459 46.6571C44.3423 47.3006 44.1483 47.9286 43.7884 48.462C43.4284 48.9955 42.9185 49.4104 42.3231 49.6544C41.7276 49.8985 41.0733 49.9608 40.4424 49.8336C39.8116 49.7063 39.2326 49.3951 38.7784 48.9392C38.3242 48.4833 38.0151 47.9032 37.8902 47.2719C37.7652 46.6406 37.8299 45.9865 38.0762 45.3919C38.3224 44.7974 38.7392 44.2891 39.274 43.931C39.8087 43.573 40.4375 43.3813 41.081 43.3801C41.511 43.3793 41.9369 43.4636 42.3341 43.6282C42.7314 43.7927 43.0922 44.0343 43.3957 44.3389C43.6991 44.6435 43.9394 45.0051 44.1024 45.403C44.2655 45.8009 44.3483 46.2271 44.3459 46.6571Z" fill="#E0E0E0"/>
<path d="M60.1087 73.3405L15.5703 73.426L15.6387 109.034L60.177 108.948L60.1087 73.3405Z" fill="#F5F5F5"/>
<path d="M58.5287 75.5821L17.1172 75.6616L17.1769 106.786L58.5884 106.707L58.5287 75.5821Z" fill="#EBEBEB"/>
<path d="M17.1484 106.8L31.5765 87.4204L40.561 99.5138L46.6227 93.032L58.56 106.722L17.1484 106.8Z" fill="#E0E0E0"/>
<path d="M44.3459 85.0318C44.3495 85.6769 44.1615 86.3085 43.8059 86.8466C43.4502 87.3848 42.9428 87.8053 42.348 88.0549C41.7532 88.3045 41.0977 88.3719 40.4645 88.2487C39.8313 88.1255 39.249 87.8171 38.7912 87.3627C38.3334 86.9082 38.0207 86.3282 37.8928 85.6959C37.7649 85.0637 37.8275 84.4077 38.0727 83.811C38.3179 83.2144 38.7347 82.7039 39.2702 82.3443C39.8057 81.9847 40.4359 81.7921 41.081 81.7909C41.9432 81.7893 42.771 82.1295 43.3829 82.7369C43.9949 83.3444 44.3411 84.1696 44.3459 85.0318Z" fill="#E0E0E0"/>
<path d="M60.1165 112.057L15.5781 112.143L15.6465 147.751L60.1848 147.665L60.1165 112.057Z" fill="#F5F5F5"/>
<path d="M58.5287 114.305L17.1172 114.384L17.1769 145.509L58.5884 145.43L58.5287 114.305Z" fill="#EBEBEB"/>
<path d="M17.1484 145.517L31.5765 126.143L40.561 138.231L46.6227 131.749L58.56 145.445L17.1484 145.517Z" fill="#E0E0E0"/>
<path d="M44.3459 123.749C44.3471 124.393 44.1571 125.024 43.8 125.56C43.4429 126.097 42.9347 126.515 42.3397 126.763C41.7447 127.011 41.0895 127.077 40.4571 126.952C39.8247 126.827 39.2435 126.518 38.7869 126.063C38.3303 125.608 38.0188 125.028 37.8919 124.396C37.765 123.764 37.8283 123.109 38.0739 122.513C38.3195 121.917 38.7362 121.407 39.2715 121.048C39.8068 120.689 40.4365 120.497 41.081 120.496C41.9449 120.496 42.7735 120.838 43.3854 121.448C43.9974 122.057 44.3428 122.885 44.3459 123.749Z" fill="#E0E0E0"/>
<path d="M184.401 29.0662H64.7031V148.764H184.401V29.0662Z" fill="#F5F5F5"/>
<path d="M184.395 148.764C184.395 147.611 184.341 100.822 184.263 29.0661L184.395 29.2042H64.7156L64.8716 29.0481C64.8716 72.8604 64.8716 113.96 64.8716 148.746L64.7396 148.607L184.431 148.746L64.7396 148.878H64.6016V148.746C64.6016 113.936 64.6016 72.8784 64.6016 29.0481V28.8921H64.7696H184.449H184.587V29.0241C184.449 100.822 184.395 147.611 184.395 148.764Z" fill="#263238"/>
<path d="M173.664 141.628C174.858 141.473 176.062 141.421 177.265 141.472L177.109 141.628V140.913C177.109 140.685 177.109 140.463 177.109 140.241C177.109 139.845 177.109 139.467 177.139 139.095C177.121 138.739 177.16 138.383 177.253 138.039C177.338 138.384 177.375 138.739 177.361 139.095C177.361 139.467 177.361 139.845 177.397 140.241C177.397 140.463 177.397 140.685 177.397 140.913V141.628L177.241 141.784C176.046 141.837 174.85 141.784 173.664 141.628Z" fill="#455A64"/>
<path d="M158.547 141.628C161.061 141.42 163.589 141.42 166.103 141.628C163.589 141.836 161.061 141.836 158.547 141.628Z" fill="#455A64"/>
<path d="M143.438 141.628C145.952 141.42 148.479 141.42 150.994 141.628C148.479 141.836 145.952 141.836 143.438 141.628Z" fill="#455A64"/>
<path d="M128.328 141.628C130.843 141.42 133.37 141.42 135.884 141.628C133.37 141.836 130.843 141.836 128.328 141.628Z" fill="#455A64"/>
<path d="M113.219 141.628C115.733 141.42 118.26 141.42 120.775 141.628C118.26 141.836 115.733 141.836 113.219 141.628Z" fill="#455A64"/>
<path d="M98.1016 141.628C100.616 141.42 103.143 141.42 105.658 141.628C103.143 141.836 100.616 141.836 98.1016 141.628Z" fill="#455A64"/>
<path d="M82.9922 141.628C84.2462 141.473 85.5108 141.421 86.7733 141.471C88.0338 141.421 89.2962 141.473 90.5483 141.628C89.2965 141.785 88.0338 141.838 86.7733 141.784C85.5108 141.838 84.2459 141.785 82.9922 141.628Z" fill="#455A64"/>
<path d="M71.8374 138.027C71.9916 139.22 72.0438 140.425 71.9935 141.628L71.8374 141.472H73.2418L74.3821 141.508C74.7376 141.494 75.0931 141.53 75.4384 141.616C75.0945 141.709 74.738 141.747 74.3821 141.73L73.2418 141.76L72.5876 141.808H71.8614L71.7054 141.652C71.6458 140.442 71.6899 139.229 71.8374 138.027Z" fill="#455A64"/>
<path d="M71.831 122.914C71.9853 124.168 72.0375 125.433 71.987 126.695C72.0377 127.956 71.9855 129.218 71.831 130.47C71.6765 129.218 71.6243 127.956 71.6749 126.695C71.6245 125.433 71.6767 124.168 71.831 122.914Z" fill="#455A64"/>
<path d="M71.831 107.802C71.9853 109.056 72.0375 110.321 71.987 111.583C72.0377 112.844 71.9855 114.106 71.831 115.358C71.6765 114.106 71.6243 112.844 71.6749 111.583C71.6245 110.321 71.6767 109.056 71.831 107.802Z" fill="#455A64"/>
<path d="M71.831 92.6958C71.9855 93.9478 72.0377 95.2104 71.987 96.4709C72.0375 97.7334 71.9853 98.9979 71.831 100.252C71.6767 98.9979 71.6245 97.7334 71.6749 96.4709C71.6243 95.2104 71.6765 93.9478 71.831 92.6958Z" fill="#455A64"/>
<path d="M71.831 77.5897C71.9855 78.8417 72.0377 80.1043 71.987 81.3648C72.0375 82.6273 71.9853 83.8918 71.831 85.1458C71.6767 83.8918 71.6245 82.6273 71.6749 81.3648C71.6243 80.1043 71.6765 78.8417 71.831 77.5897Z" fill="#455A64"/>
<path d="M71.8309 62.4714C71.9851 63.7235 72.0373 64.986 71.987 66.2465C72.0374 67.509 71.9852 68.7735 71.8309 70.0275C71.6766 68.7735 71.6244 67.509 71.6749 66.2465C71.6245 64.986 71.6767 63.7235 71.8309 62.4714Z" fill="#455A64"/>
<path d="M71.8309 47.3593C71.9851 48.6113 72.0373 49.8738 71.987 51.1343C72.0374 52.3968 71.9852 53.6613 71.8309 54.9154C71.6766 53.6613 71.6244 52.3968 71.6749 51.1343C71.6245 49.8738 71.6767 48.6113 71.8309 47.3593Z" fill="#455A64"/>
<path d="M75.4344 36.1782C74.2406 36.3324 73.0359 36.3846 71.8334 36.3342L71.9834 36.1782V36.8924C71.9834 37.1205 71.9834 37.3425 71.9834 37.5646C71.9834 37.9607 71.9834 38.3388 71.9534 38.7109C71.9672 39.0667 71.9288 39.4226 71.8394 39.7672C71.7505 39.4225 71.714 39.0664 71.7313 38.7109C71.7313 38.3388 71.7313 37.9607 71.6953 37.5646C71.6953 37.3425 71.6953 37.1205 71.6953 36.8924C71.6953 36.7724 71.6953 36.6523 71.6953 36.5323V36.1782L71.8514 36.0222C73.048 35.9693 74.2469 36.0215 75.4344 36.1782Z" fill="#455A64"/>
<path d="M90.5483 36.1782C89.2962 36.3324 88.0338 36.3845 86.7733 36.3342C85.5108 36.3847 84.2462 36.3325 82.9922 36.1782C84.2459 36.0202 85.5108 35.968 86.7733 36.0221C88.0338 35.9682 89.2965 36.0204 90.5483 36.1782Z" fill="#455A64"/>
<path d="M105.658 36.1781C103.143 36.3862 100.616 36.3862 98.1016 36.1781C100.616 35.9701 103.143 35.9701 105.658 36.1781Z" fill="#455A64"/>
<path d="M120.775 36.1781C118.26 36.3862 115.733 36.3862 113.219 36.1781C115.733 35.9701 118.26 35.9701 120.775 36.1781Z" fill="#455A64"/>
<path d="M135.884 36.1781C133.37 36.3862 130.843 36.3862 128.328 36.1781C130.843 35.9701 133.37 35.9701 135.884 36.1781Z" fill="#455A64"/>
<path d="M150.994 36.1781C148.479 36.3862 145.952 36.3862 143.438 36.1781C145.952 35.9701 148.479 35.9701 150.994 36.1781Z" fill="#455A64"/>
<path d="M166.103 36.1781C163.589 36.3862 161.061 36.3862 158.547 36.1781C161.061 35.9701 163.589 35.9701 166.103 36.1781Z" fill="#455A64"/>
<path d="M177.265 39.7792C177.107 38.5858 177.055 37.3808 177.109 36.1782C177.421 36.4903 177.193 36.2622 177.259 36.3342H175.861L174.714 36.2982C174.361 36.3115 174.007 36.2751 173.664 36.1902C174.007 36.1007 174.361 36.0623 174.714 36.0762H175.861H176.539H177.259C177.331 36.1422 177.109 35.9201 177.421 36.2322C177.468 37.4168 177.416 38.6033 177.265 39.7792Z" fill="#455A64"/>
<path d="M177.263 54.9154C177.105 53.6616 177.053 52.3968 177.107 51.1343C177.053 49.8738 177.105 48.611 177.263 47.3593C177.417 48.6113 177.469 49.8738 177.419 51.1343C177.469 52.3968 177.417 53.6613 177.263 54.9154Z" fill="#455A64"/>
<path d="M177.263 70.0275C177.105 68.7738 177.053 67.509 177.107 66.2465C177.052 64.986 177.105 63.7232 177.263 62.4714C177.417 63.7235 177.469 64.986 177.419 66.2465C177.469 67.509 177.417 68.7735 177.263 70.0275Z" fill="#455A64"/>
<path d="M177.263 85.1398C177.105 83.8861 177.053 82.6213 177.107 81.3588C177.052 80.0983 177.105 78.8355 177.263 77.5837C177.417 78.8358 177.469 80.0983 177.419 81.3588C177.469 82.6213 177.417 83.8858 177.263 85.1398Z" fill="#455A64"/>
<path d="M177.263 100.252C177.105 98.9982 177.053 97.7334 177.107 96.4709C177.052 95.2104 177.105 93.9475 177.263 92.6958C177.417 93.9478 177.469 95.2104 177.419 96.4709C177.469 97.7334 177.417 98.9979 177.263 100.252Z" fill="#455A64"/>
<path d="M177.263 115.358C177.105 114.107 177.052 112.844 177.107 111.583C177.053 110.321 177.105 109.056 177.263 107.802C177.417 109.056 177.469 110.321 177.419 111.583C177.469 112.844 177.417 114.106 177.263 115.358Z" fill="#455A64"/>
<path d="M177.263 130.47C177.105 129.219 177.052 127.956 177.107 126.695C177.053 125.433 177.105 124.168 177.263 122.914C177.417 124.168 177.469 125.433 177.419 126.695C177.469 127.956 177.417 129.218 177.263 130.47Z" fill="#455A64"/>
<path d="M119.398 68.6171C119.195 68.6158 118.993 68.5896 118.797 68.5391C118.209 68.4024 117.673 68.098 117.255 67.6629C116.911 67.3274 116.647 66.9196 116.481 66.469C116.314 66.0184 116.251 65.5364 116.295 65.0581C116.369 64.4539 116.636 63.8898 117.057 63.4497C117.521 62.9388 118.168 62.6324 118.857 62.5974L118.737 62.7175C118.665 61.8229 118.897 60.93 119.398 60.1848C119.703 59.7978 120.123 59.5182 120.598 59.3865C121.099 59.2694 121.621 59.2694 122.122 59.3865L121.954 59.5426C121.899 58.9828 121.979 58.4179 122.188 57.8956C122.397 57.3732 122.728 56.9089 123.155 56.5417C123.607 56.16 124.138 55.8814 124.709 55.7255L125.141 55.6055L125.585 55.5335C125.882 55.4785 126.184 55.4503 126.486 55.4494C127.736 55.339 128.992 55.6089 130.087 56.2237C130.638 56.5937 131.091 57.0921 131.407 57.6761C131.713 58.2682 131.901 58.9145 131.959 59.5786C131.986 59.8681 131.986 60.1594 131.959 60.4488L131.797 60.2748C132.989 60.1903 134.173 60.5235 135.146 61.2171C136.038 61.9225 136.721 62.8585 137.12 63.9238C137.356 64.4257 137.461 64.9789 137.427 65.5323C137.382 66.074 137.202 66.596 136.904 67.0507C136.62 67.4786 136.247 67.8398 135.81 68.1092C135.372 68.3787 134.882 68.5499 134.372 68.6111L123.533 68.7131H119.686H119.41C119.501 68.703 119.594 68.703 119.686 68.7131L120.49 68.6771L123.539 68.5931L134.342 68.377C134.809 68.3179 135.259 68.1579 135.659 67.9082C136.059 67.6585 136.4 67.325 136.658 66.9307C136.936 66.5131 137.099 66.0298 137.13 65.5294C137.162 65.029 137.061 64.529 136.838 64.0799C136.49 63.0279 135.853 62.0945 135.002 61.3851C134.083 60.7397 132.971 60.4303 131.851 60.5089H131.671V60.3288C131.695 60.0593 131.695 59.7881 131.671 59.5186C131.638 58.9015 131.465 58.2999 131.166 57.7593C130.866 57.2186 130.448 56.7531 129.942 56.3977C128.895 55.8104 127.694 55.5531 126.498 55.6595C125.364 55.6389 124.255 55.9957 123.347 56.6738C122.955 57.0127 122.651 57.4413 122.461 57.9231C122.271 58.4048 122.2 58.9255 122.254 59.4406V59.6326L122.068 59.5906C121.629 59.4634 121.163 59.4617 120.723 59.5858C120.282 59.7099 119.886 59.9548 119.578 60.2928C119.11 61.0011 118.898 61.8482 118.977 62.6935V62.8075H118.857C118.228 62.8369 117.635 63.1129 117.207 63.5757C116.808 63.9791 116.55 64.5016 116.475 65.0641C116.413 65.8127 116.613 66.5594 117.04 67.1774C117.466 67.7955 118.094 68.247 118.815 68.4551C119.199 68.5871 119.398 68.5871 119.398 68.6171Z" fill="#263238"/>
<path d="M129.556 64.9861C128.538 64.0777 127.589 63.0947 126.717 62.0453H126.945L126.891 62.1053C125.963 63.1363 124.96 64.0971 123.891 64.9801C124.741 63.8801 125.674 62.8467 126.681 61.8893L126.741 61.8293L126.855 61.7092L126.969 61.8353C127.909 62.8193 128.774 63.8725 129.556 64.9861Z" fill="#263238"/>
<path d="M126.831 72.0081C126.676 70.3364 126.624 68.6568 126.675 66.9787C126.624 65.3007 126.676 63.6211 126.831 61.9493C126.989 63.6208 127.041 65.3007 126.987 66.9787C127.041 68.6568 126.989 70.3367 126.831 72.0081Z" fill="#263238"/>
<path d="M101.769 82.5591H99.0199L98.4497 83.8554H97.6875L100.034 78.682H100.79L103.143 83.8554H102.369L101.769 82.5591ZM101.511 81.9589L100.394 79.4262L99.278 81.9589H101.511Z" fill="#263238"/>
<path d="M107.435 78.3699V83.8554H106.756V83.2552C106.594 83.47 106.382 83.6421 106.138 83.7571C105.895 83.8721 105.627 83.9264 105.358 83.9154C104.828 83.9154 104.32 83.7049 103.945 83.3301C103.57 82.9553 103.359 82.4469 103.359 81.9169C103.359 81.3868 103.57 80.8785 103.945 80.5037C104.32 80.1289 104.828 79.9183 105.358 79.9183C105.619 79.9087 105.88 79.9607 106.117 80.0702C106.355 80.1796 106.564 80.3435 106.726 80.5485V78.3879L107.435 78.3699ZM106.732 81.8989C106.721 81.6403 106.633 81.391 106.481 81.1818C106.328 80.9726 106.118 80.8127 105.876 80.7221C105.633 80.6315 105.37 80.6141 105.117 80.6721C104.865 80.7301 104.636 80.861 104.457 81.0484C104.279 81.2358 104.159 81.4715 104.114 81.7263C104.068 81.981 104.098 82.2435 104.201 82.4812C104.303 82.7189 104.473 82.9212 104.689 83.0631C104.906 83.205 105.159 83.2801 105.418 83.2792C105.598 83.2839 105.776 83.2509 105.942 83.1823C106.108 83.1137 106.258 83.0111 106.382 82.881C106.506 82.7509 106.601 82.5963 106.661 82.4271C106.722 82.2579 106.746 82.078 106.732 81.8989Z" fill="#263238"/>
<path d="M112.474 78.3699V83.8554H111.795V83.2552C111.633 83.47 111.421 83.6421 111.177 83.7571C110.934 83.8721 110.666 83.9264 110.397 83.9154C109.867 83.9154 109.359 83.7049 108.984 83.3301C108.609 82.9553 108.398 82.4469 108.398 81.9169C108.398 81.3868 108.609 80.8785 108.984 80.5037C109.359 80.1289 109.867 79.9183 110.397 79.9183C110.658 79.9096 110.918 79.9621 111.156 80.0715C111.393 80.1809 111.602 80.3442 111.765 80.5485V78.3879L112.474 78.3699ZM111.771 81.8989C111.76 81.6403 111.672 81.391 111.52 81.1818C111.368 80.9726 111.157 80.8127 110.915 80.7221C110.672 80.6315 110.409 80.6141 110.156 80.6721C109.904 80.7301 109.675 80.861 109.496 81.0484C109.318 81.2358 109.198 81.4715 109.153 81.7263C109.107 81.981 109.137 82.2435 109.24 82.4812C109.342 82.7189 109.512 82.9212 109.728 83.0631C109.945 83.205 110.198 83.2801 110.457 83.2792C110.637 83.2839 110.815 83.2509 110.981 83.1823C111.147 83.1137 111.297 83.0111 111.421 82.881C111.545 82.7509 111.64 82.5963 111.7 82.4271C111.761 82.2579 111.785 82.078 111.771 81.8989Z" fill="#263238"/>
<path d="M115.68 78.724C115.68 78.6618 115.692 78.6002 115.717 78.5429C115.741 78.4856 115.777 78.4338 115.821 78.3907C115.866 78.3475 115.919 78.3139 115.977 78.2917C116.036 78.2696 116.098 78.2594 116.16 78.2619C116.221 78.2586 116.283 78.2678 116.34 78.2889C116.398 78.31 116.451 78.3426 116.496 78.3846C116.541 78.4266 116.577 78.4773 116.601 78.5336C116.626 78.5898 116.639 78.6505 116.64 78.712C116.64 78.8393 116.589 78.9615 116.499 79.0515C116.409 79.1415 116.287 79.1921 116.16 79.1921C116.032 79.1921 115.91 79.1415 115.82 79.0515C115.73 78.9615 115.68 78.8393 115.68 78.712V78.724ZM115.806 79.9243H116.514V83.8434H115.794L115.806 79.9243Z" fill="#263238"/>
<path d="M120.065 83.6274C119.822 83.8147 119.52 83.9103 119.213 83.8974C119.049 83.9166 118.883 83.8992 118.726 83.8463C118.57 83.7934 118.427 83.7063 118.308 83.5915C118.189 83.4767 118.097 83.3368 118.039 83.1822C117.981 83.0275 117.957 82.8618 117.971 82.6971V80.5485H117.305V79.9483H117.971V79.0901H118.679V79.9483H119.801V80.5485H118.679V82.6671C118.671 82.7508 118.68 82.8353 118.706 82.9152C118.733 82.9951 118.776 83.0686 118.832 83.1308C118.889 83.1931 118.958 83.2427 119.035 83.2766C119.112 83.3104 119.195 83.3277 119.279 83.3273C119.481 83.33 119.678 83.2644 119.837 83.1412L120.065 83.6274Z" fill="#263238"/>
<path d="M124.315 82.1329H121.14C121.185 82.4687 121.357 82.7746 121.62 82.9878C121.883 83.2009 122.218 83.3052 122.556 83.2792C122.768 83.2871 122.98 83.2488 123.175 83.1669C123.371 83.0851 123.547 82.9616 123.69 82.8051L124.081 83.2612C123.792 83.5558 123.424 83.7604 123.022 83.8501C122.619 83.9398 122.199 83.9108 121.813 83.7665C121.427 83.6223 121.091 83.3691 120.845 83.0375C120.6 82.706 120.456 82.3104 120.432 81.8988C120.42 81.6363 120.462 81.3742 120.557 81.1289C120.651 80.8836 120.794 80.6602 120.978 80.4727C121.162 80.2853 121.383 80.1377 121.627 80.0392C121.87 79.9407 122.131 79.8934 122.394 79.9003C122.657 79.893 122.919 79.9408 123.163 80.0406C123.407 80.1404 123.627 80.29 123.809 80.4799C123.992 80.6697 124.133 80.8956 124.223 81.1431C124.313 81.3905 124.35 81.6541 124.333 81.9168C124.332 81.9892 124.326 82.0615 124.315 82.1329ZM121.14 81.6227H123.654C123.618 81.3152 123.469 81.0318 123.238 80.8262C123.006 80.6206 122.707 80.5071 122.397 80.5071C122.087 80.5071 121.788 80.6206 121.557 80.8262C121.325 81.0318 121.177 81.3152 121.14 81.6227Z" fill="#263238"/>
<path d="M131.819 81.5987V83.8554H131.111V81.6827C131.111 80.9145 130.739 80.5364 130.096 80.5364C129.927 80.5257 129.757 80.553 129.6 80.6161C129.442 80.6793 129.301 80.7769 129.186 80.9017C129.071 81.0264 128.985 81.1753 128.935 81.3375C128.885 81.4996 128.872 81.6709 128.896 81.8388V83.8554H128.188V81.6827C128.188 80.9145 127.822 80.5364 127.174 80.5364C126.525 80.5364 126.003 80.9866 126.003 81.8388V83.8554H125.289V79.9363H125.997V80.5364C126.156 80.3338 126.362 80.1732 126.598 80.0686C126.833 79.9639 127.091 79.9185 127.348 79.9363C127.62 79.9177 127.892 79.9759 128.133 80.1043C128.374 80.2327 128.574 80.4261 128.71 80.6625C128.881 80.4259 129.108 80.2356 129.371 80.1088C129.634 79.982 129.925 79.9227 130.216 79.9363C130.436 79.9199 130.657 79.9522 130.863 80.0309C131.069 80.1095 131.255 80.2325 131.408 80.3913C131.561 80.55 131.677 80.7405 131.748 80.9492C131.819 81.1579 131.843 81.3796 131.819 81.5987Z" fill="#263238"/>
<path d="M135 78.724C135 78.6618 135.012 78.6002 135.037 78.5429C135.061 78.4856 135.097 78.4338 135.142 78.3907C135.186 78.3475 135.24 78.3139 135.298 78.2917C135.356 78.2696 135.418 78.2594 135.48 78.2619C135.542 78.2586 135.603 78.2678 135.661 78.2889C135.718 78.31 135.771 78.3426 135.816 78.3846C135.861 78.4266 135.897 78.4773 135.922 78.5336C135.946 78.5898 135.96 78.6505 135.96 78.712C135.96 78.8393 135.91 78.9615 135.82 79.0515C135.73 79.1415 135.607 79.1921 135.48 79.1921C135.353 79.1921 135.231 79.1415 135.141 79.0515C135.051 78.9615 135 78.8393 135 78.712V78.724ZM135.126 79.9243H135.834V83.8434H135.126V79.9243Z" fill="#263238"/>
<path d="M143.678 81.5988V83.8554H142.97V81.6828C142.97 80.9146 142.598 80.5365 141.956 80.5365C141.786 80.5258 141.617 80.553 141.459 80.6162C141.302 80.6794 141.16 80.7769 141.045 80.9017C140.93 81.0265 140.845 81.1754 140.794 81.3375C140.744 81.4996 140.731 81.6709 140.755 81.8388V83.8554H140.047V81.6828C140.047 80.9146 139.681 80.5365 139.033 80.5365C138.385 80.5365 137.863 80.9866 137.863 81.8388V83.8554H137.148V79.9363H137.833V80.5365C137.992 80.3342 138.198 80.1739 138.434 80.0693C138.669 79.9647 138.926 79.9191 139.183 79.9363C139.455 79.9178 139.727 79.976 139.968 80.1044C140.209 80.2327 140.409 80.4261 140.545 80.6625C140.716 80.4259 140.944 80.2356 141.207 80.1089C141.47 79.9821 141.76 79.9228 142.052 79.9363C142.274 79.9162 142.497 79.9457 142.706 80.0227C142.915 80.0996 143.104 80.2221 143.26 80.3813C143.416 80.5405 143.534 80.7323 143.606 80.9429C143.679 81.1535 143.703 81.3775 143.678 81.5988Z" fill="#263238"/>
<path d="M148.089 81.4908V83.8554H147.416V83.3393C147.266 83.5326 147.07 83.6851 146.846 83.7826C146.621 83.8801 146.376 83.9196 146.132 83.8974C145.244 83.8974 144.68 83.4233 144.68 82.7451C144.68 82.0669 145.088 81.5988 146.258 81.5988H147.38V81.4607C147.38 80.8606 147.032 80.5125 146.33 80.5125C145.879 80.5071 145.44 80.6577 145.088 80.9386L144.794 80.4045C145.261 80.0615 145.829 79.8841 146.408 79.9003C147.482 79.9003 148.089 80.4165 148.089 81.4908ZM147.38 82.6551V82.1089H146.282C145.586 82.1089 145.382 82.385 145.382 82.7091C145.382 83.0332 145.706 83.3453 146.246 83.3453C146.484 83.364 146.721 83.3074 146.925 83.1835C147.128 83.0596 147.288 82.8747 147.38 82.6551Z" fill="#263238"/>
<path d="M153.171 79.9363V83.3212C153.171 84.7076 152.469 85.3318 151.137 85.3318C150.464 85.3551 149.804 85.1428 149.27 84.7316L149.606 84.1855C150.039 84.5205 150.572 84.7002 151.119 84.6956C152.043 84.6956 152.463 84.2635 152.463 83.3812V83.0691C152.287 83.2668 152.069 83.4231 151.825 83.5268C151.581 83.6305 151.318 83.6792 151.053 83.6693C150.804 83.6693 150.557 83.6203 150.327 83.5249C150.097 83.4296 149.888 83.2899 149.712 83.1138C149.536 82.9377 149.396 82.7286 149.301 82.4985C149.205 82.2684 149.156 82.0218 149.156 81.7728C149.156 81.5237 149.205 81.2771 149.301 81.047C149.396 80.8169 149.536 80.6078 149.712 80.4317C149.888 80.2556 150.097 80.1159 150.327 80.0206C150.557 79.9253 150.804 79.8762 151.053 79.8762C151.327 79.8661 151.6 79.9186 151.85 80.0299C152.101 80.1412 152.323 80.3083 152.499 80.5184V79.9183L153.171 79.9363ZM152.475 81.7908C152.49 81.5208 152.423 81.2528 152.283 81.0213C152.143 80.7898 151.938 80.6056 151.692 80.4924C151.447 80.3793 151.173 80.3424 150.906 80.3865C150.639 80.4307 150.392 80.5539 150.196 80.7402C150 80.9265 149.865 81.1672 149.807 81.4314C149.75 81.6955 149.773 81.9708 149.873 82.2217C149.974 82.4726 150.148 82.6874 150.372 82.8385C150.596 82.9896 150.86 83.07 151.131 83.0691C151.305 83.0827 151.48 83.0594 151.645 83.0008C151.81 82.9422 151.961 82.8497 152.088 82.7292C152.214 82.6086 152.314 82.4628 152.381 82.3012C152.448 82.1395 152.48 81.9656 152.475 81.7908Z" fill="#263238"/>
<path d="M158.049 82.1329H154.874C154.919 82.4687 155.091 82.7746 155.354 82.9878C155.618 83.2009 155.953 83.3052 156.291 83.2792C156.503 83.2871 156.714 83.2488 156.91 83.1669C157.106 83.0851 157.281 82.9616 157.425 82.8051L157.815 83.2612C157.526 83.5558 157.159 83.7604 156.756 83.8501C156.354 83.9398 155.934 83.9108 155.547 83.7665C155.161 83.6223 154.825 83.3691 154.58 83.0375C154.335 82.706 154.191 82.3104 154.166 81.8988C154.154 81.6363 154.197 81.3742 154.291 81.1289C154.385 80.8836 154.528 80.6602 154.713 80.4727C154.897 80.2853 155.117 80.1377 155.361 80.0392C155.605 79.9407 155.866 79.8934 156.128 79.9003C156.392 79.893 156.654 79.9408 156.897 80.0406C157.141 80.1404 157.361 80.29 157.544 80.4799C157.726 80.6697 157.867 80.8956 157.957 81.1431C158.047 81.3905 158.085 81.6541 158.067 81.9168C158.067 81.9892 158.061 82.0615 158.049 82.1329ZM154.874 81.6227H157.389C157.352 81.3152 157.204 81.0318 156.972 80.8262C156.74 80.6206 156.441 80.5071 156.131 80.5071C155.822 80.5071 155.523 80.6206 155.291 80.8262C155.059 81.0318 154.911 81.3152 154.874 81.6227Z" fill="#263238"/>
<path d="M124.713 111.247H90.8939C90.334 111.246 89.7976 111.022 89.4018 110.627C89.0059 110.231 88.7828 109.694 88.7812 109.135C88.7828 108.575 89.0059 108.038 89.4018 107.642C89.7976 107.247 90.334 107.024 90.8939 107.022H124.713C125.274 107.022 125.811 107.245 126.207 107.641C126.603 108.037 126.826 108.574 126.826 109.135C126.826 109.695 126.603 110.232 126.207 110.628C125.811 111.025 125.274 111.247 124.713 111.247Z" fill="#407BFF"/>
<path d="M116.906 116V118.245H116.516V117.909C116.428 118.027 116.313 118.121 116.18 118.184C116.047 118.246 115.901 118.276 115.754 118.269C115.623 118.284 115.49 118.268 115.365 118.224C115.24 118.18 115.127 118.108 115.034 118.014C114.941 117.92 114.871 117.806 114.828 117.681C114.785 117.555 114.772 117.422 114.788 117.291V116H115.196V117.249C115.196 117.687 115.418 117.909 115.796 117.909C115.894 117.915 115.992 117.9 116.083 117.863C116.174 117.827 116.256 117.771 116.322 117.699C116.389 117.627 116.439 117.542 116.468 117.448C116.498 117.355 116.506 117.256 116.492 117.159V116H116.906Z" fill="#263238"/>
<path d="M120.001 117.117C120.008 117.268 119.984 117.42 119.93 117.561C119.876 117.703 119.793 117.832 119.686 117.94C119.579 118.048 119.451 118.132 119.31 118.188C119.169 118.243 119.018 118.269 118.866 118.263C118.716 118.269 118.567 118.239 118.43 118.177C118.294 118.114 118.174 118.02 118.08 117.903V119.061H117.672V116H118.062V116.355C118.157 116.233 118.279 116.135 118.419 116.069C118.558 116.003 118.712 115.971 118.866 115.976C119.017 115.97 119.168 115.996 119.309 116.051C119.449 116.106 119.577 116.19 119.684 116.298C119.79 116.405 119.874 116.533 119.928 116.674C119.983 116.815 120.007 116.966 120.001 117.117ZM119.592 117.117C119.587 116.967 119.537 116.823 119.45 116.702C119.362 116.58 119.241 116.487 119.102 116.434C118.962 116.381 118.81 116.37 118.664 116.403C118.518 116.436 118.385 116.511 118.282 116.618C118.178 116.726 118.108 116.862 118.081 117.009C118.054 117.156 118.071 117.307 118.129 117.445C118.188 117.583 118.285 117.7 118.41 117.782C118.535 117.865 118.681 117.909 118.83 117.909C118.935 117.913 119.039 117.896 119.136 117.857C119.233 117.819 119.321 117.76 119.394 117.686C119.467 117.611 119.524 117.522 119.56 117.424C119.596 117.326 119.611 117.221 119.604 117.117H119.592Z" fill="#263238"/>
<path d="M120.594 115.094H121.002V118.239H120.594V115.094Z" fill="#263238"/>
<path d="M121.555 117.117C121.551 116.886 121.614 116.658 121.739 116.463C121.863 116.268 122.043 116.115 122.254 116.022C122.466 115.929 122.7 115.9 122.928 115.94C123.156 115.98 123.366 116.087 123.534 116.247C123.701 116.406 123.817 116.612 123.867 116.838C123.918 117.063 123.9 117.299 123.817 117.514C123.734 117.73 123.589 117.916 123.4 118.049C123.211 118.183 122.987 118.257 122.756 118.263C122.599 118.275 122.443 118.254 122.295 118.201C122.148 118.148 122.013 118.065 121.9 117.957C121.787 117.849 121.698 117.718 121.638 117.574C121.579 117.429 121.551 117.273 121.555 117.117ZM123.482 117.117C123.491 117.011 123.478 116.905 123.445 116.805C123.411 116.705 123.356 116.613 123.285 116.535C123.213 116.457 123.127 116.394 123.03 116.352C122.933 116.309 122.828 116.287 122.723 116.287C122.617 116.287 122.512 116.309 122.415 116.352C122.318 116.394 122.232 116.457 122.16 116.535C122.089 116.613 122.034 116.705 122 116.805C121.967 116.905 121.954 117.011 121.963 117.117C121.954 117.222 121.967 117.328 122 117.428C122.034 117.529 122.089 117.621 122.16 117.699C122.232 117.777 122.318 117.839 122.415 117.882C122.512 117.924 122.617 117.946 122.723 117.946C122.828 117.946 122.933 117.924 123.03 117.882C123.127 117.839 123.213 117.777 123.285 117.699C123.356 117.621 123.411 117.529 123.445 117.428C123.478 117.328 123.491 117.222 123.482 117.117Z" fill="#263238"/>
<path d="M126.214 116.883V118.239H125.824V117.945C125.739 118.057 125.626 118.145 125.497 118.2C125.367 118.256 125.226 118.278 125.086 118.263C124.582 118.263 124.258 117.993 124.258 117.603C124.258 117.213 124.492 116.949 125.158 116.949H125.806V116.865C125.806 116.523 125.608 116.324 125.206 116.324C124.948 116.32 124.695 116.405 124.492 116.565L124.324 116.258C124.591 116.061 124.916 115.96 125.248 115.97C125.866 116 126.214 116.27 126.214 116.883ZM125.806 117.555V117.243H125.176C124.774 117.243 124.66 117.399 124.66 117.585C124.66 117.771 124.846 117.951 125.158 117.951C125.294 117.961 125.43 117.929 125.546 117.858C125.663 117.787 125.754 117.681 125.806 117.555Z" fill="#263238"/>
<path d="M129.1 115.094V118.239H128.71V117.885C128.618 118.008 128.497 118.107 128.358 118.173C128.219 118.239 128.066 118.27 127.912 118.263C127.608 118.263 127.316 118.142 127.101 117.927C126.886 117.712 126.766 117.421 126.766 117.117C126.766 116.813 126.886 116.521 127.101 116.306C127.316 116.091 127.608 115.97 127.912 115.97C128.061 115.965 128.209 115.995 128.345 116.058C128.48 116.12 128.599 116.214 128.692 116.33V115.094H129.1ZM128.698 117.117C128.691 116.969 128.641 116.826 128.554 116.707C128.466 116.587 128.346 116.496 128.207 116.444C128.069 116.392 127.918 116.383 127.774 116.416C127.629 116.449 127.498 116.523 127.396 116.631C127.294 116.738 127.225 116.872 127.199 117.018C127.172 117.164 127.189 117.314 127.247 117.45C127.306 117.586 127.402 117.702 127.526 117.784C127.649 117.865 127.794 117.909 127.942 117.909C128.045 117.912 128.148 117.893 128.243 117.854C128.339 117.814 128.425 117.755 128.496 117.681C128.567 117.606 128.622 117.517 128.657 117.42C128.692 117.323 128.706 117.22 128.698 117.117Z" fill="#263238"/>
<path d="M129.805 115.298C129.803 115.243 129.817 115.189 129.846 115.142C129.874 115.095 129.917 115.058 129.967 115.035C130.017 115.012 130.073 115.005 130.127 115.014C130.181 115.023 130.232 115.049 130.272 115.087C130.311 115.125 130.339 115.174 130.351 115.228C130.362 115.282 130.358 115.338 130.337 115.389C130.317 115.44 130.281 115.484 130.236 115.515C130.19 115.546 130.136 115.562 130.081 115.562C130.045 115.564 130.01 115.558 129.976 115.546C129.943 115.533 129.912 115.514 129.886 115.489C129.861 115.465 129.84 115.435 129.826 115.402C129.812 115.369 129.805 115.334 129.805 115.298ZM129.877 115.994H130.285V118.239H129.877V115.994Z" fill="#263238"/>
<path d="M133.201 116.949V118.239H132.793V116.997C132.793 116.553 132.571 116.336 132.193 116.336C132.094 116.329 131.995 116.343 131.903 116.378C131.811 116.413 131.727 116.468 131.659 116.539C131.591 116.611 131.539 116.696 131.508 116.79C131.477 116.883 131.467 116.983 131.478 117.081V118.239H131.07V116H131.46V116.336C131.557 116.217 131.681 116.121 131.822 116.059C131.963 115.996 132.117 115.968 132.271 115.976C132.399 115.968 132.527 115.987 132.647 116.034C132.767 116.08 132.875 116.152 132.963 116.245C133.052 116.338 133.119 116.449 133.16 116.57C133.201 116.692 133.215 116.821 133.201 116.949Z" fill="#263238"/>
<path d="M136.11 116V117.939C136.134 118.097 136.12 118.258 136.07 118.41C136.019 118.562 135.934 118.699 135.821 118.812C135.707 118.925 135.569 119.009 135.417 119.059C135.265 119.108 135.104 119.122 134.946 119.097C134.56 119.114 134.18 118.995 133.872 118.761L134.064 118.443C134.311 118.638 134.619 118.742 134.934 118.737C135.462 118.737 135.702 118.491 135.702 117.981V117.801C135.602 117.916 135.477 118.007 135.337 118.067C135.196 118.127 135.044 118.155 134.892 118.149C134.742 118.16 134.592 118.14 134.45 118.091C134.308 118.041 134.178 117.962 134.068 117.86C133.958 117.758 133.87 117.634 133.81 117.496C133.75 117.359 133.719 117.21 133.719 117.06C133.719 116.909 133.75 116.761 133.81 116.623C133.87 116.485 133.958 116.361 134.068 116.259C134.178 116.157 134.308 116.079 134.45 116.029C134.592 115.979 134.742 115.959 134.892 115.97C135.05 115.964 135.208 115.995 135.352 116.059C135.497 116.124 135.625 116.221 135.726 116.343V116H136.11ZM135.714 117.063C135.721 116.908 135.682 116.755 135.602 116.623C135.521 116.491 135.403 116.386 135.262 116.322C135.121 116.258 134.965 116.238 134.812 116.263C134.66 116.289 134.518 116.36 134.407 116.466C134.295 116.573 134.217 116.711 134.184 116.862C134.151 117.013 134.165 117.17 134.222 117.314C134.279 117.458 134.378 117.581 134.506 117.668C134.634 117.754 134.785 117.801 134.94 117.801C135.041 117.808 135.142 117.793 135.237 117.759C135.332 117.724 135.419 117.67 135.492 117.6C135.564 117.53 135.622 117.445 135.66 117.352C135.699 117.258 135.717 117.158 135.714 117.057V117.063Z" fill="#263238"/>
<path d="M136.697 117.975C136.696 117.937 136.703 117.899 136.717 117.864C136.731 117.828 136.753 117.796 136.779 117.769C136.806 117.742 136.838 117.721 136.874 117.707C136.909 117.693 136.947 117.686 136.985 117.687C137.065 117.687 137.141 117.718 137.197 117.775C137.253 117.831 137.285 117.907 137.285 117.987C137.285 118.067 137.253 118.143 137.197 118.199C137.141 118.255 137.065 118.287 136.985 118.287C136.945 118.288 136.905 118.281 136.868 118.265C136.831 118.249 136.797 118.226 136.77 118.196C136.743 118.167 136.722 118.132 136.71 118.094C136.697 118.055 136.693 118.015 136.697 117.975Z" fill="#263238"/>
<path d="M137.658 117.975C137.657 117.937 137.664 117.899 137.678 117.864C137.692 117.828 137.714 117.796 137.74 117.769C137.767 117.742 137.799 117.721 137.835 117.707C137.87 117.693 137.908 117.686 137.946 117.687C138.026 117.687 138.102 117.718 138.158 117.775C138.214 117.831 138.246 117.907 138.246 117.987C138.246 118.067 138.214 118.143 138.158 118.199C138.102 118.255 138.026 118.287 137.946 118.287C137.906 118.288 137.866 118.281 137.829 118.265C137.792 118.249 137.758 118.226 137.731 118.196C137.704 118.167 137.683 118.132 137.67 118.094C137.658 118.055 137.654 118.015 137.658 117.975Z" fill="#263238"/>
<path d="M138.603 117.975C138.602 117.937 138.609 117.899 138.623 117.864C138.638 117.828 138.659 117.796 138.686 117.769C138.713 117.742 138.745 117.721 138.78 117.707C138.815 117.693 138.853 117.686 138.891 117.687C138.971 117.687 139.047 117.718 139.103 117.775C139.16 117.831 139.191 117.907 139.191 117.987C139.191 118.067 139.16 118.143 139.103 118.199C139.047 118.255 138.971 118.287 138.891 118.287C138.851 118.288 138.811 118.281 138.774 118.265C138.737 118.249 138.704 118.226 138.676 118.196C138.649 118.167 138.628 118.132 138.616 118.094C138.603 118.055 138.599 118.015 138.603 117.975Z" fill="#263238"/>
<path d="M124.243 102.797C124.243 103.505 123.733 104.081 122.676 104.081C122.129 104.093 121.595 103.915 121.164 103.577L121.434 103.115C121.779 103.406 122.219 103.562 122.67 103.553C123.271 103.553 123.649 103.265 123.649 102.815C123.649 102.364 123.355 102.064 122.4 102.064H121.464L121.68 99.9038H124.009V100.396H122.178L122.064 101.53H122.526C123.757 101.518 124.243 102.034 124.243 102.797Z" fill="#407BFF"/>
<path d="M124.734 101.939C124.734 100.594 125.455 99.8259 126.421 99.8259C127.387 99.8259 128.101 100.594 128.101 101.939C128.101 103.283 127.381 104.051 126.421 104.051C125.461 104.051 124.734 103.283 124.734 101.939ZM127.513 101.939C127.513 100.882 127.063 100.354 126.421 100.354C125.779 100.354 125.323 100.882 125.323 101.939C125.323 102.995 125.773 103.523 126.421 103.523C127.069 103.523 127.513 102.995 127.513 101.939Z" fill="#407BFF"/>
<path d="M128.603 100.996C128.584 100.858 128.595 100.717 128.634 100.583C128.674 100.449 128.741 100.325 128.831 100.218C128.922 100.112 129.034 100.026 129.16 99.9652C129.286 99.9049 129.423 99.8717 129.563 99.8679C130.133 99.8679 130.517 100.318 130.517 100.996C130.517 101.674 130.133 102.119 129.563 102.119C129.423 102.116 129.286 102.083 129.16 102.024C129.034 101.964 128.922 101.878 128.832 101.772C128.741 101.666 128.674 101.542 128.634 101.409C128.595 101.275 128.584 101.134 128.603 100.996ZM130.139 100.996C130.139 100.498 129.923 100.204 129.539 100.204C129.155 100.204 128.939 100.504 128.939 100.996C128.939 101.488 129.167 101.782 129.539 101.782C129.911 101.782 130.139 101.458 130.139 100.996ZM132.048 99.9039H132.504L129.683 104.033H129.233L132.048 99.9039ZM131.219 102.941C131.249 102.757 131.331 102.586 131.455 102.448C131.579 102.309 131.74 102.21 131.919 102.16C132.098 102.11 132.288 102.113 132.466 102.168C132.643 102.223 132.801 102.327 132.921 102.469C133.041 102.611 133.118 102.784 133.143 102.968C133.167 103.153 133.139 103.34 133.06 103.508C132.981 103.677 132.856 103.819 132.699 103.919C132.542 104.018 132.359 104.07 132.174 104.069C132.032 104.065 131.892 104.031 131.764 103.968C131.637 103.906 131.524 103.816 131.433 103.707C131.343 103.597 131.277 103.469 131.24 103.332C131.203 103.195 131.196 103.051 131.219 102.911V102.941ZM132.75 102.941C132.75 102.455 132.528 102.149 132.15 102.149C131.772 102.149 131.549 102.449 131.549 102.941C131.549 103.433 131.766 103.733 132.15 103.733C132.534 103.733 132.75 103.397 132.75 102.911V102.941Z" fill="#407BFF"/>
<path d="M159.955 111.247C159.955 111.247 160.087 111.247 160.339 111.193C160.829 111.095 161.268 110.824 161.575 110.429C161.882 110.035 162.038 109.544 162.014 109.045C161.995 108.628 161.849 108.227 161.596 107.896C161.343 107.564 160.994 107.318 160.597 107.19C160.109 107.081 159.608 107.047 159.109 107.088H157.435H153.63H144.369L90.726 107.13C90.4224 107.13 90.123 107.201 89.8513 107.336C89.5796 107.472 89.3428 107.668 89.1595 107.91C88.9773 108.151 88.8533 108.43 88.797 108.727C88.7407 109.023 88.7538 109.329 88.8351 109.619C88.9165 109.91 89.0639 110.177 89.266 110.402C89.468 110.626 89.7192 110.8 89.9998 110.911C90.2811 111.018 90.5816 111.065 90.882 111.049H113.616L137.737 111.085L153.996 111.133H158.413H159.565H159.955H159.565H158.413L153.996 111.163L137.737 111.211L113.616 111.247H99.3744H90.882C90.5405 111.261 90.1996 111.206 89.8798 111.085C89.3898 110.889 88.9834 110.529 88.7306 110.066C88.4777 109.602 88.3942 109.066 88.4944 108.548C88.5946 108.03 88.8722 107.563 89.2795 107.227C89.6869 106.892 90.1983 106.709 90.726 106.71L144.369 106.758H153.63H157.435H159.109C159.62 106.723 160.133 106.761 160.633 106.872C161.049 107.013 161.413 107.276 161.676 107.628C161.94 107.979 162.091 108.402 162.11 108.84C162.122 109.159 162.063 109.476 161.937 109.768C161.812 110.061 161.623 110.322 161.384 110.533C161.092 110.793 160.732 110.964 160.345 111.025C160.227 111.119 160.096 111.193 159.955 111.247Z" fill="#263238"/>
</svg>
