<svg width="442" height="287" viewBox="0 0 442 287" fill="none" xmlns="http://www.w3.org/2000/svg">
<path d="M3.68975 286.636L151.477 285.856L190.878 285.838H203.936L243.407 285.821L423.727 285.769C423.727 285.769 464.966 232.415 420.918 181.747C375.239 129.208 353.025 171.988 338.995 98.041C303.652 -88.1095 -45.7693 20.2284 45.8825 178.644C78.8494 235.708 -19.1148 205.391 3.68975 286.636Z" fill="#EBF3FA"/>
<path d="M192.542 281.02L191.605 274.329L195.507 271.07L196.739 279.928L192.542 281.02Z" fill="#FFB27D"/>
<path d="M205.498 287H189.595C189.595 287 189.214 284.573 190.046 282.736C190.844 280.968 192.075 279.875 192.196 278.523C193.202 279.563 194.451 280.24 196.757 279.927C197.035 280.378 198.578 282.822 199.515 283.498C200.538 284.261 205.185 283.984 205.498 287Z" fill="#233862"/>
<path d="M202.305 190.709C201.265 199.082 200.415 206.969 199.721 214.318C196.01 253.493 196.739 277.432 196.739 277.432C196.739 277.432 196.478 278.142 194.172 278.142C192.871 278.142 191.605 277.865 191.605 277.865C191.605 277.865 183.316 252.28 183.958 237.737C184.027 235.986 184.235 234.391 184.599 233.022C186.594 225.568 177.246 197.088 187.409 186.497C197.571 175.889 202.774 186.861 202.305 190.709Z" fill="#F99746"/>
<path d="M202.305 190.709C201.265 199.082 200.415 206.969 199.721 214.318L183.958 237.737C184.027 235.986 184.235 234.391 184.599 233.022C186.594 225.568 177.246 197.088 187.409 186.497C197.571 175.889 202.774 186.861 202.305 190.709Z" fill="#ED7D2B"/>
<path d="M214.828 110.903C214.828 110.903 214.446 108.997 214.013 107.541C213.822 106.899 215.157 102.652 216.076 102.132C216.995 101.612 219.406 104.472 218.712 106.656C218.365 107.783 217.793 111.441 217.793 111.441L214.828 110.903Z" fill="#FFB27D"/>
<path d="M214.827 110.903C214.827 110.903 214.324 109.794 213.873 109.621C213.422 109.447 212.937 107.627 212.607 106.916C212.607 106.916 212.92 106.448 213.492 107.055C213.839 107.419 214.602 108.511 214.602 108.511L214.827 110.903Z" fill="#FFB27D"/>
<path d="M149.153 117.334C149.049 117.542 148.928 117.889 148.806 118.235C148.806 118.149 148.806 118.045 148.806 117.958C148.806 117.282 146.292 113.625 145.251 113.399C144.211 113.174 142.754 116.606 144.055 118.495C144.714 119.466 146.344 122.812 146.344 122.812L149.032 121.425C149.032 121.425 149.188 120.212 149.569 119.917C149.951 119.605 149.882 117.733 149.986 116.953C149.951 116.953 149.5 116.589 149.153 117.334Z" fill="#FFB27D"/>
<path d="M165.854 279.009C165.628 276.859 165.576 271.226 165.576 271.226C165.576 271.226 171.334 269.388 171.108 270.654C170.068 276.859 170.345 279.927 170.345 279.927L168.021 281.314L165.854 279.009Z" fill="#FFB27D"/>
<path d="M197.503 190.31C197.503 190.31 175.288 251.17 170.918 277.57C170.918 277.57 169.912 278.263 168.021 278.038C165.871 277.778 165.299 276.287 165.299 276.287C165.299 276.287 161.293 244.653 169.27 233.663C174.75 226.123 166.912 192.963 179.675 190.31C192.404 187.641 197.503 190.31 197.503 190.31Z" fill="#F99746"/>
<path d="M193.549 131.756C193.549 131.721 193.532 131.704 193.532 131.669C193.411 131.132 193.255 130.612 193.116 130.075C192.648 128.48 192.093 126.954 191.503 125.602C191.156 124.84 190.809 124.112 190.445 123.488C190.393 123.384 190.341 123.297 190.289 123.21C189.439 121.771 188.555 120.766 187.757 120.471C186.3 119.917 184.688 120.073 183.578 120.298C183.821 119.951 184.375 119.761 184.375 119.761C183.664 119.761 182.208 120.679 182.208 120.679C171.976 118.391 172.583 132.865 173.277 136.141C173.97 139.418 170.675 141.012 166.028 144.375C157.166 150.771 157.305 157.566 157.305 157.566C157.392 157.601 157.478 157.636 157.565 157.688C157.929 156.804 158.675 155.14 159.473 154.793C159.455 154.88 158.814 157.029 158.623 158.225C159.975 158.97 161.848 160.114 163.877 161.414C166.6 163.148 169.583 165.159 171.993 166.771C171.872 166.112 171.768 165.176 171.941 164.639L172.704 167.013L172.808 167.325C174.335 168.365 175.548 169.197 176.173 169.613C176.242 169.648 176.294 169.7 176.346 169.735C176.52 169.856 176.624 169.926 176.624 169.926C176.416 169.093 177.317 166.909 178.809 164.153C178.913 163.963 179.017 163.772 179.138 163.564C179.624 162.697 180.161 161.778 180.751 160.825C180.959 160.478 181.167 160.149 181.393 159.802C181.566 159.525 181.74 159.248 181.93 158.953C182.364 158.277 182.815 157.601 183.283 156.925C184.48 155.174 185.728 153.423 186.977 151.829C188.78 149.506 190.549 147.478 192.041 146.161C192.093 146.057 192.127 145.953 192.179 145.849C192.405 145.311 192.596 144.704 192.734 144.098C192.769 143.907 192.821 143.734 192.856 143.543C193.22 141.602 193.237 139.66 193.22 139.21C193.341 141.082 193.289 142.503 193.168 143.578C193.133 143.82 193.116 144.028 193.081 144.236C192.994 144.687 192.908 145.068 192.821 145.38C193.064 145.086 193.272 144.756 193.463 144.392C193.584 144.15 193.705 143.907 193.792 143.647C194.919 140.596 194.59 136.037 193.549 131.756Z" fill="#163560"/>
<path d="M191.641 146.421C191.675 146.438 188.779 148.535 186.317 148.241C184.01 147.963 182.12 145.294 182.155 145.294C183.074 144.965 183.143 143.63 182.293 138.083L182.727 138.1L190.097 138.447C190.097 138.447 190.271 140.718 190.583 142.85C190.843 144.618 191.207 146.282 191.641 146.421Z" fill="#FFB27D"/>
<path d="M190.097 138.447C190.097 138.447 190.27 140.718 190.582 142.85C186.559 143.335 183.906 139.99 182.727 138.101L190.097 138.447Z" fill="#ED975D"/>
<path d="M181.877 137.424C181.877 137.424 179.293 134.426 178.356 131.67C177.697 129.693 177.611 122.049 185.31 122.014C185.31 122.014 187.53 121.91 189.802 122.985C191.605 123.852 194.328 125.88 192.646 132.814L192.282 135.119L181.877 137.424Z" fill="#163560"/>
<path d="M203.225 189.132C203.225 189.132 193.635 194.818 181.617 191.905C181.478 191.871 171.715 190.311 171.715 190.311C171.888 189.86 173.137 182.302 173.31 181.886C175.443 176.374 179.345 146.49 182.606 145.017C183.438 145.918 185.814 146.542 187.86 146.369C190.201 146.161 190.982 145.156 190.791 144.063C193.392 145.294 195.387 146.421 195.387 146.421C197.745 149.974 203.225 189.132 203.225 189.132Z" fill="white"/>
<path d="M191.727 140.25C191.727 140.25 182.276 141.81 181.391 135.916C180.507 130.023 178.686 126.244 184.686 124.996C190.686 123.748 192.195 125.828 192.976 127.717C193.756 129.624 194.172 139.695 191.727 140.25Z" fill="#FFB27D"/>
<path d="M188.987 124.216C188.987 124.216 187.427 131.513 183.594 133.143C179.762 134.755 177.889 133.94 177.889 133.94C177.889 133.94 180.577 131.063 180.577 126.729C180.577 126.729 186.542 121.217 188.987 124.216Z" fill="#163560"/>
<path d="M188.432 124.875C188.432 124.875 190.599 126.123 191.293 127.561C191.987 129 192.663 132.051 193.547 131.808C193.547 131.808 194.796 126.816 192.212 124.476C189.455 122.015 188.432 124.875 188.432 124.875Z" fill="#163560"/>
<path d="M217.862 111.042C217.48 110.903 216.908 110.591 216.18 110.522C215.521 110.47 214.688 110.678 214.688 110.678C214.688 110.678 212.017 127.249 211.827 128.116C211.636 129 200.398 141.637 197.364 141.602C194.624 141.55 191.381 143.665 190.791 144.081C190.791 144.081 197.155 157.549 197.485 160.08C197.832 162.836 201.127 205.218 201.127 205.218C201.127 205.218 200.936 207.194 204.613 206.137C208.306 205.079 209.225 204.195 209.225 204.195C209.225 204.195 205.844 170.827 205.133 160.461C205.046 159.075 204.803 157.775 204.491 156.596C204.179 155.452 204.422 154.221 205.133 153.268C209.798 146.872 217.151 136.523 217.567 134.322C218.139 131.028 217.862 111.042 217.862 111.042Z" fill="#2B478B"/>
<path d="M179.12 287H163.201C163.201 287 162.819 284.573 163.651 282.736C164.449 280.968 165.68 279.875 165.802 278.523C166.808 279.563 168.056 280.24 170.363 279.927C170.64 280.378 172.184 282.822 173.12 283.498C174.161 284.261 178.791 283.984 179.12 287Z" fill="#233862"/>
<path d="M190.045 161.363C189.507 158.069 182.657 144.826 182.657 144.826C182.657 144.826 178.322 143.526 175.478 144.566C172.634 145.606 157.893 137.286 157.425 136.506C156.957 135.726 149.066 121.044 149.066 121.044C149.066 121.044 148.407 120.662 147.367 121.217C146.326 121.755 146.326 122.812 146.326 122.812C146.326 122.812 152.413 141.325 154.043 144.185C155.014 145.918 163.235 151.916 169.616 156.423C170.83 157.289 171.472 158.745 171.264 160.219C170.414 166.546 170.189 170.117 169.2 180.968C168.385 189.981 168.073 207.419 168.073 207.419C168.073 207.419 175.2 209.881 180.125 210.21C185.051 210.54 186.126 205.357 186.126 205.357C186.126 205.357 190.6 164.76 190.045 161.363Z" fill="#2B478B"/>
<path d="M188.641 137.337C188.641 137.337 189.785 138.013 191.138 137.805C192.074 137.667 192.282 136.557 192.282 136.557C192.282 136.557 191.641 136.349 190.6 136.557C189.577 136.765 188.641 137.337 188.641 137.337Z" fill="white"/>
<path d="M73.5599 72.5246C73.5599 72.5246 75.7102 75.4714 75.4848 78.8342C75.3114 81.3303 73.0916 83.8611 72.9355 83.9651L76.4559 85.8371C76.4559 85.8371 79.0572 81.2089 78.1901 77.3435C77.9127 76.1647 76.6814 74.258 75.7623 73.426C74.7391 72.4899 73.5599 72.5246 73.5599 72.5246Z" fill="#6BB7BF"/>
<path d="M66.3799 72.8369L64.1602 67.9141C64.1602 67.9141 74.5479 68.2607 77.999 76.7198C77.9816 76.7198 70.7154 71.5542 66.3799 72.8369Z" fill="#86D1CD"/>
<path d="M27.1366 197.972C27.1366 197.972 24.6567 196.1 24.0151 193.309C23.5469 191.229 24.7261 188.629 24.8302 188.525L21.5179 187.866C21.5179 187.866 20.5294 192.269 22.1942 195.199C22.6971 196.1 24.1885 197.331 25.1423 197.799C26.1828 198.301 27.1366 197.972 27.1366 197.972Z" fill="#6BB7BF"/>
<path d="M32.9113 195.961L35.9287 199.411C35.9287 199.411 27.3965 201.682 22.5235 195.649C22.5061 195.649 29.703 198.076 32.9113 195.961Z" fill="#86D1CD"/>
<path d="M406.888 214.058C406.888 214.058 406.662 210.816 412.767 209.239C415.489 208.528 421.576 209.793 417.726 215.756C413.72 221.979 410.148 219.726 410.148 219.726C410.148 219.726 418.507 213.191 415.16 210.192C411.466 206.899 410.044 213.434 410.044 213.434C410.044 213.434 408.553 213.364 406.888 214.058Z" fill="#F1A34F"/>
<path d="M409.039 220.107C409.039 220.107 406.767 218.876 407.669 216.138L410.946 216.71C410.946 216.71 409.68 219.674 412.767 220.038C412.767 220.038 409.802 220.731 409.039 220.107Z" fill="#DB7714"/>
<path d="M195.404 46.1429C195.404 46.1429 198.803 41.2373 204.023 44.7042L207.196 41.6707C207.196 41.6707 204.231 39.4173 197.381 43.4561C192.907 46.1082 195.404 46.1429 195.404 46.1429Z" fill="#5685D8"/>
<path d="M192.04 50.9446C192.04 50.9446 191.364 45.3284 200.78 41.8096C200.78 41.8096 197.381 43.4563 196.323 49.0725L192.04 50.9446Z" fill="#739AF0"/>
<path d="M229.879 21.1123C229.879 21.1123 232.671 19.3616 232.948 17.2295C232.948 17.2295 235.654 17.3682 236.243 18.2522C236.243 18.2522 234.995 21.771 233.538 22.4297C233.555 22.4297 230.26 22.6551 229.879 21.1123Z" fill="#F99746"/>
<path d="M140.31 221.616C140.31 221.616 137.344 219.743 137.032 217.473C137.032 217.473 134.136 217.629 133.512 218.565C133.512 218.565 134.847 222.309 136.408 223.02C136.408 223.02 139.928 223.245 140.31 221.616Z" fill="#F99746"/>
<path d="M262.205 76.4776C262.205 76.4776 265.188 74.5881 265.5 72.3174C265.5 72.3174 268.396 72.4734 269.038 73.4094C269.038 73.4094 267.702 77.1709 266.142 77.8816C266.124 77.8989 262.587 78.1243 262.205 76.4776Z" fill="#86D1CD"/>
<path d="M227.989 161.414C227.989 161.414 226.272 159.316 225.335 159.022C224.416 158.727 222.613 157.34 222.387 157.912C222.162 158.484 223.601 159.368 223.514 160.027C223.445 160.686 218.936 161.726 218.971 162.419C219.006 163.113 220.029 164.777 221.746 164.586C223.462 164.395 227.815 163.355 228.717 163.806C229.601 164.257 227.989 161.414 227.989 161.414Z" fill="#FFB27D"/>
<path d="M274.413 151.239C271.864 154.654 268.899 157.34 265.829 159.472C256.1 166.233 245.556 167.238 245.556 167.238C243.025 166.423 235.273 165.591 230.677 164.846C228.683 164.517 227.278 164.222 227.191 163.962L227.313 159.975C227.313 159.975 244.152 159.091 246.944 157.791C251.349 154.012 255.233 149.089 257.748 145.241C259.881 142 262.274 139.608 266.228 138.204C271.933 136.158 282.321 140.648 274.413 151.239Z" fill="#AEC3FF"/>
<path d="M266.695 156.959L265.845 159.473C256.117 166.233 245.573 167.238 245.573 167.238C243.544 167.238 235.289 165.592 230.693 164.846C230.867 164.864 243.18 165.817 245.902 165.54C248.642 165.262 261.406 154.203 261.406 154.203L266.695 156.959Z" fill="#9DB0F4"/>
<path d="M255.719 283.533H274.327C275.662 282.631 273.962 273.791 273.962 273.791C273.962 273.791 268.881 271.867 268.014 275.784C267.13 279.702 261.546 280.95 258.58 281.418C256.551 281.747 255.91 282.857 255.719 283.533Z" fill="#233862"/>
<path d="M283.309 283.533H301.916C303.252 282.631 301.552 273.791 301.552 273.791C301.552 273.791 296.471 271.867 295.604 275.784C294.72 279.702 289.135 280.95 286.17 281.418C284.141 281.747 283.499 282.857 283.309 283.533Z" fill="#233862"/>
<path d="M260.713 193.395C260.713 193.395 261.545 203.831 262.534 216.363C263.869 233.403 267.476 275.611 267.476 275.611C267.476 275.611 269.835 277.622 275.072 276.53C275.072 276.53 279.529 261.969 280.864 245.328C280.881 245.051 280.899 244.774 280.934 244.514C282.165 227.596 284.107 191.939 284.107 191.939L260.713 193.395Z" fill="#2B478B"/>
<path d="M260.436 189.79C260.436 189.79 261.563 203.831 262.534 216.363L280.847 245.346C280.864 245.068 280.882 244.791 280.916 244.531C282.148 227.613 284.09 191.957 284.09 191.957L260.436 189.79Z" fill="#233862"/>
<path d="M265.777 189.79C265.777 189.79 279.061 222.846 283.31 235.378C286.327 244.305 294.877 275.628 294.877 275.628C294.877 275.628 298.588 276.755 301.71 274.571C301.71 274.571 304.883 242.572 298.467 233.558C295.068 228.774 297.617 183.809 283.83 183.428C270.026 183.029 265.777 189.79 265.777 189.79Z" fill="#2B478B"/>
<path d="M271.708 141.063C273.737 142.138 275.714 142.19 277.431 141.826C279.009 141.497 280.345 140.803 281.316 140.197C282.304 139.573 282.877 139.018 282.877 139.018C282.877 139.018 282.807 138.914 282.686 138.723C282.079 137.701 280.275 134.008 281.073 128.098C281.09 128.028 280.501 128.132 279.616 128.34C276.98 128.964 271.674 130.472 271.448 130.542H271.431C271.431 130.542 271.362 131.79 271.154 134.026C271.136 134.216 271.119 134.424 271.102 134.633C271.067 134.893 271.049 135.17 271.015 135.465C270.772 137.77 271.708 141.063 271.708 141.063Z" fill="#FFB27D"/>
<path d="M271.152 134.009C275.089 134.91 280.968 129.104 280.968 129.104C280.534 128.791 280.083 128.531 279.615 128.341C276.979 128.965 271.673 130.473 271.447 130.542H271.43C271.43 130.542 271.378 131.773 271.152 134.009Z" fill="#ED975D"/>
<path d="M269.817 130.213C269.817 130.213 271.43 130.785 273.494 131.062C276.511 131.461 280.483 131.236 281.731 127.578C283.83 121.442 286.518 117.75 280.327 115.236C277.014 113.902 274.899 113.815 273.459 114.335C272.211 114.786 271.482 115.652 270.91 116.536C269.731 118.443 267.32 129.138 269.817 130.213Z" fill="#FFB27D"/>
<path d="M266.072 117.039C269.645 119.604 274.604 117.091 276.131 117.767C277.674 118.443 277.951 121.026 277.969 121.84C278.003 122.655 278.108 123.348 280.189 122.863C280.535 122.776 280.778 122.811 280.952 122.915C281.819 123.435 280.709 125.914 280.379 126.451C280.379 126.451 279.894 128.236 280.969 129.103C281.09 129.207 283.189 130.126 288.235 122.412C289.033 121.199 289.779 118.477 288.565 115.843C287.333 113.208 282.235 110.677 277.899 109.325C276.269 108.822 275.073 108.84 274.136 109.186C272.558 109.758 271.726 111.249 270.893 112.74C269.489 115.236 266.072 117.039 266.072 117.039Z" fill="#A9453D"/>
<path d="M289.085 192.112C289.085 192.112 287.35 192.493 285.165 192.857C283.032 193.221 280.448 193.568 278.61 193.551C269.28 193.481 261.476 190.725 261.476 190.725C259.725 190.725 258.927 188.004 258.632 184.225C258.442 181.66 258.476 178.609 258.615 175.558C258.667 174.57 258.719 173.582 258.771 172.629C258.892 170.704 259.031 168.867 259.17 167.255C259.291 165.73 259.413 164.395 259.465 163.355C259.465 163.355 259.222 156.092 259.309 149.713C259.378 145.137 261.945 140.959 262.604 140.283C264.477 138.307 269.887 137.059 270.962 136.886C271.049 136.868 271.084 136.868 271.084 136.868C275.541 139.365 281.524 135.984 281.524 135.984C281.662 136.002 281.784 136.036 281.922 136.071C282.356 135.984 286.865 136.643 287.905 137.215C290.489 138.619 291.998 154.272 291.998 154.272C292.432 164.898 291.894 181.902 292.726 188.403C293.039 190.517 290.958 191.679 289.085 192.112Z" fill="#AEC3FF"/>
<path d="M281.922 136.054C281.922 136.054 275.298 142.883 270.546 141.497C270.546 141.497 269.922 140.578 272.055 140.283C274.188 139.971 276.494 140.093 281.922 136.054Z" fill="#9DB0F4"/>
<path d="M269.765 126.243C269.765 126.243 269.644 127.041 271.482 127.665C271.482 127.665 273.043 128.202 273.32 127.387C273.32 127.387 272.089 126.226 269.765 126.243Z" fill="white"/>
<path d="M285.564 161.917C285.564 161.917 275.94 178.02 270.477 180.846C266.783 182.77 261.615 183.775 258.65 184.226C258.459 181.66 258.494 178.61 258.633 175.559C262.552 175.091 268.5 174.328 268.5 174.328L285.564 161.917Z" fill="#9DB0F4"/>
<path d="M272.869 153.839L267.736 172.352C267.736 172.352 261.701 172.733 258.787 172.629C258.909 170.705 258.909 170.653 259.047 169.023C259.047 169.023 265.984 165.401 272.869 153.839Z" fill="#9DB0F4"/>
<path d="M241.965 173.721C241.965 173.721 240.248 171.624 239.312 171.329C238.393 171.035 236.589 169.648 236.364 170.22C236.138 170.792 237.578 171.676 237.491 172.335C237.422 172.993 232.913 174.033 232.947 174.727C232.982 175.42 234.005 177.084 235.722 176.894C237.439 176.703 241.792 175.663 242.694 176.114C243.578 176.564 241.965 173.721 241.965 173.721Z" fill="#FFB27D"/>
<path d="M292.569 148.032C292.569 148.032 292.864 157.843 270.511 177.518L266.019 169.475C265.187 168.989 280.465 136.159 284.852 136.419C293.35 136.921 292.569 148.032 292.569 148.032Z" fill="#AEC3FF"/>
<path d="M268.69 168.521C268.69 168.521 243.25 171.433 242.313 171.935C241.377 172.438 239.348 174.414 240.024 176.876C240.024 176.876 253.187 178.522 260.435 178.505C266.679 178.47 270.719 177.482 270.719 177.482L268.69 168.521Z" fill="#AEC3FF"/>
</svg>
