<svg width="71" height="71" viewBox="0 0 71 71" fill="none" xmlns="http://www.w3.org/2000/svg">
<circle cx="35.4621" cy="35.3844" r="34.8214" fill="#E9EFF7"/>
<path d="M23.6358 46.4342L35.9215 34.062C36.4118 33.5717 36.8011 33.1247 37.0895 32.7209C37.4067 32.2883 37.623 31.8846 37.7384 31.5096C37.8826 31.1347 37.9547 30.7454 37.9547 30.3416C37.9547 29.3322 37.623 28.5392 36.9597 27.9624C36.3252 27.3567 35.4601 27.0539 34.3641 27.0539C33.3836 27.0539 32.4751 27.3567 31.6388 27.9624C30.8024 28.5392 29.9084 29.5341 28.9567 30.9473L23.3329 25.8859C24.6019 23.8671 26.2313 22.3386 28.2213 21.3004C30.2401 20.2622 32.5328 19.743 35.0996 19.743C37.4356 19.743 39.4399 20.1612 41.1126 20.9976C42.8142 21.8051 44.112 22.9731 45.006 24.5016C45.9289 26.0301 46.3903 27.847 46.3903 29.9523C46.3903 31.1347 46.2317 32.2451 45.9145 33.2833C45.5972 34.3215 45.0925 35.3453 44.4004 36.3547C43.7082 37.3353 42.8142 38.3447 41.7183 39.3829L33.9748 46.737L23.6358 46.4342ZM23.6358 51.063V46.4342L30.8169 43.9684H47.0392V51.063H23.6358Z" fill="#1A0F91"/>
</svg>
