<svg width="21" height="21" viewBox="0 0 21 21" fill="none" xmlns="http://www.w3.org/2000/svg">
<path d="M15.2903 0.968293C15.7246 0.534006 16.4287 0.534006 16.863 0.968293L20.1992 4.30448C20.6335 4.73876 20.6335 5.44288 20.1992 5.87717L10.1906 15.8857C9.9821 16.0943 9.69924 16.2114 9.4043 16.2114H6.06812C5.45394 16.2114 4.95606 15.7136 4.95606 15.0994V11.7632C4.95606 11.4683 5.07322 11.1854 5.28177 10.9768L15.2903 0.968293ZM7.18018 12.2238V13.9873H8.94367L17.8402 5.09082L16.0767 3.32733L7.18018 12.2238ZM0.507812 5.09082C0.507812 3.86247 1.50359 2.8667 2.73194 2.8667H8.29224C8.90642 2.8667 9.4043 3.36459 9.4043 3.97876C9.4043 4.59294 8.90642 5.09082 8.29224 5.09082H2.73194V18.4356H16.0767V12.8753C16.0767 12.2611 16.5746 11.7632 17.1887 11.7632C17.8029 11.7632 18.3008 12.2611 18.3008 12.8753V18.4356C18.3008 19.6639 17.305 20.6597 16.0767 20.6597H2.73194C1.50359 20.6597 0.507812 19.6639 0.507812 18.4356V5.09082Z" fill="#A8A8A8"/>
</svg>
