<svg width="11" height="11" viewBox="0 0 11 11" fill="none" xmlns="http://www.w3.org/2000/svg">
<path d="M2.75 1.1C2.75 0.492487 3.24249 0 3.85 0H7.15C7.75751 0 8.25 0.492487 8.25 1.1V2.2H9.34432C9.34772 2.19997 9.35113 2.19997 9.35454 2.2H10.45C10.7538 2.2 11 2.44624 11 2.75C11 3.05376 10.7538 3.3 10.45 3.3H9.86212L9.38509 9.97837C9.34397 10.554 8.86499 11 8.28788 11H2.71212C2.13501 11 1.65603 10.554 1.61491 9.97837L1.13788 3.3H0.55C0.246243 3.3 0 3.05376 0 2.75C0 2.44624 0.246243 2.2 0.55 2.2H1.64546C1.64887 2.19997 1.65228 2.19997 1.65568 2.2H2.75V1.1ZM3.85 2.2H7.15V1.1H3.85V2.2ZM2.24069 3.3L2.71212 9.9H8.28788L8.75931 3.3H2.24069ZM4.4 4.4C4.70376 4.4 4.95 4.64624 4.95 4.95V8.25C4.95 8.55376 4.70376 8.8 4.4 8.8C4.09624 8.8 3.85 8.55376 3.85 8.25V4.95C3.85 4.64624 4.09624 4.4 4.4 4.4ZM6.6 4.4C6.90376 4.4 7.15 4.64624 7.15 4.95V8.25C7.15 8.55376 6.90376 8.8 6.6 8.8C6.29624 8.8 6.05 8.55376 6.05 8.25V4.95C6.05 4.64624 6.29624 4.4 6.6 4.4Z" fill="#A8A8A8"/>
</svg>
