<svg width="11" height="11" viewBox="0 0 11 11" fill="none" xmlns="http://www.w3.org/2000/svg">
<path d="M8.12344 0.17899C8.36209 -0.0596634 8.74902 -0.0596634 8.98768 0.17899L10.821 2.01232C11.0597 2.25098 11.0597 2.63791 10.821 2.87657L5.32101 8.37656C5.2064 8.49117 5.05097 8.55556 4.88889 8.55556H3.05556C2.71805 8.55556 2.44444 8.28195 2.44444 7.94444V6.11111C2.44444 5.94903 2.50883 5.7936 2.62343 5.67899L8.12344 0.17899ZM3.66667 6.36424V7.33333H4.63576L9.52465 2.44444L8.55556 1.47535L3.66667 6.36424ZM0 2.44444C0 1.76943 0.547208 1.22222 1.22222 1.22222H4.27778C4.61528 1.22222 4.88889 1.49583 4.88889 1.83333C4.88889 2.17084 4.61528 2.44444 4.27778 2.44444H1.22222V9.77778H8.55556V6.72222C8.55556 6.38471 8.82916 6.11111 9.16667 6.11111C9.50417 6.11111 9.77778 6.38471 9.77778 6.72222V9.77778C9.77778 10.4528 9.23057 11 8.55556 11H1.22222C0.547208 11 0 10.4528 0 9.77778V2.44444Z" fill="#A8A8A8"/>
</svg>
