<svg width="1920" height="819" viewBox="0 0 1920 819" fill="none" xmlns="http://www.w3.org/2000/svg">
<path fill-rule="evenodd" clip-rule="evenodd" d="M492.58 -538.578C223.03 -465.678 22.0068 -411.382 -37.5444 -295.474C-99.5518 -174.736 52.3948 -104.561 -31.184 31.2212C-92.4314 130.918 -198.343 132.022 -260.33 220.608C-356.099 357.262 -228.993 532.28 -120.005 618.903C204.495 876.721 1041.52 885.716 1561.25 643.18C1647.74 602.886 2149.69 368.648 2042.39 74.6811C1972.68 -116.223 1454.64 -68.02 1329.76 -288.267C1246.14 -435.962 1412.45 -538.489 1302.05 -612.184C1147.49 -715.556 699.759 -594.562 492.58 -538.578Z" fill="url(#paint0_linear_1264_524)"/>
<defs>
<linearGradient id="paint0_linear_1264_524" x1="1796.97" y1="-477.771" x2="611.45" y2="671.247" gradientUnits="userSpaceOnUse">
<stop stop-color="#AABDFF" stop-opacity="0"/>
<stop offset="0.6875" stop-color="#89AEF4" stop-opacity="0.29"/>
<stop offset="1" stop-color="#EDEFFF" stop-opacity="0.4"/>
</linearGradient>
</defs>
</svg>
